<?xml version="1.0" encoding="UTF-8" standalone="no"?>
<!DOCTYPE svg PUBLIC "-//W3C//DTD SVG 1.1//EN"
 "http://www.w3.org/Graphics/SVG/1.1/DTD/svg11.dtd">
<!-- Generated by graphviz version 2.38.0 (20140413.2041)
 -->
<!-- Title: HAL_I2C_SlaveTransferData_DMA Pages: 1 -->
<svg width="309pt" height="66pt"
 viewBox="0.00 0.00 309.00 66.00" xmlns="http://www.w3.org/2000/svg" xmlns:xlink="http://www.w3.org/1999/xlink">
<g id="graph0" class="graph" transform="scale(1 1) rotate(0) translate(4 62)">
<title>HAL_I2C_SlaveTransferData_DMA</title>
<polygon fill="white" stroke="none" points="-4,4 -4,-62 305,-62 305,4 -4,4"/>
<!-- Node78 -->
<g id="node1" class="node"><title>Node78</title>
<g id="a_node1"><a xlink:title="Receive and Transmit data in slave mode by DMA.">
<polygon fill="#bfbfbf" stroke="black" points="0,-19.5 0,-38.5 165,-38.5 165,-19.5 0,-19.5"/>
<text text-anchor="middle" x="82.5" y="-26.5" font-family="Helvetica,sans-Serif" font-size="10.00">HAL_I2C_SlaveTransferData_DMA</text>
</a>
</g>
</g>
<!-- Node79 -->
<g id="node2" class="node"><title>Node79</title>
<g id="a_node2"><a xlink:href="_a31_l12x__hal__dmacn_8h.html#aed27eb8ff1494f44b94c8ed749f6a010" target="_top" xlink:title="Enable the transfer.">
<polygon fill="white" stroke="black" points="201,-38.5 201,-57.5 301,-57.5 301,-38.5 201,-38.5"/>
<text text-anchor="middle" x="251" y="-45.5" font-family="Helvetica,sans-Serif" font-size="10.00">HAL_DMAC_Setup</text>
</a>
</g>
</g>
<!-- Node78&#45;&gt;Node79 -->
<g id="edge1" class="edge"><title>Node78&#45;&gt;Node79</title>
<path fill="none" stroke="midnightblue" d="M165.287,-38.333C173.94,-39.3205 182.614,-40.3103 190.935,-41.2599"/>
<polygon fill="midnightblue" stroke="midnightblue" points="190.553,-44.7389 200.885,-42.3953 191.347,-37.784 190.553,-44.7389"/>
</g>
<!-- Node80 -->
<g id="node3" class="node"><title>Node80</title>
<g id="a_node3"><a xlink:href="_a31_l12x__hal__i2cn_8c.html#a15e9a4755791cd7daaeb8025b47d4076" target="_top" xlink:title="wait and return status in slave mode">
<polygon fill="white" stroke="black" points="217,-0.5 217,-19.5 285,-19.5 285,-0.5 217,-0.5"/>
<text text-anchor="middle" x="251" y="-7.5" font-family="Helvetica,sans-Serif" font-size="10.00">I2Cn_SWait</text>
</a>
</g>
</g>
<!-- Node78&#45;&gt;Node80 -->
<g id="edge2" class="edge"><title>Node78&#45;&gt;Node80</title>
<path fill="none" stroke="midnightblue" d="M165.287,-19.667C179.55,-18.0393 193.871,-16.4051 206.574,-14.9556"/>
<polygon fill="midnightblue" stroke="midnightblue" points="207.288,-18.3969 216.826,-13.7856 206.494,-11.442 207.288,-18.3969"/>
</g>
</g>
</svg>
