<?xml version="1.0" encoding="UTF-8" standalone="no"?>
<!DOCTYPE svg PUBLIC "-//W3C//DTD SVG 1.1//EN"
 "http://www.w3.org/Graphics/SVG/1.1/DTD/svg11.dtd">
<!-- Generated by graphviz version 2.38.0 (20140413.2041)
 -->
<!-- Title: HAL_SPIn_Init Pages: 1 -->
<svg width="234pt" height="165pt"
 viewBox="0.00 0.00 234.00 164.50" xmlns="http://www.w3.org/2000/svg" xmlns:xlink="http://www.w3.org/1999/xlink">
<g id="graph0" class="graph" transform="scale(1 1) rotate(0) translate(4 160.5)">
<title>HAL_SPIn_Init</title>
<polygon fill="white" stroke="none" points="-4,4 -4,-160.5 230,-160.5 230,4 -4,4"/>
<!-- Node0 -->
<g id="node1" class="node"><title>Node0</title>
<g id="a_node1"><a xlink:title="Initialize the SPIn peripheral with the specified parameters.">
<polygon fill="#bfbfbf" stroke="black" points="0,-60.5 0,-79.5 80,-79.5 80,-60.5 0,-60.5"/>
<text text-anchor="middle" x="40" y="-67.5" font-family="Helvetica,sans-Serif" font-size="10.00">HAL_SPIn_Init</text>
</a>
</g>
</g>
<!-- Node1 -->
<g id="node2" class="node"><title>Node1</title>
<g id="a_node2"><a xlink:href="_a31_l12x__hal__scu_8h.html#a7d0a497cdf6bc58ed14a54aed75a04ec" target="_top" xlink:title="Set Each Peripheral Clock.">
<polygon fill="white" stroke="black" points="116,-126 116,-156 226,-156 226,-126 116,-126"/>
<text text-anchor="start" x="124" y="-144" font-family="Helvetica,sans-Serif" font-size="10.00">HAL_SCU_Peripheral</text>
<text text-anchor="middle" x="171" y="-133" font-family="Helvetica,sans-Serif" font-size="10.00">_EnableClock2</text>
</a>
</g>
</g>
<!-- Node0&#45;&gt;Node1 -->
<g id="edge1" class="edge"><title>Node0&#45;&gt;Node1</title>
<path fill="none" stroke="midnightblue" d="M55.0212,-79.627C69.8276,-89.5912 94.0242,-105.306 116,-117 118.898,-118.542 121.916,-120.074 124.977,-121.573"/>
<polygon fill="midnightblue" stroke="midnightblue" points="123.684,-124.834 134.219,-125.955 126.682,-118.508 123.684,-124.834"/>
</g>
<!-- Node2 -->
<g id="node3" class="node"><title>Node2</title>
<g id="a_node3"><a xlink:href="_a31_l12x__hal__scu_8h.html#a86f85811c7a32616b6f21328fa2d868f" target="_top" xlink:title="Set/Reset Each Peripheral Block Reset of PPRST2 Register.">
<polygon fill="white" stroke="black" points="116,-77 116,-107 226,-107 226,-77 116,-77"/>
<text text-anchor="start" x="124" y="-95" font-family="Helvetica,sans-Serif" font-size="10.00">HAL_SCU_Peripheral</text>
<text text-anchor="middle" x="171" y="-84" font-family="Helvetica,sans-Serif" font-size="10.00">_SetReset2</text>
</a>
</g>
</g>
<!-- Node0&#45;&gt;Node2 -->
<g id="edge2" class="edge"><title>Node0&#45;&gt;Node2</title>
<path fill="none" stroke="midnightblue" d="M80.0543,-76.6604C88.244,-78.0571 97.0854,-79.565 105.916,-81.071"/>
<polygon fill="midnightblue" stroke="midnightblue" points="105.401,-84.5336 115.847,-82.7646 106.578,-77.6332 105.401,-84.5336"/>
</g>
<!-- Node3 -->
<g id="node4" class="node"><title>Node3</title>
<g id="a_node4"><a xlink:href="_a31_l12x__hal__spin_8c.html#a0c02940d1f27f3885335c801f8f10e20" target="_top" xlink:title="Determines best dividers to get a target clock rate.">
<polygon fill="white" stroke="black" points="128,-38.5 128,-57.5 214,-57.5 214,-38.5 128,-38.5"/>
<text text-anchor="middle" x="171" y="-45.5" font-family="Helvetica,sans-Serif" font-size="10.00">spi_set_divisors</text>
</a>
</g>
</g>
<!-- Node0&#45;&gt;Node3 -->
<g id="edge3" class="edge"><title>Node0&#45;&gt;Node3</title>
<path fill="none" stroke="midnightblue" d="M80.0543,-63.3396C91.9912,-61.3038 105.313,-59.0319 117.969,-56.8736"/>
<polygon fill="midnightblue" stroke="midnightblue" points="118.667,-60.3051 127.936,-55.1737 117.49,-53.4047 118.667,-60.3051"/>
</g>
<!-- Node4 -->
<g id="node5" class="node"><title>Node4</title>
<g id="a_node5"><a xlink:href="_a31_l12x__hal__spin_8c.html#a76eee117c3b930aef8d5928519439334" target="_top" xlink:title="Receive a single data from SPIn peripheral.">
<polygon fill="white" stroke="black" points="122.5,-0.5 122.5,-19.5 219.5,-19.5 219.5,-0.5 122.5,-0.5"/>
<text text-anchor="middle" x="171" y="-7.5" font-family="Helvetica,sans-Serif" font-size="10.00">SPIn_ReceiveByte</text>
</a>
</g>
</g>
<!-- Node0&#45;&gt;Node4 -->
<g id="edge4" class="edge"><title>Node0&#45;&gt;Node4</title>
<path fill="none" stroke="midnightblue" d="M56.7126,-60.4336C71.6308,-51.5879 94.8558,-38.4247 116,-29 120.702,-26.9042 125.712,-24.8787 130.712,-22.9808"/>
<polygon fill="midnightblue" stroke="midnightblue" points="132.042,-26.2215 140.234,-19.5035 129.64,-19.6462 132.042,-26.2215"/>
</g>
</g>
</svg>
