<?xml version="1.0" encoding="UTF-8" standalone="no"?>
<!DOCTYPE svg PUBLIC "-//W3C//DTD SVG 1.1//EN"
 "http://www.w3.org/Graphics/SVG/1.1/DTD/svg11.dtd">
<!-- Generated by graphviz version 2.38.0 (20140413.2041)
 -->
<!-- Title: HAL_I2C_Master_IRQHandler_IT Pages: 1 -->
<svg width="324pt" height="66pt"
 viewBox="0.00 0.00 324.00 66.00" xmlns="http://www.w3.org/2000/svg" xmlns:xlink="http://www.w3.org/1999/xlink">
<g id="graph0" class="graph" transform="scale(1 1) rotate(0) translate(4 62)">
<title>HAL_I2C_Master_IRQHandler_IT</title>
<polygon fill="white" stroke="none" points="-4,4 -4,-62 320,-62 320,4 -4,4"/>
<!-- Node17 -->
<g id="node1" class="node"><title>Node17</title>
<g id="a_node1"><a xlink:title="General Master Interrupt handler for I2C peripheral.">
<polygon fill="#bfbfbf" stroke="black" points="0,-19.5 0,-38.5 158,-38.5 158,-19.5 0,-19.5"/>
<text text-anchor="middle" x="79" y="-26.5" font-family="Helvetica,sans-Serif" font-size="10.00">HAL_I2C_Master_IRQHandler_IT</text>
</a>
</g>
</g>
<!-- Node18 -->
<g id="node2" class="node"><title>Node18</title>
<g id="a_node2"><a xlink:href="_a31_l12x__hal__i2cn_8c.html#a133ae17b04b34797ec747141b0a4d4e9" target="_top" xlink:title="Enable/Disable interrupt for I2C peripheral.">
<polygon fill="white" stroke="black" points="194,-38.5 194,-57.5 316,-57.5 316,-38.5 194,-38.5"/>
<text text-anchor="middle" x="255" y="-45.5" font-family="Helvetica,sans-Serif" font-size="10.00">HAL_I2C_ConfigInterrupt</text>
</a>
</g>
</g>
<!-- Node17&#45;&gt;Node18 -->
<g id="edge1" class="edge"><title>Node17&#45;&gt;Node18</title>
<path fill="none" stroke="midnightblue" d="M158.093,-37.5274C166.636,-38.4602 175.294,-39.4056 183.734,-40.3272"/>
<polygon fill="midnightblue" stroke="midnightblue" points="183.577,-43.8308 193.898,-41.4371 184.337,-36.8722 183.577,-43.8308"/>
</g>
<!-- Node19 -->
<g id="node3" class="node"><title>Node19</title>
<g id="a_node3"><a xlink:href="_a31_l12x__hal__i2cn_8c.html#afd408e2448333d4efa4b237c73a8cfcb" target="_top" xlink:title="Convert from I2C peripheral to number.">
<polygon fill="white" stroke="black" points="217.5,-0.5 217.5,-19.5 292.5,-19.5 292.5,-0.5 217.5,-0.5"/>
<text text-anchor="middle" x="255" y="-7.5" font-family="Helvetica,sans-Serif" font-size="10.00">I2Cn_getNum</text>
</a>
</g>
</g>
<!-- Node17&#45;&gt;Node19 -->
<g id="edge2" class="edge"><title>Node17&#45;&gt;Node19</title>
<path fill="none" stroke="midnightblue" d="M158.093,-20.4726C174.829,-18.6451 192.01,-16.769 207.123,-15.1188"/>
<polygon fill="midnightblue" stroke="midnightblue" points="207.663,-18.5807 217.224,-14.0158 206.903,-11.6221 207.663,-18.5807"/>
</g>
</g>
</svg>
