<?xml version="1.0" encoding="UTF-8" standalone="no"?>
<!DOCTYPE svg PUBLIC "-//W3C//DTD SVG 1.1//EN"
 "http://www.w3.org/Graphics/SVG/1.1/DTD/svg11.dtd">
<!-- Generated by graphviz version 2.38.0 (20140413.2041)
 -->
<!-- Title: HAL_CRC_DeInit Pages: 1 -->
<svg width="245pt" height="88pt"
 viewBox="0.00 0.00 245.00 88.00" xmlns="http://www.w3.org/2000/svg" xmlns:xlink="http://www.w3.org/1999/xlink">
<g id="graph0" class="graph" transform="scale(1 1) rotate(0) translate(4 84)">
<title>HAL_CRC_DeInit</title>
<polygon fill="white" stroke="none" points="-4,4 -4,-84 241,-84 241,4 -4,4"/>
<!-- Node4 -->
<g id="node1" class="node"><title>Node4</title>
<g id="a_node1"><a xlink:title="DeInitialize CRC peripheral.">
<polygon fill="#bfbfbf" stroke="black" points="0,-30 0,-49 91,-49 91,-30 0,-30"/>
<text text-anchor="middle" x="45.5" y="-37" font-family="Helvetica,sans-Serif" font-size="10.00">HAL_CRC_DeInit</text>
</a>
</g>
</g>
<!-- Node5 -->
<g id="node2" class="node"><title>Node5</title>
<g id="a_node2"><a xlink:href="_a31_l12x__hal__scu_8h.html#a7d0a497cdf6bc58ed14a54aed75a04ec" target="_top" xlink:title="Set Each Peripheral Clock.">
<polygon fill="white" stroke="black" points="127,-49.5 127,-79.5 237,-79.5 237,-49.5 127,-49.5"/>
<text text-anchor="start" x="135" y="-67.5" font-family="Helvetica,sans-Serif" font-size="10.00">HAL_SCU_Peripheral</text>
<text text-anchor="middle" x="182" y="-56.5" font-family="Helvetica,sans-Serif" font-size="10.00">_EnableClock2</text>
</a>
</g>
</g>
<!-- Node4&#45;&gt;Node5 -->
<g id="edge1" class="edge"><title>Node4&#45;&gt;Node5</title>
<path fill="none" stroke="midnightblue" d="M91.2866,-47.8246C99.4155,-49.3356 108.039,-50.9385 116.601,-52.53"/>
<polygon fill="midnightblue" stroke="midnightblue" points="116.119,-56.0003 126.591,-54.3867 117.399,-49.1181 116.119,-56.0003"/>
</g>
<!-- Node6 -->
<g id="node3" class="node"><title>Node6</title>
<g id="a_node3"><a xlink:href="_a31_l12x__hal__scu_8h.html#a86f85811c7a32616b6f21328fa2d868f" target="_top" xlink:title="Set/Reset Each Peripheral Block Reset of PPRST2 Register.">
<polygon fill="white" stroke="black" points="127,-0.5 127,-30.5 237,-30.5 237,-0.5 127,-0.5"/>
<text text-anchor="start" x="135" y="-18.5" font-family="Helvetica,sans-Serif" font-size="10.00">HAL_SCU_Peripheral</text>
<text text-anchor="middle" x="182" y="-7.5" font-family="Helvetica,sans-Serif" font-size="10.00">_SetReset2</text>
</a>
</g>
</g>
<!-- Node4&#45;&gt;Node6 -->
<g id="edge2" class="edge"><title>Node4&#45;&gt;Node6</title>
<path fill="none" stroke="midnightblue" d="M91.2866,-31.5083C99.4155,-30.0578 108.039,-28.519 116.601,-26.9912"/>
<polygon fill="midnightblue" stroke="midnightblue" points="117.361,-30.411 126.591,-25.2087 116.131,-23.5199 117.361,-30.411"/>
</g>
</g>
</svg>
