<?xml version="1.0" encoding="UTF-8" standalone="no"?>
<!DOCTYPE svg PUBLIC "-//W3C//DTD SVG 1.1//EN"
 "http://www.w3.org/Graphics/SVG/1.1/DTD/svg11.dtd">
<!-- Generated by graphviz version 2.38.0 (20140413.2041)
 -->
<!-- Title: HAL_I2C_Master_Receive Pages: 1 -->
<svg width="476pt" height="104pt"
 viewBox="0.00 0.00 476.00 104.00" xmlns="http://www.w3.org/2000/svg" xmlns:xlink="http://www.w3.org/1999/xlink">
<g id="graph0" class="graph" transform="scale(1 1) rotate(0) translate(4 100)">
<title>HAL_I2C_Master_Receive</title>
<polygon fill="white" stroke="none" points="-4,4 -4,-100 472,-100 472,4 -4,4"/>
<!-- Node21 -->
<g id="node1" class="node"><title>Node21</title>
<g id="a_node1"><a xlink:title="Receive an array of bytes in Master mode.">
<polygon fill="#bfbfbf" stroke="black" points="0,-38.5 0,-57.5 129,-57.5 129,-38.5 0,-38.5"/>
<text text-anchor="middle" x="64.5" y="-45.5" font-family="Helvetica,sans-Serif" font-size="10.00">HAL_I2C_Master_Receive</text>
</a>
</g>
</g>
<!-- Node22 -->
<g id="node2" class="node"><title>Node22</title>
<g id="a_node2"><a xlink:href="_a31_l12x__hal__i2cn_8c.html#aedbb9343dec1237085f9e9f1bc1a033d" target="_top" xlink:title="Transmit and Receive data in master mode.">
<polygon fill="white" stroke="black" points="165,-38.5 165,-57.5 310,-57.5 310,-38.5 165,-38.5"/>
<text text-anchor="middle" x="237.5" y="-45.5" font-family="Helvetica,sans-Serif" font-size="10.00">HAL_I2C_MasterTransferData</text>
</a>
</g>
</g>
<!-- Node21&#45;&gt;Node22 -->
<g id="edge1" class="edge"><title>Node21&#45;&gt;Node22</title>
<path fill="none" stroke="midnightblue" d="M129.174,-48C137.501,-48 146.123,-48 154.696,-48"/>
<polygon fill="midnightblue" stroke="midnightblue" points="154.716,-51.5001 164.716,-48 154.716,-44.5001 154.716,-51.5001"/>
</g>
<!-- Node23 -->
<g id="node3" class="node"><title>Node23</title>
<g id="a_node3"><a xlink:href="_a31_l12x__hal__i2cn_8c.html#a133ae17b04b34797ec747141b0a4d4e9" target="_top" xlink:title="Enable/Disable interrupt for I2C peripheral.">
<polygon fill="white" stroke="black" points="346,-76.5 346,-95.5 468,-95.5 468,-76.5 346,-76.5"/>
<text text-anchor="middle" x="407" y="-83.5" font-family="Helvetica,sans-Serif" font-size="10.00">HAL_I2C_ConfigInterrupt</text>
</a>
</g>
</g>
<!-- Node22&#45;&gt;Node23 -->
<g id="edge2" class="edge"><title>Node22&#45;&gt;Node23</title>
<path fill="none" stroke="midnightblue" d="M280.767,-57.589C303.07,-62.6487 330.623,-68.8996 354.202,-74.2488"/>
<polygon fill="midnightblue" stroke="midnightblue" points="353.51,-77.6807 364.037,-76.4799 355.059,-70.8542 353.51,-77.6807"/>
</g>
<!-- Node24 -->
<g id="node4" class="node"><title>Node24</title>
<g id="a_node4"><a xlink:href="_a31_l12x__hal__i2cn_8c.html#afd408e2448333d4efa4b237c73a8cfcb" target="_top" xlink:title="Convert from I2C peripheral to number.">
<polygon fill="white" stroke="black" points="369.5,-38.5 369.5,-57.5 444.5,-57.5 444.5,-38.5 369.5,-38.5"/>
<text text-anchor="middle" x="407" y="-45.5" font-family="Helvetica,sans-Serif" font-size="10.00">I2Cn_getNum</text>
</a>
</g>
</g>
<!-- Node22&#45;&gt;Node24 -->
<g id="edge3" class="edge"><title>Node22&#45;&gt;Node24</title>
<path fill="none" stroke="midnightblue" d="M310.021,-48C326.637,-48 343.91,-48 359.147,-48"/>
<polygon fill="midnightblue" stroke="midnightblue" points="359.337,-51.5001 369.337,-48 359.337,-44.5001 359.337,-51.5001"/>
</g>
<!-- Node25 -->
<g id="node5" class="node"><title>Node25</title>
<g id="a_node5"><a xlink:href="_a31_l12x__hal__i2cn_8c.html#a4a2199129f04199e68f6f52bdaefcbdb" target="_top" xlink:title="wait and return status in master mode">
<polygon fill="white" stroke="black" points="372,-0.5 372,-19.5 442,-19.5 442,-0.5 372,-0.5"/>
<text text-anchor="middle" x="407" y="-7.5" font-family="Helvetica,sans-Serif" font-size="10.00">I2Cn_MWait</text>
</a>
</g>
</g>
<!-- Node22&#45;&gt;Node25 -->
<g id="edge4" class="edge"><title>Node22&#45;&gt;Node25</title>
<path fill="none" stroke="midnightblue" d="M280.767,-38.411C305.554,-32.7876 336.827,-25.6929 361.921,-20"/>
<polygon fill="midnightblue" stroke="midnightblue" points="362.93,-23.36 371.908,-17.7342 361.382,-16.5335 362.93,-23.36"/>
</g>
</g>
</svg>
