<?xml version="1.0" encoding="UTF-8" standalone="no"?>
<!DOCTYPE svg PUBLIC "-//W3C//DTD SVG 1.1//EN"
 "http://www.w3.org/Graphics/SVG/1.1/DTD/svg11.dtd">
<!-- Generated by graphviz version 2.38.0 (20140413.2041)
 -->
<!-- Title: HAL_SC_ReceiveByte Pages: 1 -->
<svg width="250pt" height="66pt"
 viewBox="0.00 0.00 250.00 66.00" xmlns="http://www.w3.org/2000/svg" xmlns:xlink="http://www.w3.org/1999/xlink">
<g id="graph0" class="graph" transform="scale(1 1) rotate(0) translate(4 62)">
<title>HAL_SC_ReceiveByte</title>
<polygon fill="white" stroke="none" points="-4,4 -4,-62 246,-62 246,4 -4,4"/>
<!-- Node45 -->
<g id="node1" class="node"><title>Node45</title>
<g id="a_node1"><a xlink:title="Receive a single data from SCn peripheral.">
<polygon fill="#bfbfbf" stroke="black" points="129,-19.5 129,-38.5 242,-38.5 242,-19.5 129,-19.5"/>
<text text-anchor="middle" x="185.5" y="-26.5" font-family="Helvetica,sans-Serif" font-size="10.00">HAL_SC_ReceiveByte</text>
</a>
</g>
</g>
<!-- Node46 -->
<g id="node2" class="node"><title>Node46</title>
<g id="a_node2"><a xlink:href="_a31_l12x__hal__scn_8c.html#ab3874bdeb76d2ee4368e18e8bcb2816f" target="_top" xlink:title="Initialize the SCn peripheral with the specified parameters.">
<polygon fill="white" stroke="black" points="10.5,-38.5 10.5,-57.5 82.5,-57.5 82.5,-38.5 10.5,-38.5"/>
<text text-anchor="middle" x="46.5" y="-45.5" font-family="Helvetica,sans-Serif" font-size="10.00">HAL_SC_Init</text>
</a>
</g>
</g>
<!-- Node45&#45;&gt;Node46 -->
<g id="edge1" class="edge"><title>Node45&#45;&gt;Node46</title>
<path fill="none" stroke="midnightblue" d="M118.842,-38.1058C106.381,-39.834 93.7952,-41.5795 82.7364,-43.1132"/>
<polygon fill="midnightblue" stroke="midnightblue" points="119.352,-41.5686 128.777,-36.728 118.391,-34.635 119.352,-41.5686"/>
</g>
<!-- Node47 -->
<g id="node3" class="node"><title>Node47</title>
<g id="a_node3"><a xlink:href="_a31_l12x__hal__scn_8c.html#a569274c4acdc7b2fbedf82ac919a46f6" target="_top" xlink:title="Receive a block of data via SCn peripheral.">
<polygon fill="white" stroke="black" points="0,-0.5 0,-19.5 93,-19.5 93,-0.5 0,-0.5"/>
<text text-anchor="middle" x="46.5" y="-7.5" font-family="Helvetica,sans-Serif" font-size="10.00">HAL_SC_Receive</text>
</a>
</g>
</g>
<!-- Node45&#45;&gt;Node47 -->
<g id="edge2" class="edge"><title>Node45&#45;&gt;Node47</title>
<path fill="none" stroke="midnightblue" d="M118.684,-19.8722C110.035,-18.6727 101.329,-17.4654 93.119,-16.3267"/>
<polygon fill="midnightblue" stroke="midnightblue" points="118.391,-23.365 128.777,-21.272 119.352,-16.4314 118.391,-23.365"/>
</g>
</g>
</svg>
