<?xml version="1.0" encoding="UTF-8" standalone="no"?>
<!DOCTYPE svg PUBLIC "-//W3C//DTD SVG 1.1//EN"
 "http://www.w3.org/Graphics/SVG/1.1/DTD/svg11.dtd">
<!-- Generated by graphviz version 2.38.0 (20140413.2041)
 -->
<!-- Title: SPIn_ReceiveByte Pages: 1 -->
<svg width="221pt" height="66pt"
 viewBox="0.00 0.00 221.00 66.00" xmlns="http://www.w3.org/2000/svg" xmlns:xlink="http://www.w3.org/1999/xlink">
<g id="graph0" class="graph" transform="scale(1 1) rotate(0) translate(4 62)">
<title>SPIn_ReceiveByte</title>
<polygon fill="white" stroke="none" points="-4,4 -4,-62 217,-62 217,4 -4,4"/>
<!-- Node27 -->
<g id="node1" class="node"><title>Node27</title>
<g id="a_node1"><a xlink:title="Receive a single data from SPIn peripheral.">
<polygon fill="#bfbfbf" stroke="black" points="116,-19.5 116,-38.5 213,-38.5 213,-19.5 116,-19.5"/>
<text text-anchor="middle" x="164.5" y="-26.5" font-family="Helvetica,sans-Serif" font-size="10.00">SPIn_ReceiveByte</text>
</a>
</g>
</g>
<!-- Node28 -->
<g id="node2" class="node"><title>Node28</title>
<g id="a_node2"><a xlink:href="_a31_l12x__hal__spin_8c.html#aa04293967566099d8ae083b36b82f644" target="_top" xlink:title="Initialize the SPIn peripheral with the specified parameters.">
<polygon fill="white" stroke="black" points="0,-38.5 0,-57.5 80,-57.5 80,-38.5 0,-38.5"/>
<text text-anchor="middle" x="40" y="-45.5" font-family="Helvetica,sans-Serif" font-size="10.00">HAL_SPIn_Init</text>
</a>
</g>
</g>
<!-- Node27&#45;&gt;Node28 -->
<g id="edge1" class="edge"><title>Node27&#45;&gt;Node28</title>
<path fill="none" stroke="midnightblue" d="M105.685,-37.9672C97.0076,-39.3131 88.2379,-40.6733 80.0755,-41.9393"/>
<polygon fill="midnightblue" stroke="midnightblue" points="106.442,-41.3917 115.788,-36.4003 105.369,-34.4744 106.442,-41.3917"/>
</g>
<!-- Node29 -->
<g id="node3" class="node"><title>Node29</title>
<g id="a_node3"><a xlink:href="_a31_l12x__hal__spin_8c.html#aba913179e402247e21aed7a9407d4e7e" target="_top" xlink:title="Receive a block of data via SPIn peripheral.">
<polygon fill="white" stroke="black" points="1.5,-0.5 1.5,-19.5 78.5,-19.5 78.5,-0.5 1.5,-0.5"/>
<text text-anchor="middle" x="40" y="-7.5" font-family="Helvetica,sans-Serif" font-size="10.00">SPIn_Receive</text>
</a>
</g>
</g>
<!-- Node27&#45;&gt;Node29 -->
<g id="edge2" class="edge"><title>Node27&#45;&gt;Node29</title>
<path fill="none" stroke="midnightblue" d="M105.814,-20.0527C96.5456,-18.6152 87.1682,-17.1608 78.5344,-15.8217"/>
<polygon fill="midnightblue" stroke="midnightblue" points="105.369,-23.5256 115.788,-21.5997 106.442,-16.6083 105.369,-23.5256"/>
</g>
</g>
</svg>
