<?xml version="1.0" encoding="UTF-8" standalone="no"?>
<!DOCTYPE svg PUBLIC "-//W3C//DTD SVG 1.1//EN"
 "http://www.w3.org/Graphics/SVG/1.1/DTD/svg11.dtd">
<!-- Generated by graphviz version 2.38.0 (20140413.2041)
 -->
<!-- Title: HAL_FMC_FlashEntry Pages: 1 -->
<svg width="273pt" height="104pt"
 viewBox="0.00 0.00 273.00 104.00" xmlns="http://www.w3.org/2000/svg" xmlns:xlink="http://www.w3.org/1999/xlink">
<g id="graph0" class="graph" transform="scale(1 1) rotate(0) translate(4 100)">
<title>HAL_FMC_FlashEntry</title>
<polygon fill="white" stroke="none" points="-4,4 -4,-100 269,-100 269,4 -4,4"/>
<!-- Node6 -->
<g id="node1" class="node"><title>Node6</title>
<g id="a_node1"><a xlink:title="Entry of Flash Memory Control.">
<polygon fill="#bfbfbf" stroke="black" points="151,-38.5 151,-57.5 265,-57.5 265,-38.5 151,-38.5"/>
<text text-anchor="middle" x="208" y="-45.5" font-family="Helvetica,sans-Serif" font-size="10.00">HAL_FMC_FlashEntry</text>
</a>
</g>
</g>
<!-- Node7 -->
<g id="node2" class="node"><title>Node7</title>
<g id="a_node2"><a xlink:href="_a31_l12x__hal__fmc_8c.html#afecfcf9e9af4c487d2372387312e5d67" target="_top" xlink:title="Flash Bulk(Chip) Erase Function.">
<polygon fill="white" stroke="black" points="1.5,-76.5 1.5,-95.5 113.5,-95.5 113.5,-76.5 1.5,-76.5"/>
<text text-anchor="middle" x="57.5" y="-83.5" font-family="Helvetica,sans-Serif" font-size="10.00">HAL_FMC_BulkErase</text>
</a>
</g>
</g>
<!-- Node6&#45;&gt;Node7 -->
<g id="edge1" class="edge"><title>Node6&#45;&gt;Node7</title>
<path fill="none" stroke="midnightblue" d="M159.667,-60.1121C138.985,-65.4044 115.081,-71.5213 95.7034,-76.4799"/>
<polygon fill="midnightblue" stroke="midnightblue" points="160.707,-63.4589 169.527,-57.589 158.972,-56.6774 160.707,-63.4589"/>
</g>
<!-- Node8 -->
<g id="node3" class="node"><title>Node8</title>
<g id="a_node3"><a xlink:href="_a31_l12x__hal__fmc_8c.html#acbef36e2ac9437bd006e86722fa51441" target="_top" xlink:title="Flash Page Erase Function.">
<polygon fill="white" stroke="black" points="0,-38.5 0,-57.5 115,-57.5 115,-38.5 0,-38.5"/>
<text text-anchor="middle" x="57.5" y="-45.5" font-family="Helvetica,sans-Serif" font-size="10.00">HAL_FMC_PageErase</text>
</a>
</g>
</g>
<!-- Node6&#45;&gt;Node8 -->
<g id="edge2" class="edge"><title>Node6&#45;&gt;Node8</title>
<path fill="none" stroke="midnightblue" d="M140.616,-48C132.137,-48 123.52,-48 115.214,-48"/>
<polygon fill="midnightblue" stroke="midnightblue" points="140.859,-51.5001 150.859,-48 140.858,-44.5001 140.859,-51.5001"/>
</g>
<!-- Node9 -->
<g id="node4" class="node"><title>Node9</title>
<g id="a_node4"><a xlink:href="_a31_l12x__hal__fmc_8c.html#a713d9e992681eaf9ebfa49287c996af1" target="_top" xlink:title="Flash Page Write Function.">
<polygon fill="white" stroke="black" points="1,-0.5 1,-19.5 114,-19.5 114,-0.5 1,-0.5"/>
<text text-anchor="middle" x="57.5" y="-7.5" font-family="Helvetica,sans-Serif" font-size="10.00">HAL_FMC_PageWrite</text>
</a>
</g>
</g>
<!-- Node6&#45;&gt;Node9 -->
<g id="edge3" class="edge"><title>Node6&#45;&gt;Node9</title>
<path fill="none" stroke="midnightblue" d="M159.667,-35.8879C138.985,-30.5956 115.081,-24.4787 95.7034,-19.5201"/>
<polygon fill="midnightblue" stroke="midnightblue" points="158.972,-39.3226 169.527,-38.411 160.707,-32.5411 158.972,-39.3226"/>
</g>
</g>
</svg>
