<?xml version="1.0" encoding="UTF-8" standalone="no"?>
<!DOCTYPE svg PUBLIC "-//W3C//DTD SVG 1.1//EN"
 "http://www.w3.org/Graphics/SVG/1.1/DTD/svg11.dtd">
<!-- Generated by graphviz version 2.38.0 (20140413.2041)
 -->
<!-- Title: SPIn_DeInit Pages: 1 -->
<svg width="222pt" height="88pt"
 viewBox="0.00 0.00 222.00 88.00" xmlns="http://www.w3.org/2000/svg" xmlns:xlink="http://www.w3.org/1999/xlink">
<g id="graph0" class="graph" transform="scale(1 1) rotate(0) translate(4 84)">
<title>SPIn_DeInit</title>
<polygon fill="white" stroke="none" points="-4,4 -4,-84 218,-84 218,4 -4,4"/>
<!-- Node15 -->
<g id="node1" class="node"><title>Node15</title>
<g id="a_node1"><a xlink:title="Deinitialize the SPIn peripheral registers to their default reset values.">
<polygon fill="#bfbfbf" stroke="black" points="0,-30 0,-49 68,-49 68,-30 0,-30"/>
<text text-anchor="middle" x="34" y="-37" font-family="Helvetica,sans-Serif" font-size="10.00">SPIn_DeInit</text>
</a>
</g>
</g>
<!-- Node16 -->
<g id="node2" class="node"><title>Node16</title>
<g id="a_node2"><a xlink:href="_a31_l12x__hal__scu_8h.html#a7d0a497cdf6bc58ed14a54aed75a04ec" target="_top" xlink:title="Set Each Peripheral Clock.">
<polygon fill="white" stroke="black" points="104,-49.5 104,-79.5 214,-79.5 214,-49.5 104,-49.5"/>
<text text-anchor="start" x="112" y="-67.5" font-family="Helvetica,sans-Serif" font-size="10.00">HAL_SCU_Peripheral</text>
<text text-anchor="middle" x="159" y="-56.5" font-family="Helvetica,sans-Serif" font-size="10.00">_EnableClock2</text>
</a>
</g>
</g>
<!-- Node15&#45;&gt;Node16 -->
<g id="edge1" class="edge"><title>Node15&#45;&gt;Node16</title>
<path fill="none" stroke="midnightblue" d="M68.2856,-46.2654C76.2462,-47.8834 85.012,-49.665 93.851,-51.4616"/>
<polygon fill="midnightblue" stroke="midnightblue" points="93.3257,-54.9263 103.822,-53.4883 94.72,-48.0666 93.3257,-54.9263"/>
</g>
<!-- Node17 -->
<g id="node3" class="node"><title>Node17</title>
<g id="a_node3"><a xlink:href="_a31_l12x__hal__scu_8h.html#a86f85811c7a32616b6f21328fa2d868f" target="_top" xlink:title="Set/Reset Each Peripheral Block Reset of PPRST2 Register.">
<polygon fill="white" stroke="black" points="104,-0.5 104,-30.5 214,-30.5 214,-0.5 104,-0.5"/>
<text text-anchor="start" x="112" y="-18.5" font-family="Helvetica,sans-Serif" font-size="10.00">HAL_SCU_Peripheral</text>
<text text-anchor="middle" x="159" y="-7.5" font-family="Helvetica,sans-Serif" font-size="10.00">_SetReset2</text>
</a>
</g>
</g>
<!-- Node15&#45;&gt;Node17 -->
<g id="edge2" class="edge"><title>Node15&#45;&gt;Node17</title>
<path fill="none" stroke="midnightblue" d="M68.2856,-33.0053C76.2462,-31.452 85.012,-29.7416 93.851,-28.0169"/>
<polygon fill="midnightblue" stroke="midnightblue" points="94.6779,-31.4216 103.822,-26.0712 93.3372,-24.5512 94.6779,-31.4216"/>
</g>
</g>
</svg>
