<?xml version="1.0" encoding="UTF-8" standalone="no"?>
<!DOCTYPE svg PUBLIC "-//W3C//DTD SVG 1.1//EN"
 "http://www.w3.org/Graphics/SVG/1.1/DTD/svg11.dtd">
<!-- Generated by graphviz version 2.38.0 (20140413.2041)
 -->
<!-- Title: UARTGetChar Pages: 1 -->
<svg width="388pt" height="28pt"
 viewBox="0.00 0.00 388.00 28.00" xmlns="http://www.w3.org/2000/svg" xmlns:xlink="http://www.w3.org/1999/xlink">
<g id="graph0" class="graph" transform="scale(1 1) rotate(0) translate(4 24)">
<title>UARTGetChar</title>
<polygon fill="white" stroke="none" points="-4,4 -4,-24 384,-24 384,4 -4,4"/>
<!-- Node38 -->
<g id="node1" class="node"><title>Node38</title>
<g id="a_node1"><a xlink:title="Get a character to UART port.">
<polygon fill="#bfbfbf" stroke="black" points="0,-0.5 0,-19.5 78,-19.5 78,-0.5 0,-0.5"/>
<text text-anchor="middle" x="39" y="-7.5" font-family="Helvetica,sans-Serif" font-size="10.00">UARTGetChar</text>
</a>
</g>
</g>
<!-- Node39 -->
<g id="node2" class="node"><title>Node39</title>
<g id="a_node2"><a xlink:href="_a31_l12x__hal__uartn_8h.html#acc979b053c6e3a4fd224714df511b4f5" target="_top" xlink:title="Receive a block of data via UART peripheral.">
<polygon fill="white" stroke="black" points="114,-0.5 114,-19.5 219,-19.5 219,-0.5 114,-0.5"/>
<text text-anchor="middle" x="166.5" y="-7.5" font-family="Helvetica,sans-Serif" font-size="10.00">HAL_UART_Receive</text>
</a>
</g>
</g>
<!-- Node38&#45;&gt;Node39 -->
<g id="edge1" class="edge"><title>Node38&#45;&gt;Node39</title>
<path fill="none" stroke="midnightblue" d="M78.3361,-10C86.4185,-10 95.1412,-10 103.836,-10"/>
<polygon fill="midnightblue" stroke="midnightblue" points="103.99,-13.5001 113.99,-10 103.99,-6.5001 103.99,-13.5001"/>
</g>
<!-- Node40 -->
<g id="node3" class="node"><title>Node40</title>
<g id="a_node3"><a xlink:href="_a31_l12x__hal__uartn_8c.html#aea7d60af1ecdb767452af416422e3446" target="_top" xlink:title="Receive a single data from UART peripheral.">
<polygon fill="white" stroke="black" points="255,-0.5 255,-19.5 380,-19.5 380,-0.5 255,-0.5"/>
<text text-anchor="middle" x="317.5" y="-7.5" font-family="Helvetica,sans-Serif" font-size="10.00">HAL_UART_ReceiveByte</text>
</a>
</g>
</g>
<!-- Node39&#45;&gt;Node40 -->
<g id="edge2" class="edge"><title>Node39&#45;&gt;Node40</title>
<path fill="none" stroke="midnightblue" d="M219.195,-10C227.471,-10 236.163,-10 244.805,-10"/>
<polygon fill="midnightblue" stroke="midnightblue" points="244.899,-13.5001 254.899,-10 244.899,-6.5001 244.899,-13.5001"/>
</g>
</g>
</svg>
