<?xml version="1.0" encoding="UTF-8" standalone="no"?>
<!DOCTYPE svg PUBLIC "-//W3C//DTD SVG 1.1//EN"
 "http://www.w3.org/Graphics/SVG/1.1/DTD/svg11.dtd">
<!-- Generated by graphviz version 2.38.0 (20140413.2041)
 -->
<!-- Title: HAL_COMP_Deinit Pages: 1 -->
<svg width="254pt" height="88pt"
 viewBox="0.00 0.00 254.00 88.00" xmlns="http://www.w3.org/2000/svg" xmlns:xlink="http://www.w3.org/1999/xlink">
<g id="graph0" class="graph" transform="scale(1 1) rotate(0) translate(4 84)">
<title>HAL_COMP_Deinit</title>
<polygon fill="white" stroke="none" points="-4,4 -4,-84 250,-84 250,4 -4,4"/>
<!-- Node16 -->
<g id="node1" class="node"><title>Node16</title>
<g id="a_node1"><a xlink:title="Deinitialize the target peripheral.">
<polygon fill="#bfbfbf" stroke="black" points="0,-30 0,-49 100,-49 100,-30 0,-30"/>
<text text-anchor="middle" x="50" y="-37" font-family="Helvetica,sans-Serif" font-size="10.00">HAL_COMP_Deinit</text>
</a>
</g>
</g>
<!-- Node17 -->
<g id="node2" class="node"><title>Node17</title>
<g id="a_node2"><a xlink:href="_a31_l12x__hal__scu_8h.html#a7d0a497cdf6bc58ed14a54aed75a04ec" target="_top" xlink:title="Set Each Peripheral Clock.">
<polygon fill="white" stroke="black" points="136,-49.5 136,-79.5 246,-79.5 246,-49.5 136,-49.5"/>
<text text-anchor="start" x="144" y="-67.5" font-family="Helvetica,sans-Serif" font-size="10.00">HAL_SCU_Peripheral</text>
<text text-anchor="middle" x="191" y="-56.5" font-family="Helvetica,sans-Serif" font-size="10.00">_EnableClock2</text>
</a>
</g>
</g>
<!-- Node16&#45;&gt;Node17 -->
<g id="edge1" class="edge"><title>Node16&#45;&gt;Node17</title>
<path fill="none" stroke="midnightblue" d="M100.006,-48.3141C108.321,-49.8095 117.065,-51.3822 125.701,-52.9355"/>
<polygon fill="midnightblue" stroke="midnightblue" points="125.297,-56.4188 135.758,-54.7443 126.536,-49.5293 125.297,-56.4188"/>
</g>
<!-- Node18 -->
<g id="node3" class="node"><title>Node18</title>
<g id="a_node3"><a xlink:href="_a31_l12x__hal__scu_8h.html#a86f85811c7a32616b6f21328fa2d868f" target="_top" xlink:title="Set/Reset Each Peripheral Block Reset of PPRST2 Register.">
<polygon fill="white" stroke="black" points="136,-0.5 136,-30.5 246,-30.5 246,-0.5 136,-0.5"/>
<text text-anchor="start" x="144" y="-18.5" font-family="Helvetica,sans-Serif" font-size="10.00">HAL_SCU_Peripheral</text>
<text text-anchor="middle" x="191" y="-7.5" font-family="Helvetica,sans-Serif" font-size="10.00">_SetReset2</text>
</a>
</g>
</g>
<!-- Node16&#45;&gt;Node18 -->
<g id="edge2" class="edge"><title>Node16&#45;&gt;Node18</title>
<path fill="none" stroke="midnightblue" d="M100.006,-31.0385C108.321,-29.6029 117.065,-28.0931 125.701,-26.6019"/>
<polygon fill="midnightblue" stroke="midnightblue" points="126.5,-30.016 135.758,-24.8655 125.309,-23.118 126.5,-30.016"/>
</g>
</g>
</svg>
