<?xml version="1.0" encoding="UTF-8" standalone="no"?>
<!DOCTYPE svg PUBLIC "-//W3C//DTD SVG 1.1//EN"
 "http://www.w3.org/Graphics/SVG/1.1/DTD/svg11.dtd">
<!-- Generated by graphviz version 2.38.0 (20140413.2041)
 -->
<!-- Title: HAL_FMC_PageErase Pages: 1 -->
<svg width="287pt" height="104pt"
 viewBox="0.00 0.00 287.00 104.00" xmlns="http://www.w3.org/2000/svg" xmlns:xlink="http://www.w3.org/1999/xlink">
<g id="graph0" class="graph" transform="scale(1 1) rotate(0) translate(4 100)">
<title>HAL_FMC_PageErase</title>
<polygon fill="white" stroke="none" points="-4,4 -4,-100 283,-100 283,4 -4,4"/>
<!-- Node20 -->
<g id="node1" class="node"><title>Node20</title>
<g id="a_node1"><a xlink:title="Flash Page Erase Function.">
<polygon fill="#bfbfbf" stroke="black" points="0,-38.5 0,-57.5 115,-57.5 115,-38.5 0,-38.5"/>
<text text-anchor="middle" x="57.5" y="-45.5" font-family="Helvetica,sans-Serif" font-size="10.00">HAL_FMC_PageErase</text>
</a>
</g>
</g>
<!-- Node21 -->
<g id="node2" class="node"><title>Node21</title>
<g id="a_node2"><a xlink:href="_a31_l12x__hal__fmc_8c.html#ae3273cd46e1816ecb351b03627a79c82" target="_top" xlink:title="Entry of Flash Memory Control.">
<polygon fill="white" stroke="black" points="158,-76.5 158,-95.5 272,-95.5 272,-76.5 158,-76.5"/>
<text text-anchor="middle" x="215" y="-83.5" font-family="Helvetica,sans-Serif" font-size="10.00">HAL_FMC_FlashEntry</text>
</a>
</g>
</g>
<!-- Node20&#45;&gt;Node21 -->
<g id="edge1" class="edge"><title>Node20&#45;&gt;Node21</title>
<path fill="none" stroke="midnightblue" d="M97.7392,-57.589C118.259,-62.6035 143.567,-68.7881 165.325,-74.1053"/>
<polygon fill="midnightblue" stroke="midnightblue" points="164.498,-77.506 175.043,-76.4799 166.16,-70.706 164.498,-77.506"/>
</g>
<!-- Node22 -->
<g id="node3" class="node"><title>Node22</title>
<g id="a_node3"><a xlink:href="_a31_l12x__hal__fmc_8c.html#a5e897c8bc511682862346649423d5a84" target="_top" xlink:title="Exit of Flash Memory Control.">
<polygon fill="white" stroke="black" points="161,-38.5 161,-57.5 269,-57.5 269,-38.5 161,-38.5"/>
<text text-anchor="middle" x="215" y="-45.5" font-family="Helvetica,sans-Serif" font-size="10.00">HAL_FMC_FlashExit</text>
</a>
</g>
</g>
<!-- Node20&#45;&gt;Node22 -->
<g id="edge2" class="edge"><title>Node20&#45;&gt;Node22</title>
<path fill="none" stroke="midnightblue" d="M115.079,-48C126.631,-48 138.858,-48 150.63,-48"/>
<polygon fill="midnightblue" stroke="midnightblue" points="150.829,-51.5001 160.829,-48 150.829,-44.5001 150.829,-51.5001"/>
</g>
<!-- Node23 -->
<g id="node4" class="node"><title>Node23</title>
<g id="a_node4"><a xlink:href="_a31_l12x__hal__fmc_8c.html#a40346f2014c4d2b068c7b760e50a9e89" target="_top" xlink:title="Flash Page Erase/Write and Bulk(Chip) Erase.">
<polygon fill="white" stroke="black" points="151,-0.5 151,-19.5 279,-19.5 279,-0.5 151,-0.5"/>
<text text-anchor="middle" x="215" y="-7.5" font-family="Helvetica,sans-Serif" font-size="10.00">HAL_FMC_FlashFunction</text>
</a>
</g>
</g>
<!-- Node20&#45;&gt;Node23 -->
<g id="edge3" class="edge"><title>Node20&#45;&gt;Node23</title>
<path fill="none" stroke="midnightblue" d="M97.7392,-38.411C118.259,-33.3965 143.567,-27.2119 165.325,-21.8947"/>
<polygon fill="midnightblue" stroke="midnightblue" points="166.16,-25.294 175.043,-19.5201 164.498,-18.494 166.16,-25.294"/>
</g>
</g>
</svg>
