<?xml version="1.0" encoding="UTF-8" standalone="no"?>
<!DOCTYPE svg PUBLIC "-//W3C//DTD SVG 1.1//EN"
 "http://www.w3.org/Graphics/SVG/1.1/DTD/svg11.dtd">
<!-- Generated by graphviz version 2.38.0 (20140413.2041)
 -->
<!-- Title: UARTGetChar Pages: 1 -->
<svg width="217pt" height="66pt"
 viewBox="0.00 0.00 217.00 66.00" xmlns="http://www.w3.org/2000/svg" xmlns:xlink="http://www.w3.org/1999/xlink">
<g id="graph0" class="graph" transform="scale(1 1) rotate(0) translate(4 62)">
<title>UARTGetChar</title>
<polygon fill="white" stroke="none" points="-4,4 -4,-62 213,-62 213,4 -4,4"/>
<!-- Node44 -->
<g id="node1" class="node"><title>Node44</title>
<g id="a_node1"><a xlink:title="Get a character to UART port.">
<polygon fill="#bfbfbf" stroke="black" points="131,-19.5 131,-38.5 209,-38.5 209,-19.5 131,-19.5"/>
<text text-anchor="middle" x="170" y="-26.5" font-family="Helvetica,sans-Serif" font-size="10.00">UARTGetChar</text>
</a>
</g>
</g>
<!-- Node45 -->
<g id="node2" class="node"><title>Node45</title>
<g id="a_node2"><a xlink:href="_a31_l12x__hal__debug__frmwrk_8c.html#aa79ebfdcc65f8acaa847e9deaecea5a0" target="_top" xlink:title="Initializes Debug Framework through initializing UARTn.">
<polygon fill="white" stroke="black" points="0,-38.5 0,-57.5 95,-57.5 95,-38.5 0,-38.5"/>
<text text-anchor="middle" x="47.5" y="-45.5" font-family="Helvetica,sans-Serif" font-size="10.00">debug_frmwrk_init</text>
</a>
</g>
</g>
<!-- Node44&#45;&gt;Node45 -->
<g id="edge1" class="edge"><title>Node44&#45;&gt;Node45</title>
<path fill="none" stroke="midnightblue" d="M120.811,-36.5983C112.39,-37.926 103.642,-39.3054 95.2609,-40.6269"/>
<polygon fill="midnightblue" stroke="midnightblue" points="121.54,-40.0266 130.873,-35.0117 120.45,-33.112 121.54,-40.0266"/>
</g>
<!-- Node46 -->
<g id="node3" class="node"><title>Node46</title>
<g id="a_node3"><a xlink:href="_a31_l12x__hal__debug__frmwrk_8c.html#a715f28fa289a7cef9f522fab87a552f6" target="_top" xlink:title="Get a character to UART port.">
<polygon fill="white" stroke="black" points="20.5,-0.5 20.5,-19.5 74.5,-19.5 74.5,-0.5 20.5,-0.5"/>
<text text-anchor="middle" x="47.5" y="-7.5" font-family="Helvetica,sans-Serif" font-size="10.00">getstring</text>
</a>
</g>
</g>
<!-- Node44&#45;&gt;Node46 -->
<g id="edge2" class="edge"><title>Node44&#45;&gt;Node46</title>
<path fill="none" stroke="midnightblue" d="M120.726,-21.3884C104.963,-18.9029 88.0606,-16.2378 74.5725,-14.111"/>
<polygon fill="midnightblue" stroke="midnightblue" points="120.45,-24.888 130.873,-22.9883 121.54,-17.9734 120.45,-24.888"/>
</g>
</g>
</svg>
