<?xml version="1.0" encoding="UTF-8" standalone="no"?>
<!DOCTYPE svg PUBLIC "-//W3C//DTD SVG 1.1//EN"
 "http://www.w3.org/Graphics/SVG/1.1/DTD/svg11.dtd">
<!-- Generated by graphviz version 2.38.0 (20140413.2041)
 -->
<!-- Title: HAL_SCU_Peripheral_EnableClock1 Pages: 1 -->
<svg width="264pt" height="66pt"
 viewBox="0.00 0.00 264.00 66.00" xmlns="http://www.w3.org/2000/svg" xmlns:xlink="http://www.w3.org/1999/xlink">
<g id="graph0" class="graph" transform="scale(1 1) rotate(0) translate(4 62)">
<title>HAL_SCU_Peripheral_EnableClock1</title>
<polygon fill="white" stroke="none" points="-4,4 -4,-62 260,-62 260,4 -4,4"/>
<!-- Node23 -->
<g id="node1" class="node"><title>Node23</title>
<g id="a_node1"><a xlink:title="Set Each Peripheral Clock.">
<polygon fill="#bfbfbf" stroke="black" points="146,-14 146,-44 256,-44 256,-14 146,-14"/>
<text text-anchor="start" x="154" y="-32" font-family="Helvetica,sans-Serif" font-size="10.00">HAL_SCU_Peripheral</text>
<text text-anchor="middle" x="201" y="-21" font-family="Helvetica,sans-Serif" font-size="10.00">_EnableClock1</text>
</a>
</g>
</g>
<!-- Node24 -->
<g id="node2" class="node"><title>Node24</title>
<g id="a_node2"><a xlink:href="_a31_l12x__hal__timer4n_8c.html#a1853b360620f700e4bc832921e0d4dbc" target="_top" xlink:title="Close Timer/Counter device.">
<polygon fill="white" stroke="black" points="0,-38.5 0,-57.5 110,-57.5 110,-38.5 0,-38.5"/>
<text text-anchor="middle" x="55" y="-45.5" font-family="Helvetica,sans-Serif" font-size="10.00">HAL_TIMER4n_DeInit</text>
</a>
</g>
</g>
<!-- Node23&#45;&gt;Node24 -->
<g id="edge1" class="edge"><title>Node23&#45;&gt;Node24</title>
<path fill="none" stroke="midnightblue" d="M136.009,-37.4432C127.439,-38.574 118.716,-39.725 110.333,-40.8311"/>
<polygon fill="midnightblue" stroke="midnightblue" points="136.514,-40.9071 145.97,-36.129 135.598,-33.9672 136.514,-40.9071"/>
</g>
<!-- Node25 -->
<g id="node3" class="node"><title>Node25</title>
<g id="a_node3"><a xlink:href="_a31_l12x__hal__timer4n_8c.html#a9c5094d31ea28f84b12ab64620e555dd" target="_top" xlink:title="Initialize the TIMER4n peripheral with the specified parameters.">
<polygon fill="white" stroke="black" points="6,-0.5 6,-19.5 104,-19.5 104,-0.5 6,-0.5"/>
<text text-anchor="middle" x="55" y="-7.5" font-family="Helvetica,sans-Serif" font-size="10.00">HAL_TIMER4n_Init</text>
</a>
</g>
</g>
<!-- Node23&#45;&gt;Node25 -->
<g id="edge2" class="edge"><title>Node23&#45;&gt;Node25</title>
<path fill="none" stroke="midnightblue" d="M135.864,-20.5376C125.217,-19.1327 114.337,-17.6973 104.172,-16.356"/>
<polygon fill="midnightblue" stroke="midnightblue" points="135.598,-24.0328 145.97,-21.871 136.514,-17.0929 135.598,-24.0328"/>
</g>
</g>
</svg>
