<?xml version="1.0" encoding="UTF-8" standalone="no"?>
<!DOCTYPE svg PUBLIC "-//W3C//DTD SVG 1.1//EN"
 "http://www.w3.org/Graphics/SVG/1.1/DTD/svg11.dtd">
<!-- Generated by graphviz version 2.38.0 (20140413.2041)
 -->
<!-- Title: HAL_FMC_FlashExit Pages: 1 -->
<svg width="267pt" height="104pt"
 viewBox="0.00 0.00 267.00 104.00" xmlns="http://www.w3.org/2000/svg" xmlns:xlink="http://www.w3.org/1999/xlink">
<g id="graph0" class="graph" transform="scale(1 1) rotate(0) translate(4 100)">
<title>HAL_FMC_FlashExit</title>
<polygon fill="white" stroke="none" points="-4,4 -4,-100 263,-100 263,4 -4,4"/>
<!-- Node11 -->
<g id="node1" class="node"><title>Node11</title>
<g id="a_node1"><a xlink:title="Exit of Flash Memory Control.">
<polygon fill="#bfbfbf" stroke="black" points="151,-38.5 151,-57.5 259,-57.5 259,-38.5 151,-38.5"/>
<text text-anchor="middle" x="205" y="-45.5" font-family="Helvetica,sans-Serif" font-size="10.00">HAL_FMC_FlashExit</text>
</a>
</g>
</g>
<!-- Node12 -->
<g id="node2" class="node"><title>Node12</title>
<g id="a_node2"><a xlink:href="_a31_l12x__hal__fmc_8c.html#afecfcf9e9af4c487d2372387312e5d67" target="_top" xlink:title="Flash Bulk(Chip) Erase Function.">
<polygon fill="white" stroke="black" points="1.5,-76.5 1.5,-95.5 113.5,-95.5 113.5,-76.5 1.5,-76.5"/>
<text text-anchor="middle" x="57.5" y="-83.5" font-family="Helvetica,sans-Serif" font-size="10.00">HAL_FMC_BulkErase</text>
</a>
</g>
</g>
<!-- Node11&#45;&gt;Node12 -->
<g id="edge1" class="edge"><title>Node11&#45;&gt;Node12</title>
<path fill="none" stroke="midnightblue" d="M157.347,-60.1843C137.147,-65.46 113.852,-71.5438 94.9518,-76.4799"/>
<polygon fill="midnightblue" stroke="midnightblue" points="158.493,-63.5024 167.284,-57.589 156.724,-56.7296 158.493,-63.5024"/>
</g>
<!-- Node13 -->
<g id="node3" class="node"><title>Node13</title>
<g id="a_node3"><a xlink:href="_a31_l12x__hal__fmc_8c.html#acbef36e2ac9437bd006e86722fa51441" target="_top" xlink:title="Flash Page Erase Function.">
<polygon fill="white" stroke="black" points="0,-38.5 0,-57.5 115,-57.5 115,-38.5 0,-38.5"/>
<text text-anchor="middle" x="57.5" y="-45.5" font-family="Helvetica,sans-Serif" font-size="10.00">HAL_FMC_PageErase</text>
</a>
</g>
</g>
<!-- Node11&#45;&gt;Node13 -->
<g id="edge2" class="edge"><title>Node11&#45;&gt;Node13</title>
<path fill="none" stroke="midnightblue" d="M140.515,-48C132.116,-48 123.549,-48 115.272,-48"/>
<polygon fill="midnightblue" stroke="midnightblue" points="140.647,-51.5001 150.647,-48 140.647,-44.5001 140.647,-51.5001"/>
</g>
<!-- Node14 -->
<g id="node4" class="node"><title>Node14</title>
<g id="a_node4"><a xlink:href="_a31_l12x__hal__fmc_8c.html#a713d9e992681eaf9ebfa49287c996af1" target="_top" xlink:title="Flash Page Write Function.">
<polygon fill="white" stroke="black" points="1,-0.5 1,-19.5 114,-19.5 114,-0.5 1,-0.5"/>
<text text-anchor="middle" x="57.5" y="-7.5" font-family="Helvetica,sans-Serif" font-size="10.00">HAL_FMC_PageWrite</text>
</a>
</g>
</g>
<!-- Node11&#45;&gt;Node14 -->
<g id="edge3" class="edge"><title>Node11&#45;&gt;Node14</title>
<path fill="none" stroke="midnightblue" d="M157.347,-35.8157C137.147,-30.54 113.852,-24.4562 94.9518,-19.5201"/>
<polygon fill="midnightblue" stroke="midnightblue" points="156.724,-39.2704 167.284,-38.411 158.493,-32.4976 156.724,-39.2704"/>
</g>
</g>
</svg>
