<?xml version="1.0" encoding="UTF-8" standalone="no"?>
<!DOCTYPE svg PUBLIC "-//W3C//DTD SVG 1.1//EN"
 "http://www.w3.org/Graphics/SVG/1.1/DTD/svg11.dtd">
<!-- Generated by graphviz version 2.38.0 (20140413.2041)
 -->
<!-- Title: debug_frmwrk_init Pages: 1 -->
<!--zoomable 560 -->
<svg id="main" version="1.1" xmlns="http://www.w3.org/2000/svg" xmlns:xlink="http://www.w3.org/1999/xlink" xml:space="preserve" onload="init(evt)">
<style type="text/css"><![CDATA[
.edge:hover path { stroke: red; }
.edge:hover polygon { stroke: red; fill: red; }
]]></style>
<script type="text/javascript"><![CDATA[
var edges = document.getElementsByTagName('g');
if (edges && edges.length) {
  for (var i=0;i<edges.length;i++) {
    if (edges[i].id.substr(0,4)=='edge') {
      edges[i].setAttribute('class','edge');
    }
  }
}
]]></script>
        <defs>
                <circle id="rim" cx="0" cy="0" r="7"/>
                <circle id="rim2" cx="0" cy="0" r="3.5"/>
                <g id="zoomPlus">
                        <use xlink:href="#rim" fill="#404040">
                                <set attributeName="fill" to="#808080" begin="zoomplus.mouseover" end="zoomplus.mouseout"/>
                        </use>
                        <path d="M-4,0h8M0,-4v8" fill="none" stroke="white" stroke-width="1.5" pointer-events="none"/>
                </g>
                <g id="zoomMin">
                        <use xlink:href="#rim" fill="#404040">
                                <set attributeName="fill" to="#808080" begin="zoomminus.mouseover" end="zoomminus.mouseout"/>
                        </use>
                        <path d="M-4,0h8" fill="none" stroke="white" stroke-width="1.5" pointer-events="none"/>
                </g>
                <g id="dirArrow">
                        <path fill="none" stroke="white" stroke-width="1.5" d="M0,-3.0v7 M-2.5,-0.5L0,-3.0L2.5,-0.5"/>
                </g>
               <g id="resetDef">
                       <use xlink:href="#rim2" fill="#404040">
                               <set attributeName="fill" to="#808080" begin="reset.mouseover" end="reset.mouseout"/>
                       </use>
               </g>
        </defs>

<script type="text/javascript">
var viewWidth = 908;
var viewHeight = 560;
var sectionId = 'dynsection-0';
</script>
<script xlink:href="svgpan.js"/>
<svg id="graph" class="graph">
<g id="viewport">
<title>debug_frmwrk_init</title>
<polygon fill="white" stroke="none" points="-4,4 -4,-556 904,-556 904,4 -4,4"/>
<!-- Node2 -->
<g id="node1" class="node"><title>Node2</title>
<g id="a_node1"><a xlink:title="Initializes Debug Framework through initializing UARTn.">
<polygon fill="#bfbfbf" stroke="black" points="0,-266.5 0,-285.5 95,-285.5 95,-266.5 0,-266.5"/>
<text text-anchor="middle" x="47.5" y="-273.5" font-family="Helvetica,sans-Serif" font-size="10.00">debug_frmwrk_init</text>
</a>
</g>
</g>
<!-- Node3 -->
<g id="node2" class="node"><title>Node3</title>
<g id="a_node2"><a xlink:href="_a31_l12x__hal__pcu_8h.html#a2974d2e51d2049e0dfb4bde8cd0baab5" target="_top" xlink:title="Configure pin function.">
<polygon fill="white" stroke="black" points="132.5,-532.5 132.5,-551.5 266.5,-551.5 266.5,-532.5 132.5,-532.5"/>
<text text-anchor="middle" x="199.5" y="-539.5" font-family="Helvetica,sans-Serif" font-size="10.00">HAL_GPIO_ConfigFunction</text>
</a>
</g>
</g>
<!-- Node2&#45;&gt;Node3 -->
<g id="edge1" class="edge"><title>Node2&#45;&gt;Node3</title>
<path fill="none" stroke="midnightblue" d="M48.6805,-285.707C49.907,-322.492 59.3292,-454.688 131,-523 132.647,-524.57 134.413,-526.011 136.272,-527.336"/>
<polygon fill="midnightblue" stroke="midnightblue" points="134.542,-530.378 144.938,-532.42 138.084,-524.341 134.542,-530.378"/>
</g>
<!-- Node4 -->
<g id="node3" class="node"><title>Node4</title>
<g id="a_node3"><a xlink:href="_a31_l12x__hal__pcu_8h.html#a6127f8ab95f78b6b159b6f39aa57451f" target="_top" xlink:title="Configure pin mode.">
<polygon fill="white" stroke="black" points="136.5,-494.5 136.5,-513.5 262.5,-513.5 262.5,-494.5 136.5,-494.5"/>
<text text-anchor="middle" x="199.5" y="-501.5" font-family="Helvetica,sans-Serif" font-size="10.00">HAL_GPIO_ConfigOutput</text>
</a>
</g>
</g>
<!-- Node2&#45;&gt;Node4 -->
<g id="edge2" class="edge"><title>Node2&#45;&gt;Node4</title>
<path fill="none" stroke="midnightblue" d="M49.3333,-285.576C52.7268,-318.56 68.4711,-428.521 131,-485 132.725,-486.558 134.568,-487.989 136.502,-489.304"/>
<polygon fill="midnightblue" stroke="midnightblue" points="135.049,-492.503 145.481,-494.355 138.481,-486.402 135.049,-492.503"/>
</g>
<!-- Node5 -->
<g id="node4" class="node"><title>Node5</title>
<g id="a_node4"><a xlink:href="_a31_l12x__hal__uartn_8h.html#a8be4d210619e3530b5528ac340c293e2" target="_top" xlink:title="Fills each UARTn_Config member with its default value:">
<polygon fill="white" stroke="black" points="131,-456.5 131,-475.5 268,-475.5 268,-456.5 131,-456.5"/>
<text text-anchor="middle" x="199.5" y="-463.5" font-family="Helvetica,sans-Serif" font-size="10.00">HAL_UART_ConfigStructInit</text>
</a>
</g>
</g>
<!-- Node2&#45;&gt;Node5 -->
<g id="edge3" class="edge"><title>Node2&#45;&gt;Node5</title>
<path fill="none" stroke="midnightblue" d="M50.3113,-285.851C56.2194,-315.122 77.7083,-402.31 131,-447 133.041,-448.711 135.225,-450.269 137.515,-451.686"/>
<polygon fill="midnightblue" stroke="midnightblue" points="136.291,-454.994 146.779,-456.489 139.512,-448.779 136.291,-454.994"/>
</g>
<!-- Node6 -->
<g id="node5" class="node"><title>Node6</title>
<g id="a_node5"><a xlink:href="_a31_l12x__hal__uartn_8h.html#a51447d216b4fe2c99ebde7753ced6568" target="_top" xlink:title="Initialize the UARTn peripheral with the specified parameters.">
<polygon fill="white" stroke="black" points="157.5,-418.5 157.5,-437.5 241.5,-437.5 241.5,-418.5 157.5,-418.5"/>
<text text-anchor="middle" x="199.5" y="-425.5" font-family="Helvetica,sans-Serif" font-size="10.00">HAL_UART_Init</text>
</a>
</g>
</g>
<!-- Node2&#45;&gt;Node6 -->
<g id="edge4" class="edge"><title>Node2&#45;&gt;Node6</title>
<path fill="none" stroke="midnightblue" d="M51.7184,-285.745C60.3615,-310.371 86.4878,-375.513 131,-409 136.044,-412.794 141.813,-415.831 147.807,-418.262"/>
<polygon fill="midnightblue" stroke="midnightblue" points="146.744,-421.598 157.339,-421.603 149.06,-414.992 146.744,-421.598"/>
</g>
<!-- Node9 -->
<g id="node8" class="node"><title>Node9</title>
<g id="a_node8"><a xlink:href="_a31_l12x__hal__debug__frmwrk_8c.html#a6022e022519aa6bd27a43165ae705674" target="_top" xlink:title="Get a character to UART port.">
<polygon fill="white" stroke="black" points="164.5,-380.5 164.5,-399.5 234.5,-399.5 234.5,-380.5 164.5,-380.5"/>
<text text-anchor="middle" x="199.5" y="-387.5" font-family="Helvetica,sans-Serif" font-size="10.00">UARTGetCh</text>
</a>
</g>
</g>
<!-- Node2&#45;&gt;Node9 -->
<g id="edge7" class="edge"><title>Node2&#45;&gt;Node9</title>
<path fill="none" stroke="midnightblue" d="M54.1924,-285.726C65.9878,-305.01 95.0248,-348.192 131,-371 138.09,-375.495 146.259,-378.948 154.41,-381.592"/>
<polygon fill="midnightblue" stroke="midnightblue" points="153.693,-385.028 164.271,-384.434 155.631,-378.302 153.693,-385.028"/>
</g>
<!-- Node11 -->
<g id="node10" class="node"><title>Node11</title>
<g id="a_node10"><a xlink:href="_a31_l12x__hal__debug__frmwrk_8c.html#ab5682425a8b9f9fd4290e303f3fd500b" target="_top" xlink:title="Get a character to UART port.">
<polygon fill="white" stroke="black" points="160.5,-342.5 160.5,-361.5 238.5,-361.5 238.5,-342.5 160.5,-342.5"/>
<text text-anchor="middle" x="199.5" y="-349.5" font-family="Helvetica,sans-Serif" font-size="10.00">UARTGetChar</text>
</a>
</g>
</g>
<!-- Node2&#45;&gt;Node11 -->
<g id="edge9" class="edge"><title>Node2&#45;&gt;Node11</title>
<path fill="none" stroke="midnightblue" d="M61.6903,-285.605C77.5513,-296.844 105.261,-315.503 131,-328 139.381,-332.069 148.636,-335.812 157.537,-339.071"/>
<polygon fill="midnightblue" stroke="midnightblue" points="156.403,-342.382 166.998,-342.41 158.732,-335.781 156.403,-342.382"/>
</g>
<!-- Node14 -->
<g id="node13" class="node"><title>Node14</title>
<g id="a_node13"><a xlink:href="_a31_l12x__hal__debug__frmwrk_8c.html#a7e7f61fa79d52e2ba38085032eab8f5f" target="_top" xlink:title="Puts a character to UART port.">
<polygon fill="white" stroke="black" points="489,-171.5 489,-190.5 566,-190.5 566,-171.5 489,-171.5"/>
<text text-anchor="middle" x="527.5" y="-178.5" font-family="Helvetica,sans-Serif" font-size="10.00">UARTPutChar</text>
</a>
</g>
</g>
<!-- Node2&#45;&gt;Node14 -->
<g id="edge12" class="edge"><title>Node2&#45;&gt;Node14</title>
<path fill="none" stroke="midnightblue" d="M75.9496,-285.64C140.898,-306.75 307.648,-350.894 429,-295 471.579,-275.388 502.485,-226.994 517.082,-199.989"/>
<polygon fill="midnightblue" stroke="midnightblue" points="520.356,-201.278 521.868,-190.792 514.147,-198.047 520.356,-201.278"/>
</g>
<!-- Node17 -->
<g id="node16" class="node"><title>Node17</title>
<g id="a_node16"><a xlink:href="_a31_l12x__hal__debug__frmwrk_8c.html#af53fccf7d1c29be5d91a42179acda532" target="_top" xlink:title="Puts a decimal number to UART port.">
<polygon fill="white" stroke="black" points="329.5,-266.5 329.5,-285.5 403.5,-285.5 403.5,-266.5 329.5,-266.5"/>
<text text-anchor="middle" x="366.5" y="-273.5" font-family="Helvetica,sans-Serif" font-size="10.00">UARTPutDec</text>
</a>
</g>
</g>
<!-- Node2&#45;&gt;Node17 -->
<g id="edge15" class="edge"><title>Node2&#45;&gt;Node17</title>
<path fill="none" stroke="midnightblue" d="M95.2744,-276C155.388,-276 259.127,-276 319.072,-276"/>
<polygon fill="midnightblue" stroke="midnightblue" points="319.377,-279.5 329.377,-276 319.377,-272.5 319.377,-279.5"/>
</g>
<!-- Node18 -->
<g id="node17" class="node"><title>Node18</title>
<g id="a_node17"><a xlink:href="_a31_l12x__hal__debug__frmwrk_8c.html#a19c2305345c7e4ff9fd9e9d7a414a4fa" target="_top" xlink:title="Puts a decimal number to UART port.">
<polygon fill="white" stroke="black" points="324,-228.5 324,-247.5 409,-247.5 409,-228.5 324,-228.5"/>
<text text-anchor="middle" x="366.5" y="-235.5" font-family="Helvetica,sans-Serif" font-size="10.00">UARTPutDec16</text>
</a>
</g>
</g>
<!-- Node2&#45;&gt;Node18 -->
<g id="edge17" class="edge"><title>Node2&#45;&gt;Node18</title>
<path fill="none" stroke="midnightblue" d="M95.2744,-270.393C153.559,-263.406 252.854,-251.503 313.481,-244.236"/>
<polygon fill="midnightblue" stroke="midnightblue" points="314.087,-247.688 323.599,-243.023 313.254,-240.738 314.087,-247.688"/>
</g>
<!-- Node19 -->
<g id="node18" class="node"><title>Node19</title>
<g id="a_node18"><a xlink:href="_a31_l12x__hal__debug__frmwrk_8c.html#a45d2869a186284d1c1cd512f26c2b323" target="_top" xlink:title="Puts a decimal number to UART port.">
<polygon fill="white" stroke="black" points="324,-190.5 324,-209.5 409,-209.5 409,-190.5 324,-190.5"/>
<text text-anchor="middle" x="366.5" y="-197.5" font-family="Helvetica,sans-Serif" font-size="10.00">UARTPutDec32</text>
</a>
</g>
</g>
<!-- Node2&#45;&gt;Node19 -->
<g id="edge19" class="edge"><title>Node2&#45;&gt;Node19</title>
<path fill="none" stroke="midnightblue" d="M72.7629,-266.461C89.0498,-260.309 111.089,-252.466 131,-247 192.923,-230.001 265.61,-216.388 313.457,-208.274"/>
<polygon fill="midnightblue" stroke="midnightblue" points="314.291,-211.683 323.574,-206.577 313.133,-204.779 314.291,-211.683"/>
</g>
<!-- Node20 -->
<g id="node19" class="node"><title>Node20</title>
<g id="a_node19"><a xlink:href="_a31_l12x__hal__debug__frmwrk_8c.html#ac1245c6492715aa180414d0c36607b59" target="_top" xlink:title="Puts a hex number to UART port.">
<polygon fill="white" stroke="black" points="329.5,-152.5 329.5,-171.5 403.5,-171.5 403.5,-152.5 329.5,-152.5"/>
<text text-anchor="middle" x="366.5" y="-159.5" font-family="Helvetica,sans-Serif" font-size="10.00">UARTPutHex</text>
</a>
</g>
</g>
<!-- Node2&#45;&gt;Node20 -->
<g id="edge21" class="edge"><title>Node2&#45;&gt;Node20</title>
<path fill="none" stroke="midnightblue" d="M58.2501,-266.416C72.8187,-252.658 101.704,-227.483 131,-214 192.584,-185.656 270.52,-172.341 319.204,-166.397"/>
<polygon fill="midnightblue" stroke="midnightblue" points="319.903,-169.839 329.43,-165.205 319.092,-162.887 319.903,-169.839"/>
</g>
<!-- Node21 -->
<g id="node20" class="node"><title>Node21</title>
<g id="a_node20"><a xlink:href="_a31_l12x__hal__debug__frmwrk_8c.html#a59a45f0886f0936bec188751583512d6" target="_top" xlink:title="Puts a hex number to UART port.">
<polygon fill="white" stroke="black" points="157,-114.5 157,-133.5 242,-133.5 242,-114.5 157,-114.5"/>
<text text-anchor="middle" x="199.5" y="-121.5" font-family="Helvetica,sans-Serif" font-size="10.00">UARTPutHex16</text>
</a>
</g>
</g>
<!-- Node2&#45;&gt;Node21 -->
<g id="edge23" class="edge"><title>Node2&#45;&gt;Node21</title>
<path fill="none" stroke="midnightblue" d="M52.096,-266.447C61.437,-242.886 88.7237,-181.49 131,-148 136.306,-143.797 142.406,-140.296 148.723,-137.389"/>
<polygon fill="midnightblue" stroke="midnightblue" points="150.153,-140.586 158.067,-133.543 147.488,-134.113 150.153,-140.586"/>
</g>
<!-- Node22 -->
<g id="node21" class="node"><title>Node22</title>
<g id="a_node21"><a xlink:href="_a31_l12x__hal__debug__frmwrk_8c.html#ad021b25a594b3e9130884c75615aafa2" target="_top" xlink:title="Puts a hex number to UART port.">
<polygon fill="white" stroke="black" points="157,-76.5 157,-95.5 242,-95.5 242,-76.5 157,-76.5"/>
<text text-anchor="middle" x="199.5" y="-83.5" font-family="Helvetica,sans-Serif" font-size="10.00">UARTPutHex32</text>
</a>
</g>
</g>
<!-- Node2&#45;&gt;Node22 -->
<g id="edge25" class="edge"><title>Node2&#45;&gt;Node22</title>
<path fill="none" stroke="midnightblue" d="M50.3113,-266.149C56.2194,-236.878 77.7083,-149.69 131,-105 135.836,-100.944 141.482,-97.7523 147.411,-95.2402"/>
<polygon fill="midnightblue" stroke="midnightblue" points="148.664,-98.5089 156.885,-91.8259 146.291,-91.9235 148.664,-98.5089"/>
</g>
<!-- Node23 -->
<g id="node22" class="node"><title>Node23</title>
<g id="a_node22"><a xlink:href="_a31_l12x__hal__debug__frmwrk_8c.html#afb44a3a4c42d7f28a82882213d38a0b9" target="_top" xlink:title="Puts a string to UART port.">
<polygon fill="white" stroke="black" points="335.5,-38.5 335.5,-57.5 397.5,-57.5 397.5,-38.5 335.5,-38.5"/>
<text text-anchor="middle" x="366.5" y="-45.5" font-family="Helvetica,sans-Serif" font-size="10.00">UARTPuts</text>
</a>
</g>
</g>
<!-- Node2&#45;&gt;Node23 -->
<g id="edge27" class="edge"><title>Node2&#45;&gt;Node23</title>
<path fill="none" stroke="midnightblue" d="M48.9257,-266.436C51.0013,-232.529 62.9934,-117.406 131,-67 187.794,-24.9048 274.979,-31.0444 325.503,-39.4387"/>
<polygon fill="midnightblue" stroke="midnightblue" points="324.944,-42.8941 335.401,-41.1907 326.164,-36.0013 324.944,-42.8941"/>
</g>
<!-- Node24 -->
<g id="node23" class="node"><title>Node24</title>
<g id="a_node23"><a xlink:href="_a31_l12x__hal__debug__frmwrk_8c.html#a4948fa615b0a307158db94b71b37801b" target="_top" xlink:title="Puts a string to UART port and print new line.">
<polygon fill="white" stroke="black" points="165.5,-0.5 165.5,-19.5 233.5,-19.5 233.5,-0.5 165.5,-0.5"/>
<text text-anchor="middle" x="199.5" y="-7.5" font-family="Helvetica,sans-Serif" font-size="10.00">UARTPuts_</text>
</a>
</g>
</g>
<!-- Node2&#45;&gt;Node24 -->
<g id="edge29" class="edge"><title>Node2&#45;&gt;Node24</title>
<path fill="none" stroke="midnightblue" d="M48.9204,-266.139C50.9941,-229.934 63.0242,-102.87 131,-34 137.809,-27.1018 146.727,-22.1794 155.84,-18.6691"/>
<polygon fill="midnightblue" stroke="midnightblue" points="156.952,-21.9879 165.326,-15.4985 154.733,-15.3489 156.952,-21.9879"/>
</g>
<!-- Node7 -->
<g id="node6" class="node"><title>Node7</title>
<g id="a_node6"><a xlink:href="_a31_l12x__hal__scu_8h.html#a7d0a497cdf6bc58ed14a54aed75a04ec" target="_top" xlink:title="Set Each Peripheral Clock.">
<polygon fill="white" stroke="black" points="311.5,-457 311.5,-487 421.5,-487 421.5,-457 311.5,-457"/>
<text text-anchor="start" x="319.5" y="-475" font-family="Helvetica,sans-Serif" font-size="10.00">HAL_SCU_Peripheral</text>
<text text-anchor="middle" x="366.5" y="-464" font-family="Helvetica,sans-Serif" font-size="10.00">_EnableClock2</text>
</a>
</g>
</g>
<!-- Node6&#45;&gt;Node7 -->
<g id="edge5" class="edge"><title>Node6&#45;&gt;Node7</title>
<path fill="none" stroke="midnightblue" d="M236.303,-437.547C255.375,-442.633 279.411,-449.043 301.564,-454.951"/>
<polygon fill="midnightblue" stroke="midnightblue" points="300.689,-458.339 311.253,-457.534 302.493,-451.576 300.689,-458.339"/>
</g>
<!-- Node8 -->
<g id="node7" class="node"><title>Node8</title>
<g id="a_node7"><a xlink:href="_a31_l12x__hal__uartn_8c.html#a070769305cdbb668d2100b3240799c13" target="_top" xlink:title="Determines best dividers to get a target clock rate.">
<polygon fill="white" stroke="black" points="322,-418.5 322,-437.5 411,-437.5 411,-418.5 322,-418.5"/>
<text text-anchor="middle" x="366.5" y="-425.5" font-family="Helvetica,sans-Serif" font-size="10.00">uart_set_divisors</text>
</a>
</g>
</g>
<!-- Node6&#45;&gt;Node8 -->
<g id="edge6" class="edge"><title>Node6&#45;&gt;Node8</title>
<path fill="none" stroke="midnightblue" d="M241.711,-428C262.901,-428 288.989,-428 311.742,-428"/>
<polygon fill="midnightblue" stroke="midnightblue" points="311.932,-431.5 321.932,-428 311.932,-424.5 311.932,-431.5"/>
</g>
<!-- Node10 -->
<g id="node9" class="node"><title>Node10</title>
<g id="a_node9"><a xlink:href="_a31_l12x__hal__uartn_8h.html#aea7d60af1ecdb767452af416422e3446" target="_top" xlink:title="Receive a single data from UART peripheral.">
<polygon fill="white" stroke="black" points="304,-380.5 304,-399.5 429,-399.5 429,-380.5 304,-380.5"/>
<text text-anchor="middle" x="366.5" y="-387.5" font-family="Helvetica,sans-Serif" font-size="10.00">HAL_UART_ReceiveByte</text>
</a>
</g>
</g>
<!-- Node9&#45;&gt;Node10 -->
<g id="edge8" class="edge"><title>Node9&#45;&gt;Node10</title>
<path fill="none" stroke="midnightblue" d="M234.688,-390C251.727,-390 273.01,-390 293.427,-390"/>
<polygon fill="midnightblue" stroke="midnightblue" points="293.677,-393.5 303.677,-390 293.677,-386.5 293.677,-393.5"/>
</g>
<!-- Node12 -->
<g id="node11" class="node"><title>Node12</title>
<g id="a_node11"><a xlink:href="_a31_l12x__hal__uartn_8h.html#acc979b053c6e3a4fd224714df511b4f5" target="_top" xlink:title="Receive a block of data via UART peripheral.">
<polygon fill="white" stroke="black" points="314,-342.5 314,-361.5 419,-361.5 419,-342.5 314,-342.5"/>
<text text-anchor="middle" x="366.5" y="-349.5" font-family="Helvetica,sans-Serif" font-size="10.00">HAL_UART_Receive</text>
</a>
</g>
</g>
<!-- Node11&#45;&gt;Node12 -->
<g id="edge10" class="edge"><title>Node11&#45;&gt;Node12</title>
<path fill="none" stroke="midnightblue" d="M238.769,-352C258.082,-352 281.987,-352 303.813,-352"/>
<polygon fill="midnightblue" stroke="midnightblue" points="304,-355.5 314,-352 304,-348.5 304,-355.5"/>
</g>
<!-- Node13 -->
<g id="node12" class="node"><title>Node13</title>
<g id="a_node12"><a xlink:href="_a31_l12x__hal__uartn_8c.html#aea7d60af1ecdb767452af416422e3446" target="_top" xlink:title="Receive a single data from UART peripheral.">
<polygon fill="white" stroke="black" points="465,-342.5 465,-361.5 590,-361.5 590,-342.5 465,-342.5"/>
<text text-anchor="middle" x="527.5" y="-349.5" font-family="Helvetica,sans-Serif" font-size="10.00">HAL_UART_ReceiveByte</text>
</a>
</g>
</g>
<!-- Node12&#45;&gt;Node13 -->
<g id="edge11" class="edge"><title>Node12&#45;&gt;Node13</title>
<path fill="none" stroke="midnightblue" d="M419.123,-352C430.528,-352 442.81,-352 454.85,-352"/>
<polygon fill="midnightblue" stroke="midnightblue" points="454.882,-355.5 464.882,-352 454.882,-348.5 454.882,-355.5"/>
</g>
<!-- Node15 -->
<g id="node14" class="node"><title>Node15</title>
<g id="a_node14"><a xlink:href="_a31_l12x__hal__uartn_8h.html#ab1488eccbac797387079ab39be51ac38" target="_top" xlink:title="Send a block of data via UART peripheral.">
<polygon fill="white" stroke="black" points="626,-171.5 626,-190.5 735,-190.5 735,-171.5 626,-171.5"/>
<text text-anchor="middle" x="680.5" y="-178.5" font-family="Helvetica,sans-Serif" font-size="10.00">HAL_UART_Transmit</text>
</a>
</g>
</g>
<!-- Node14&#45;&gt;Node15 -->
<g id="edge13" class="edge"><title>Node14&#45;&gt;Node15</title>
<path fill="none" stroke="midnightblue" d="M566.214,-181C581.116,-181 598.664,-181 615.441,-181"/>
<polygon fill="midnightblue" stroke="midnightblue" points="615.756,-184.5 625.756,-181 615.756,-177.5 615.756,-184.5"/>
</g>
<!-- Node16 -->
<g id="node15" class="node"><title>Node16</title>
<g id="a_node15"><a xlink:href="_a31_l12x__hal__uartn_8c.html#aa7dfea0108c5ea92d4bc9f5c79ef9e4d" target="_top" xlink:title="Transmit a single data through UART peripheral.">
<polygon fill="white" stroke="black" points="771,-171.5 771,-190.5 900,-190.5 900,-171.5 771,-171.5"/>
<text text-anchor="middle" x="835.5" y="-178.5" font-family="Helvetica,sans-Serif" font-size="10.00">HAL_UART_TransmitByte</text>
</a>
</g>
</g>
<!-- Node15&#45;&gt;Node16 -->
<g id="edge14" class="edge"><title>Node15&#45;&gt;Node16</title>
<path fill="none" stroke="midnightblue" d="M735.012,-181C743.312,-181 752.009,-181 760.661,-181"/>
<polygon fill="midnightblue" stroke="midnightblue" points="760.771,-184.5 770.771,-181 760.771,-177.5 760.771,-184.5"/>
</g>
<!-- Node17&#45;&gt;Node14 -->
<g id="edge16" class="edge"><title>Node17&#45;&gt;Node14</title>
<path fill="none" stroke="midnightblue" d="M403.82,-267.168C412.32,-264.456 421.173,-261.084 429,-257 459.996,-240.829 491.022,-214.466 509.491,-197.429"/>
<polygon fill="midnightblue" stroke="midnightblue" points="511.931,-199.939 516.824,-190.541 507.139,-194.836 511.931,-199.939"/>
</g>
<!-- Node18&#45;&gt;Node14 -->
<g id="edge18" class="edge"><title>Node18&#45;&gt;Node14</title>
<path fill="none" stroke="midnightblue" d="M399.88,-228.475C409.315,-225.57 419.609,-222.276 429,-219 450.911,-211.357 475.23,-201.88 494.1,-194.303"/>
<polygon fill="midnightblue" stroke="midnightblue" points="495.468,-197.525 503.429,-190.533 492.846,-191.035 495.468,-197.525"/>
</g>
<!-- Node19&#45;&gt;Node14 -->
<g id="edge20" class="edge"><title>Node19&#45;&gt;Node14</title>
<path fill="none" stroke="midnightblue" d="M409.275,-195.008C430.563,-192.464 456.548,-189.359 478.638,-186.719"/>
<polygon fill="midnightblue" stroke="midnightblue" points="479.293,-190.166 488.807,-185.504 478.462,-183.216 479.293,-190.166"/>
</g>
<!-- Node20&#45;&gt;Node14 -->
<g id="edge22" class="edge"><title>Node20&#45;&gt;Node14</title>
<path fill="none" stroke="midnightblue" d="M403.58,-166.311C425.867,-168.975 454.723,-172.423 478.874,-175.309"/>
<polygon fill="midnightblue" stroke="midnightblue" points="478.56,-178.796 488.904,-176.507 479.39,-171.846 478.56,-178.796"/>
</g>
<!-- Node21&#45;&gt;Node14 -->
<g id="edge24" class="edge"><title>Node21&#45;&gt;Node14</title>
<path fill="none" stroke="midnightblue" d="M242.334,-123.885C288.582,-124.584 365.008,-128.199 429,-143 452.815,-148.508 478.529,-158.723 497.568,-167.176"/>
<polygon fill="midnightblue" stroke="midnightblue" points="496.317,-170.452 506.87,-171.401 499.212,-164.079 496.317,-170.452"/>
</g>
<!-- Node22&#45;&gt;Node14 -->
<g id="edge26" class="edge"><title>Node22&#45;&gt;Node14</title>
<path fill="none" stroke="midnightblue" d="M242.12,-88.0549C288.838,-91.4211 366.302,-100.214 429,-123 457.445,-133.338 486.871,-152.162 505.852,-165.561"/>
<polygon fill="midnightblue" stroke="midnightblue" points="503.88,-168.454 514.038,-171.463 507.973,-162.776 503.88,-168.454"/>
</g>
<!-- Node23&#45;&gt;Node14 -->
<g id="edge28" class="edge"><title>Node23&#45;&gt;Node14</title>
<path fill="none" stroke="midnightblue" d="M397.688,-56.5965C408.139,-60.3754 419.583,-65.4667 429,-72 465.648,-97.426 497.913,-139.287 514.552,-163.052"/>
<polygon fill="midnightblue" stroke="midnightblue" points="511.786,-165.208 520.326,-171.479 517.561,-161.251 511.786,-165.208"/>
</g>
<!-- Node24&#45;&gt;Node23 -->
<g id="edge30" class="edge"><title>Node24&#45;&gt;Node23</title>
<path fill="none" stroke="midnightblue" d="M233.89,-17.6899C260.392,-23.7934 297.525,-32.3451 325.594,-38.8094"/>
<polygon fill="midnightblue" stroke="midnightblue" points="324.958,-42.2545 335.488,-41.0882 326.529,-35.4331 324.958,-42.2545"/>
</g>
</g>
</svg>
        <g id="navigator" transform="translate(0 0)" fill="#404254">
                <rect fill="#f2f5e9" fill-opacity="0.5" stroke="#606060" stroke-width=".5" x="0" y="0" width="60" height="60"/>
                <use id="zoomplus" xlink:href="#zoomPlus" x="17" y="9" onmousedown="handleZoom(evt,'in')"/>
                <use id="zoomminus" xlink:href="#zoomMin" x="42" y="9" onmousedown="handleZoom(evt,'out')"/>
                <use id="reset" xlink:href="#resetDef" x="30" y="36" onmousedown="handleReset()"/>
                <g id="arrowUp" xlink:href="#dirArrow" transform="translate(30 24)" onmousedown="handlePan(0,-1)">
                  <use xlink:href="#rim" fill="#404040">
                        <set attributeName="fill" to="#808080" begin="arrowUp.mouseover" end="arrowUp.mouseout"/>
                  </use>
                  <path fill="none" stroke="white" stroke-width="1.5" d="M0,-3.0v7 M-2.5,-0.5L0,-3.0L2.5,-0.5"/>
                </g>
                <g id="arrowRight" xlink:href="#dirArrow" transform="rotate(90) translate(36 -43)" onmousedown="handlePan(1,0)">
                  <use xlink:href="#rim" fill="#404040">
                        <set attributeName="fill" to="#808080" begin="arrowRight.mouseover" end="arrowRight.mouseout"/>
                  </use>
                  <path fill="none" stroke="white" stroke-width="1.5" d="M0,-3.0v7 M-2.5,-0.5L0,-3.0L2.5,-0.5"/>
                </g>
                <g id="arrowDown" xlink:href="#dirArrow" transform="rotate(180) translate(-30 -48)" onmousedown="handlePan(0,1)">
                  <use xlink:href="#rim" fill="#404040">
                        <set attributeName="fill" to="#808080" begin="arrowDown.mouseover" end="arrowDown.mouseout"/>
                  </use>
                  <path fill="none" stroke="white" stroke-width="1.5" d="M0,-3.0v7 M-2.5,-0.5L0,-3.0L2.5,-0.5"/>
                </g>
                <g id="arrowLeft" xlink:href="#dirArrow" transform="rotate(270) translate(-36 17)" onmousedown="handlePan(-1,0)">
                  <use xlink:href="#rim" fill="#404040">
                        <set attributeName="fill" to="#808080" begin="arrowLeft.mouseover" end="arrowLeft.mouseout"/>
                  </use>
                  <path fill="none" stroke="white" stroke-width="1.5" d="M0,-3.0v7 M-2.5,-0.5L0,-3.0L2.5,-0.5"/>
                </g>
        </g>
        <svg viewBox="0 0 15 15" width="100%" height="30px" preserveAspectRatio="xMaxYMin meet">
         <g id="arrow_out" transform="scale(0.3 0.3)">
          <a xlink:href="_a31_l12x__hal__debug__frmwrk_8c_aa79ebfdcc65f8acaa847e9deaecea5a0_cgraph_org.svg" target="_base">
           <rect id="button" ry="5" rx="5" y="6" x="6" height="38" width="38"
                fill="#f2f5e9" fill-opacity="0.5" stroke="#606060" stroke-width="1.0"/>
           <path id="arrow"
             d="M 11.500037,31.436501 C 11.940474,20.09759 22.043105,11.32322 32.158766,21.979434 L 37.068811,17.246167 C 37.068811,17.246167 37.088388,32 37.088388,32 L 22.160133,31.978069 C 22.160133,31.978069 26.997745,27.140456 26.997745,27.140456 C 18.528582,18.264221 13.291696,25.230495 11.500037,31.436501 z"
             style="fill:#404040;"/>
          </a>
         </g>
        </svg>
</svg>
