<?xml version="1.0" encoding="UTF-8" standalone="no"?>
<!DOCTYPE svg PUBLIC "-//W3C//DTD SVG 1.1//EN"
 "http://www.w3.org/Graphics/SVG/1.1/DTD/svg11.dtd">
<!-- Generated by graphviz version 2.38.0 (20140413.2041)
 -->
<!-- Title: HAL_SC_Transmit Pages: 1 -->
<svg width="258pt" height="66pt"
 viewBox="0.00 0.00 258.00 66.00" xmlns="http://www.w3.org/2000/svg" xmlns:xlink="http://www.w3.org/1999/xlink">
<g id="graph0" class="graph" transform="scale(1 1) rotate(0) translate(4 62)">
<title>HAL_SC_Transmit</title>
<polygon fill="white" stroke="none" points="-4,4 -4,-62 254,-62 254,4 -4,4"/>
<!-- Node66 -->
<g id="node1" class="node"><title>Node66</title>
<g id="a_node1"><a xlink:title="Send a block of data via SCn peripheral.">
<polygon fill="#bfbfbf" stroke="black" points="0,-19.5 0,-38.5 97,-38.5 97,-19.5 0,-19.5"/>
<text text-anchor="middle" x="48.5" y="-26.5" font-family="Helvetica,sans-Serif" font-size="10.00">HAL_SC_Transmit</text>
</a>
</g>
</g>
<!-- Node67 -->
<g id="node2" class="node"><title>Node67</title>
<g id="a_node2"><a xlink:href="_a31_l12x__hal__scn_8c.html#a0a36dac419fb8692131bae3b7e55868a" target="_top" xlink:title="Clear Status register in SCn peripheral.">
<polygon fill="white" stroke="black" points="136.5,-38.5 136.5,-57.5 246.5,-57.5 246.5,-38.5 136.5,-38.5"/>
<text text-anchor="middle" x="191.5" y="-45.5" font-family="Helvetica,sans-Serif" font-size="10.00">HAL_SC_ClearStatus</text>
</a>
</g>
</g>
<!-- Node66&#45;&gt;Node67 -->
<g id="edge1" class="edge"><title>Node66&#45;&gt;Node67</title>
<path fill="none" stroke="midnightblue" d="M97.2362,-35.4325C106.486,-36.679 116.322,-38.0044 126.006,-39.3093"/>
<polygon fill="midnightblue" stroke="midnightblue" points="125.633,-42.7906 136.011,-40.6575 126.568,-35.8533 125.633,-42.7906"/>
</g>
<!-- Node68 -->
<g id="node3" class="node"><title>Node68</title>
<g id="a_node3"><a xlink:href="_a31_l12x__hal__scn_8c.html#a3c3d371b14a2fa00815bd43de8a7fbe1" target="_top" xlink:title="Transmit a single data through SCn peripheral.">
<polygon fill="white" stroke="black" points="133,-0.5 133,-19.5 250,-19.5 250,-0.5 133,-0.5"/>
<text text-anchor="middle" x="191.5" y="-7.5" font-family="Helvetica,sans-Serif" font-size="10.00">HAL_SC_TransmitByte</text>
</a>
</g>
</g>
<!-- Node66&#45;&gt;Node68 -->
<g id="edge2" class="edge"><title>Node66&#45;&gt;Node68</title>
<path fill="none" stroke="midnightblue" d="M97.2362,-22.5675C105.39,-21.4687 113.999,-20.3086 122.558,-19.1553"/>
<polygon fill="midnightblue" stroke="midnightblue" points="123.109,-22.6127 132.552,-17.8086 122.174,-15.6754 123.109,-22.6127"/>
</g>
</g>
</svg>
