<?xml version="1.0" encoding="UTF-8" standalone="no"?>
<!DOCTYPE svg PUBLIC "-//W3C//DTD SVG 1.1//EN"
 "http://www.w3.org/Graphics/SVG/1.1/DTD/svg11.dtd">
<!-- Generated by graphviz version 2.38.0 (20140413.2041)
 -->
<!-- Title: HAL_USART_ClearStatus Pages: 1 -->
<svg width="289pt" height="66pt"
 viewBox="0.00 0.00 289.00 66.00" xmlns="http://www.w3.org/2000/svg" xmlns:xlink="http://www.w3.org/1999/xlink">
<g id="graph0" class="graph" transform="scale(1 1) rotate(0) translate(4 62)">
<title>HAL_USART_ClearStatus</title>
<polygon fill="white" stroke="none" points="-4,4 -4,-62 285,-62 285,4 -4,4"/>
<!-- Node3 -->
<g id="node1" class="node"><title>Node3</title>
<g id="a_node1"><a xlink:title="Clear Status register in USART peripheral.">
<polygon fill="#bfbfbf" stroke="black" points="152,-19.5 152,-38.5 281,-38.5 281,-19.5 152,-19.5"/>
<text text-anchor="middle" x="216.5" y="-26.5" font-family="Helvetica,sans-Serif" font-size="10.00">HAL_USART_ClearStatus</text>
</a>
</g>
</g>
<!-- Node4 -->
<g id="node2" class="node"><title>Node4</title>
<g id="a_node2"><a xlink:href="_a31_l12x__hal__usart1n_8c.html#a2095d581460704baf96d9ba7f552db19" target="_top" xlink:title="Initialize the USART1n peripheral with the specified parameters.">
<polygon fill="white" stroke="black" points="12.5,-38.5 12.5,-57.5 103.5,-57.5 103.5,-38.5 12.5,-38.5"/>
<text text-anchor="middle" x="58" y="-45.5" font-family="Helvetica,sans-Serif" font-size="10.00">HAL_USART_Init</text>
</a>
</g>
</g>
<!-- Node3&#45;&gt;Node4 -->
<g id="edge1" class="edge"><title>Node3&#45;&gt;Node4</title>
<path fill="none" stroke="midnightblue" d="M141.584,-37.9739C128.713,-39.5365 115.685,-41.1181 103.899,-42.549"/>
<polygon fill="midnightblue" stroke="midnightblue" points="142.34,-41.4078 151.845,-36.728 141.496,-34.4588 142.34,-41.4078"/>
</g>
<!-- Node5 -->
<g id="node3" class="node"><title>Node5</title>
<g id="a_node3"><a xlink:href="_a31_l12x__hal__usart1n_8c.html#ace14a8928f7d2c44dea80b03da70a4b5" target="_top" xlink:title="Send a block of data via USART peripheral.">
<polygon fill="white" stroke="black" points="0,-0.5 0,-19.5 116,-19.5 116,-0.5 0,-0.5"/>
<text text-anchor="middle" x="58" y="-7.5" font-family="Helvetica,sans-Serif" font-size="10.00">HAL_USART_Transmit</text>
</a>
</g>
</g>
<!-- Node3&#45;&gt;Node5 -->
<g id="edge2" class="edge"><title>Node3&#45;&gt;Node5</title>
<path fill="none" stroke="midnightblue" d="M141.765,-20.0481C133.127,-18.9994 124.416,-17.9418 116.054,-16.9266"/>
<polygon fill="midnightblue" stroke="midnightblue" points="141.496,-23.5412 151.845,-21.272 142.34,-16.5922 141.496,-23.5412"/>
</g>
</g>
</svg>
