<?xml version="1.0" encoding="UTF-8" standalone="no"?>
<!DOCTYPE svg PUBLIC "-//W3C//DTD SVG 1.1//EN"
 "http://www.w3.org/Graphics/SVG/1.1/DTD/svg11.dtd">
<!-- Generated by graphviz version 2.38.0 (20140413.2041)
 -->
<!-- Title: HAL_UART_Receive Pages: 1 -->
<svg width="358pt" height="66pt"
 viewBox="0.00 0.00 358.00 66.00" xmlns="http://www.w3.org/2000/svg" xmlns:xlink="http://www.w3.org/1999/xlink">
<g id="graph0" class="graph" transform="scale(1 1) rotate(0) translate(4 62)">
<title>HAL_UART_Receive</title>
<polygon fill="white" stroke="none" points="-4,4 -4,-62 354,-62 354,4 -4,4"/>
<!-- Node27 -->
<g id="node1" class="node"><title>Node27</title>
<g id="a_node1"><a xlink:title="Receive a block of data via UART peripheral.">
<polygon fill="#bfbfbf" stroke="black" points="245,-19.5 245,-38.5 350,-38.5 350,-19.5 245,-19.5"/>
<text text-anchor="middle" x="297.5" y="-26.5" font-family="Helvetica,sans-Serif" font-size="10.00">HAL_UART_Receive</text>
</a>
</g>
</g>
<!-- Node28 -->
<g id="node2" class="node"><title>Node28</title>
<g id="a_node2"><a xlink:href="_a31_l12x__hal__debug__frmwrk_8c.html#ab5682425a8b9f9fd4290e303f3fd500b" target="_top" xlink:title="Get a character to UART port.">
<polygon fill="white" stroke="black" points="131,-19.5 131,-38.5 209,-38.5 209,-19.5 131,-19.5"/>
<text text-anchor="middle" x="170" y="-26.5" font-family="Helvetica,sans-Serif" font-size="10.00">UARTGetChar</text>
</a>
</g>
</g>
<!-- Node27&#45;&gt;Node28 -->
<g id="edge1" class="edge"><title>Node27&#45;&gt;Node28</title>
<path fill="none" stroke="midnightblue" d="M234.614,-29C225.954,-29 217.273,-29 209.229,-29"/>
<polygon fill="midnightblue" stroke="midnightblue" points="234.73,-32.5001 244.73,-29 234.73,-25.5001 234.73,-32.5001"/>
</g>
<!-- Node29 -->
<g id="node3" class="node"><title>Node29</title>
<g id="a_node3"><a xlink:href="_a31_l12x__hal__debug__frmwrk_8c.html#aa79ebfdcc65f8acaa847e9deaecea5a0" target="_top" xlink:title="Initializes Debug Framework through initializing UARTn.">
<polygon fill="white" stroke="black" points="0,-38.5 0,-57.5 95,-57.5 95,-38.5 0,-38.5"/>
<text text-anchor="middle" x="47.5" y="-45.5" font-family="Helvetica,sans-Serif" font-size="10.00">debug_frmwrk_init</text>
</a>
</g>
</g>
<!-- Node28&#45;&gt;Node29 -->
<g id="edge2" class="edge"><title>Node28&#45;&gt;Node29</title>
<path fill="none" stroke="midnightblue" d="M120.811,-36.5983C112.39,-37.926 103.642,-39.3054 95.2609,-40.6269"/>
<polygon fill="midnightblue" stroke="midnightblue" points="121.54,-40.0266 130.873,-35.0117 120.45,-33.112 121.54,-40.0266"/>
</g>
<!-- Node30 -->
<g id="node4" class="node"><title>Node30</title>
<g id="a_node4"><a xlink:href="_a31_l12x__hal__debug__frmwrk_8c.html#a715f28fa289a7cef9f522fab87a552f6" target="_top" xlink:title="Get a character to UART port.">
<polygon fill="white" stroke="black" points="20.5,-0.5 20.5,-19.5 74.5,-19.5 74.5,-0.5 20.5,-0.5"/>
<text text-anchor="middle" x="47.5" y="-7.5" font-family="Helvetica,sans-Serif" font-size="10.00">getstring</text>
</a>
</g>
</g>
<!-- Node28&#45;&gt;Node30 -->
<g id="edge3" class="edge"><title>Node28&#45;&gt;Node30</title>
<path fill="none" stroke="midnightblue" d="M120.726,-21.3884C104.963,-18.9029 88.0606,-16.2378 74.5725,-14.111"/>
<polygon fill="midnightblue" stroke="midnightblue" points="120.45,-24.888 130.873,-22.9883 121.54,-17.9734 120.45,-24.888"/>
</g>
</g>
</svg>
