<?xml version="1.0" encoding="UTF-8" standalone="no"?>
<!DOCTYPE svg PUBLIC "-//W3C//DTD SVG 1.1//EN"
 "http://www.w3.org/Graphics/SVG/1.1/DTD/svg11.dtd">
<!-- Generated by graphviz version 2.38.0 (20140413.2041)
 -->
<!-- Title: HAL_LPUART_Init Pages: 1 -->
<svg width="277pt" height="165pt"
 viewBox="0.00 0.00 277.00 165.00" xmlns="http://www.w3.org/2000/svg" xmlns:xlink="http://www.w3.org/1999/xlink">
<g id="graph0" class="graph" transform="scale(1 1) rotate(0) translate(4 161)">
<title>HAL_LPUART_Init</title>
<polygon fill="white" stroke="none" points="-4,4 -4,-161 273,-161 273,4 -4,4"/>
<!-- Node17 -->
<g id="node1" class="node"><title>Node17</title>
<g id="a_node1"><a xlink:title="Initialize the LPUART peripheral with the specified parameters.">
<polygon fill="#bfbfbf" stroke="black" points="0,-68.5 0,-87.5 96,-87.5 96,-68.5 0,-68.5"/>
<text text-anchor="middle" x="48" y="-75.5" font-family="Helvetica,sans-Serif" font-size="10.00">HAL_LPUART_Init</text>
</a>
</g>
</g>
<!-- Node18 -->
<g id="node2" class="node"><title>Node18</title>
<g id="a_node2"><a xlink:href="_a31_l12x__hal__lpuart_8c.html#aa36c3b5f7446779e7563d5ad607ff849" target="_top" xlink:title="Receive a single data from USART peripheral.">
<polygon fill="white" stroke="black" points="132,-137.5 132,-156.5 269,-156.5 269,-137.5 132,-137.5"/>
<text text-anchor="middle" x="200.5" y="-144.5" font-family="Helvetica,sans-Serif" font-size="10.00">HAL_LPUART_ReceiveByte</text>
</a>
</g>
</g>
<!-- Node17&#45;&gt;Node18 -->
<g id="edge1" class="edge"><title>Node17&#45;&gt;Node18</title>
<path fill="none" stroke="midnightblue" d="M62.4851,-87.685C78.4221,-98.7524 106.061,-116.779 132,-128 137.44,-130.353 143.252,-132.499 149.099,-134.43"/>
<polygon fill="midnightblue" stroke="midnightblue" points="148.322,-137.854 158.91,-137.478 150.398,-131.169 148.322,-137.854"/>
</g>
<!-- Node19 -->
<g id="node3" class="node"><title>Node19</title>
<g id="a_node3"><a xlink:href="_a31_l12x__hal__scu_8h.html#a7d0a497cdf6bc58ed14a54aed75a04ec" target="_top" xlink:title="Set Each Peripheral Clock.">
<polygon fill="white" stroke="black" points="145.5,-88 145.5,-118 255.5,-118 255.5,-88 145.5,-88"/>
<text text-anchor="start" x="153.5" y="-106" font-family="Helvetica,sans-Serif" font-size="10.00">HAL_SCU_Peripheral</text>
<text text-anchor="middle" x="200.5" y="-95" font-family="Helvetica,sans-Serif" font-size="10.00">_EnableClock2</text>
</a>
</g>
</g>
<!-- Node17&#45;&gt;Node19 -->
<g id="edge2" class="edge"><title>Node17&#45;&gt;Node19</title>
<path fill="none" stroke="midnightblue" d="M96.2062,-85.8416C108.64,-87.907 122.266,-90.1704 135.425,-92.3563"/>
<polygon fill="midnightblue" stroke="midnightblue" points="134.931,-95.8222 145.37,-94.0082 136.078,-88.9168 134.931,-95.8222"/>
</g>
<!-- Node20 -->
<g id="node4" class="node"><title>Node20</title>
<g id="a_node4"><a xlink:href="_a31_l12x__hal__scu_8h.html#a86f85811c7a32616b6f21328fa2d868f" target="_top" xlink:title="Set/Reset Each Peripheral Block Reset of PPRST2 Register.">
<polygon fill="white" stroke="black" points="145.5,-39 145.5,-69 255.5,-69 255.5,-39 145.5,-39"/>
<text text-anchor="start" x="153.5" y="-57" font-family="Helvetica,sans-Serif" font-size="10.00">HAL_SCU_Peripheral</text>
<text text-anchor="middle" x="200.5" y="-46" font-family="Helvetica,sans-Serif" font-size="10.00">_SetReset2</text>
</a>
</g>
</g>
<!-- Node17&#45;&gt;Node20 -->
<g id="edge3" class="edge"><title>Node17&#45;&gt;Node20</title>
<path fill="none" stroke="midnightblue" d="M96.2062,-70.4721C108.64,-68.4893 122.266,-66.3165 135.425,-64.218"/>
<polygon fill="midnightblue" stroke="midnightblue" points="136.046,-67.6633 145.37,-62.6321 134.943,-60.7506 136.046,-67.6633"/>
</g>
<!-- Node21 -->
<g id="node5" class="node"><title>Node21</title>
<g id="a_node5"><a xlink:href="_a31_l12x__hal__lpuart_8c.html#a196ce1938b953f1e21683d8e59cde8fd" target="_top" xlink:title="Determines best dividers to get a target clock rate.">
<polygon fill="white" stroke="black" points="152,-0.5 152,-19.5 249,-19.5 249,-0.5 152,-0.5"/>
<text text-anchor="middle" x="200.5" y="-7.5" font-family="Helvetica,sans-Serif" font-size="10.00">lpuart_set_divisors</text>
</a>
</g>
</g>
<!-- Node17&#45;&gt;Node21 -->
<g id="edge4" class="edge"><title>Node17&#45;&gt;Node21</title>
<path fill="none" stroke="midnightblue" d="M63.1504,-68.4217C79.2529,-57.8592 106.616,-40.9177 132,-30 138.261,-27.307 144.998,-24.8382 151.705,-22.6237"/>
<polygon fill="midnightblue" stroke="midnightblue" points="152.96,-25.8984 161.453,-19.5648 150.864,-19.2195 152.96,-25.8984"/>
</g>
</g>
</svg>
