<?xml version="1.0" encoding="UTF-8" standalone="no"?>
<!DOCTYPE svg PUBLIC "-//W3C//DTD SVG 1.1//EN"
 "http://www.w3.org/Graphics/SVG/1.1/DTD/svg11.dtd">
<!-- Generated by graphviz version 2.38.0 (20140413.2041)
 -->
<!-- Title: HAL_I2C_SlaveReceive_DMA Pages: 1 -->
<svg width="489pt" height="66pt"
 viewBox="0.00 0.00 489.00 66.00" xmlns="http://www.w3.org/2000/svg" xmlns:xlink="http://www.w3.org/1999/xlink">
<g id="graph0" class="graph" transform="scale(1 1) rotate(0) translate(4 62)">
<title>HAL_I2C_SlaveReceive_DMA</title>
<polygon fill="white" stroke="none" points="-4,4 -4,-62 485,-62 485,4 -4,4"/>
<!-- Node67 -->
<g id="node1" class="node"><title>Node67</title>
<g id="a_node1"><a xlink:title="Receive an array of bytes in Slave mode by DMA.">
<polygon fill="#bfbfbf" stroke="black" points="0,-19.5 0,-38.5 144,-38.5 144,-19.5 0,-19.5"/>
<text text-anchor="middle" x="72" y="-26.5" font-family="Helvetica,sans-Serif" font-size="10.00">HAL_I2C_SlaveReceive_DMA</text>
</a>
</g>
</g>
<!-- Node68 -->
<g id="node2" class="node"><title>Node68</title>
<g id="a_node2"><a xlink:href="_a31_l12x__hal__i2cn_8c.html#a93b983df75e1ac7e2870e55b918d9f30" target="_top" xlink:title="Receive and Transmit data in slave mode by DMA.">
<polygon fill="white" stroke="black" points="180,-19.5 180,-38.5 345,-38.5 345,-19.5 180,-19.5"/>
<text text-anchor="middle" x="262.5" y="-26.5" font-family="Helvetica,sans-Serif" font-size="10.00">HAL_I2C_SlaveTransferData_DMA</text>
</a>
</g>
</g>
<!-- Node67&#45;&gt;Node68 -->
<g id="edge1" class="edge"><title>Node67&#45;&gt;Node68</title>
<path fill="none" stroke="midnightblue" d="M144.264,-29C152.582,-29 161.154,-29 169.699,-29"/>
<polygon fill="midnightblue" stroke="midnightblue" points="169.701,-32.5001 179.701,-29 169.701,-25.5001 169.701,-32.5001"/>
</g>
<!-- Node69 -->
<g id="node3" class="node"><title>Node69</title>
<g id="a_node3"><a xlink:href="_a31_l12x__hal__i2cn_8c.html#a15e9a4755791cd7daaeb8025b47d4076" target="_top" xlink:title="wait and return status in slave mode">
<polygon fill="white" stroke="black" points="397,-38.5 397,-57.5 465,-57.5 465,-38.5 397,-38.5"/>
<text text-anchor="middle" x="431" y="-45.5" font-family="Helvetica,sans-Serif" font-size="10.00">I2Cn_SWait</text>
</a>
</g>
</g>
<!-- Node68&#45;&gt;Node69 -->
<g id="edge2" class="edge"><title>Node68&#45;&gt;Node69</title>
<path fill="none" stroke="midnightblue" d="M345.287,-38.333C359.55,-39.9607 373.871,-41.5949 386.574,-43.0444"/>
<polygon fill="midnightblue" stroke="midnightblue" points="386.494,-46.558 396.826,-44.2144 387.288,-39.6031 386.494,-46.558"/>
</g>
<!-- Node70 -->
<g id="node4" class="node"><title>Node70</title>
<g id="a_node4"><a xlink:href="_a31_l12x__hal__dmacn_8h.html#aed27eb8ff1494f44b94c8ed749f6a010" target="_top" xlink:title="Enable the transfer.">
<polygon fill="white" stroke="black" points="381,-0.5 381,-19.5 481,-19.5 481,-0.5 381,-0.5"/>
<text text-anchor="middle" x="431" y="-7.5" font-family="Helvetica,sans-Serif" font-size="10.00">HAL_DMAC_Setup</text>
</a>
</g>
</g>
<!-- Node68&#45;&gt;Node70 -->
<g id="edge3" class="edge"><title>Node68&#45;&gt;Node70</title>
<path fill="none" stroke="midnightblue" d="M345.287,-19.667C353.94,-18.6795 362.614,-17.6897 370.935,-16.7401"/>
<polygon fill="midnightblue" stroke="midnightblue" points="371.347,-20.216 380.885,-15.6047 370.553,-13.2611 371.347,-20.216"/>
</g>
</g>
</svg>
