<?xml version="1.0" encoding="UTF-8" standalone="no"?>
<!DOCTYPE svg PUBLIC "-//W3C//DTD SVG 1.1//EN"
 "http://www.w3.org/Graphics/SVG/1.1/DTD/svg11.dtd">
<!-- Generated by graphviz version 2.38.0 (20140413.2041)
 -->
<!-- Title: HAL_UART_ReceiveByte Pages: 1 -->
<!--zoomable 66 -->
<svg id="main" version="1.1" xmlns="http://www.w3.org/2000/svg" xmlns:xlink="http://www.w3.org/1999/xlink" xml:space="preserve" onload="init(evt)">
<style type="text/css"><![CDATA[
.edge:hover path { stroke: red; }
.edge:hover polygon { stroke: red; fill: red; }
]]></style>
<script type="text/javascript"><![CDATA[
var edges = document.getElementsByTagName('g');
if (edges && edges.length) {
  for (var i=0;i<edges.length;i++) {
    if (edges[i].id.substr(0,4)=='edge') {
      edges[i].setAttribute('class','edge');
    }
  }
}
]]></script>
        <defs>
                <circle id="rim" cx="0" cy="0" r="7"/>
                <circle id="rim2" cx="0" cy="0" r="3.5"/>
                <g id="zoomPlus">
                        <use xlink:href="#rim" fill="#404040">
                                <set attributeName="fill" to="#808080" begin="zoomplus.mouseover" end="zoomplus.mouseout"/>
                        </use>
                        <path d="M-4,0h8M0,-4v8" fill="none" stroke="white" stroke-width="1.5" pointer-events="none"/>
                </g>
                <g id="zoomMin">
                        <use xlink:href="#rim" fill="#404040">
                                <set attributeName="fill" to="#808080" begin="zoomminus.mouseover" end="zoomminus.mouseout"/>
                        </use>
                        <path d="M-4,0h8" fill="none" stroke="white" stroke-width="1.5" pointer-events="none"/>
                </g>
                <g id="dirArrow">
                        <path fill="none" stroke="white" stroke-width="1.5" d="M0,-3.0v7 M-2.5,-0.5L0,-3.0L2.5,-0.5"/>
                </g>
               <g id="resetDef">
                       <use xlink:href="#rim2" fill="#404040">
                               <set attributeName="fill" to="#808080" begin="reset.mouseover" end="reset.mouseout"/>
                       </use>
               </g>
        </defs>

<script type="text/javascript">
var viewWidth = 519;
var viewHeight = 66;
var sectionId = 'dynsection-7';
</script>
<script xlink:href="svgpan.js"/>
<svg id="graph" class="graph">
<g id="viewport">
<title>HAL_UART_ReceiveByte</title>
<polygon fill="white" stroke="none" points="-4,4 -4,-62 515,-62 515,4 -4,4"/>
<!-- Node32 -->
<g id="node1" class="node"><title>Node32</title>
<g id="a_node1"><a xlink:title="Receive a single data from UART peripheral.">
<polygon fill="#bfbfbf" stroke="black" points="386,-19.5 386,-38.5 511,-38.5 511,-19.5 386,-19.5"/>
<text text-anchor="middle" x="448.5" y="-26.5" font-family="Helvetica,sans-Serif" font-size="10.00">HAL_UART_ReceiveByte</text>
</a>
</g>
</g>
<!-- Node33 -->
<g id="node2" class="node"><title>Node33</title>
<g id="a_node2"><a xlink:href="_a31_l12x__hal__uartn_8c.html#acc979b053c6e3a4fd224714df511b4f5" target="_top" xlink:title="Receive a block of data via UART peripheral.">
<polygon fill="white" stroke="black" points="245,-38.5 245,-57.5 350,-57.5 350,-38.5 245,-38.5"/>
<text text-anchor="middle" x="297.5" y="-45.5" font-family="Helvetica,sans-Serif" font-size="10.00">HAL_UART_Receive</text>
</a>
</g>
</g>
<!-- Node32&#45;&gt;Node33 -->
<g id="edge1" class="edge"><title>Node32&#45;&gt;Node33</title>
<path fill="none" stroke="midnightblue" d="M375.544,-38.1755C366.933,-39.2736 358.276,-40.3775 350.035,-41.4284"/>
<polygon fill="midnightblue" stroke="midnightblue" points="376.128,-41.6295 385.605,-36.8926 375.243,-34.6858 376.128,-41.6295"/>
</g>
<!-- Node37 -->
<g id="node6" class="node"><title>Node37</title>
<g id="a_node6"><a xlink:href="_a31_l12x__hal__debug__frmwrk_8c.html#a6022e022519aa6bd27a43165ae705674" target="_top" xlink:title="Get a character to UART port.">
<polygon fill="white" stroke="black" points="135,-0.5 135,-19.5 205,-19.5 205,-0.5 135,-0.5"/>
<text text-anchor="middle" x="170" y="-7.5" font-family="Helvetica,sans-Serif" font-size="10.00">UARTGetCh</text>
</a>
</g>
</g>
<!-- Node32&#45;&gt;Node37 -->
<g id="edge5" class="edge"><title>Node32&#45;&gt;Node37</title>
<path fill="none" stroke="midnightblue" d="M375.763,-24.0705C320.84,-20.2964 247.531,-15.2589 205.172,-12.3482"/>
<polygon fill="midnightblue" stroke="midnightblue" points="375.576,-27.5658 385.792,-24.7597 376.056,-20.5823 375.576,-27.5658"/>
</g>
<!-- Node34 -->
<g id="node3" class="node"><title>Node34</title>
<g id="a_node3"><a xlink:href="_a31_l12x__hal__debug__frmwrk_8c.html#ab5682425a8b9f9fd4290e303f3fd500b" target="_top" xlink:title="Get a character to UART port.">
<polygon fill="white" stroke="black" points="131,-38.5 131,-57.5 209,-57.5 209,-38.5 131,-38.5"/>
<text text-anchor="middle" x="170" y="-45.5" font-family="Helvetica,sans-Serif" font-size="10.00">UARTGetChar</text>
</a>
</g>
</g>
<!-- Node33&#45;&gt;Node34 -->
<g id="edge2" class="edge"><title>Node33&#45;&gt;Node34</title>
<path fill="none" stroke="midnightblue" d="M234.614,-48C225.954,-48 217.273,-48 209.229,-48"/>
<polygon fill="midnightblue" stroke="midnightblue" points="234.73,-51.5001 244.73,-48 234.73,-44.5001 234.73,-51.5001"/>
</g>
<!-- Node35 -->
<g id="node4" class="node"><title>Node35</title>
<g id="a_node4"><a xlink:href="_a31_l12x__hal__debug__frmwrk_8c.html#aa79ebfdcc65f8acaa847e9deaecea5a0" target="_top" xlink:title="Initializes Debug Framework through initializing UARTn.">
<polygon fill="white" stroke="black" points="0,-0.5 0,-19.5 95,-19.5 95,-0.5 0,-0.5"/>
<text text-anchor="middle" x="47.5" y="-7.5" font-family="Helvetica,sans-Serif" font-size="10.00">debug_frmwrk_init</text>
</a>
</g>
</g>
<!-- Node34&#45;&gt;Node35 -->
<g id="edge3" class="edge"><title>Node34&#45;&gt;Node35</title>
<path fill="none" stroke="midnightblue" d="M128.79,-35.3196C112.508,-30.1852 94.0233,-24.3559 78.8975,-19.5859"/>
<polygon fill="midnightblue" stroke="midnightblue" points="128.003,-38.7414 138.593,-38.411 130.108,-32.0654 128.003,-38.7414"/>
</g>
<!-- Node36 -->
<g id="node5" class="node"><title>Node36</title>
<g id="a_node5"><a xlink:href="_a31_l12x__hal__debug__frmwrk_8c.html#a715f28fa289a7cef9f522fab87a552f6" target="_top" xlink:title="Get a character to UART port.">
<polygon fill="white" stroke="black" points="20.5,-38.5 20.5,-57.5 74.5,-57.5 74.5,-38.5 20.5,-38.5"/>
<text text-anchor="middle" x="47.5" y="-45.5" font-family="Helvetica,sans-Serif" font-size="10.00">getstring</text>
</a>
</g>
</g>
<!-- Node34&#45;&gt;Node36 -->
<g id="edge4" class="edge"><title>Node34&#45;&gt;Node36</title>
<path fill="none" stroke="midnightblue" d="M120.726,-48C104.963,-48 88.0606,-48 74.5725,-48"/>
<polygon fill="midnightblue" stroke="midnightblue" points="120.873,-51.5001 130.873,-48 120.873,-44.5001 120.873,-51.5001"/>
</g>
<!-- Node37&#45;&gt;Node35 -->
<g id="edge6" class="edge"><title>Node37&#45;&gt;Node35</title>
<path fill="none" stroke="midnightblue" d="M124.707,-10C115.159,-10 105.034,-10 95.3903,-10"/>
<polygon fill="midnightblue" stroke="midnightblue" points="124.792,-13.5001 134.792,-10 124.792,-6.5001 124.792,-13.5001"/>
</g>
</g>
</svg>
        <g id="navigator" transform="translate(0 0)" fill="#404254">
                <rect fill="#f2f5e9" fill-opacity="0.5" stroke="#606060" stroke-width=".5" x="0" y="0" width="60" height="60"/>
                <use id="zoomplus" xlink:href="#zoomPlus" x="17" y="9" onmousedown="handleZoom(evt,'in')"/>
                <use id="zoomminus" xlink:href="#zoomMin" x="42" y="9" onmousedown="handleZoom(evt,'out')"/>
                <use id="reset" xlink:href="#resetDef" x="30" y="36" onmousedown="handleReset()"/>
                <g id="arrowUp" xlink:href="#dirArrow" transform="translate(30 24)" onmousedown="handlePan(0,-1)">
                  <use xlink:href="#rim" fill="#404040">
                        <set attributeName="fill" to="#808080" begin="arrowUp.mouseover" end="arrowUp.mouseout"/>
                  </use>
                  <path fill="none" stroke="white" stroke-width="1.5" d="M0,-3.0v7 M-2.5,-0.5L0,-3.0L2.5,-0.5"/>
                </g>
                <g id="arrowRight" xlink:href="#dirArrow" transform="rotate(90) translate(36 -43)" onmousedown="handlePan(1,0)">
                  <use xlink:href="#rim" fill="#404040">
                        <set attributeName="fill" to="#808080" begin="arrowRight.mouseover" end="arrowRight.mouseout"/>
                  </use>
                  <path fill="none" stroke="white" stroke-width="1.5" d="M0,-3.0v7 M-2.5,-0.5L0,-3.0L2.5,-0.5"/>
                </g>
                <g id="arrowDown" xlink:href="#dirArrow" transform="rotate(180) translate(-30 -48)" onmousedown="handlePan(0,1)">
                  <use xlink:href="#rim" fill="#404040">
                        <set attributeName="fill" to="#808080" begin="arrowDown.mouseover" end="arrowDown.mouseout"/>
                  </use>
                  <path fill="none" stroke="white" stroke-width="1.5" d="M0,-3.0v7 M-2.5,-0.5L0,-3.0L2.5,-0.5"/>
                </g>
                <g id="arrowLeft" xlink:href="#dirArrow" transform="rotate(270) translate(-36 17)" onmousedown="handlePan(-1,0)">
                  <use xlink:href="#rim" fill="#404040">
                        <set attributeName="fill" to="#808080" begin="arrowLeft.mouseover" end="arrowLeft.mouseout"/>
                  </use>
                  <path fill="none" stroke="white" stroke-width="1.5" d="M0,-3.0v7 M-2.5,-0.5L0,-3.0L2.5,-0.5"/>
                </g>
        </g>
        <svg viewBox="0 0 15 15" width="100%" height="30px" preserveAspectRatio="xMaxYMin meet">
         <g id="arrow_out" transform="scale(0.3 0.3)">
          <a xlink:href="_a31_l12x__hal__uartn_8c_aea7d60af1ecdb767452af416422e3446_icgraph_org.svg" target="_base">
           <rect id="button" ry="5" rx="5" y="6" x="6" height="38" width="38"
                fill="#f2f5e9" fill-opacity="0.5" stroke="#606060" stroke-width="1.0"/>
           <path id="arrow"
             d="M 11.500037,31.436501 C 11.940474,20.09759 22.043105,11.32322 32.158766,21.979434 L 37.068811,17.246167 C 37.068811,17.246167 37.088388,32 37.088388,32 L 22.160133,31.978069 C 22.160133,31.978069 26.997745,27.140456 26.997745,27.140456 C 18.528582,18.264221 13.291696,25.230495 11.500037,31.436501 z"
             style="fill:#404040;"/>
          </a>
         </g>
        </svg>
</svg>
