<?xml version="1.0" encoding="UTF-8" standalone="no"?>
<!DOCTYPE svg PUBLIC "-//W3C//DTD SVG 1.1//EN"
 "http://www.w3.org/Graphics/SVG/1.1/DTD/svg11.dtd">
<!-- Generated by graphviz version 2.38.0 (20140413.2041)
 -->
<!-- Title: SPIn_Send Pages: 1 -->
<svg width="203pt" height="66pt"
 viewBox="0.00 0.00 203.00 66.00" xmlns="http://www.w3.org/2000/svg" xmlns:xlink="http://www.w3.org/1999/xlink">
<g id="graph0" class="graph" transform="scale(1 1) rotate(0) translate(4 62)">
<title>SPIn_Send</title>
<polygon fill="white" stroke="none" points="-4,4 -4,-62 199,-62 199,4 -4,4"/>
<!-- Node30 -->
<g id="node1" class="node"><title>Node30</title>
<g id="a_node1"><a xlink:title="Send a block of data via SPIn peripheral.">
<polygon fill="#bfbfbf" stroke="black" points="0,-19.5 0,-38.5 65,-38.5 65,-19.5 0,-19.5"/>
<text text-anchor="middle" x="32.5" y="-26.5" font-family="Helvetica,sans-Serif" font-size="10.00">SPIn_Send</text>
</a>
</g>
</g>
<!-- Node31 -->
<g id="node2" class="node"><title>Node31</title>
<g id="a_node2"><a xlink:href="_a31_l12x__hal__spin_8c.html#aa7160a64d584a3c71730f866ca316198" target="_top" xlink:title="This function clears the flag bit of Status Register.">
<polygon fill="white" stroke="black" points="101,-38.5 101,-57.5 195,-57.5 195,-38.5 101,-38.5"/>
<text text-anchor="middle" x="148" y="-45.5" font-family="Helvetica,sans-Serif" font-size="10.00">SPIn_ClearStatus</text>
</a>
</g>
</g>
<!-- Node30&#45;&gt;Node31 -->
<g id="edge1" class="edge"><title>Node30&#45;&gt;Node31</title>
<path fill="none" stroke="midnightblue" d="M65.1161,-34.2926C73.1226,-35.6328 81.9654,-37.1132 90.7909,-38.5905"/>
<polygon fill="midnightblue" stroke="midnightblue" points="90.2615,-42.0506 100.702,-40.2497 91.4173,-35.1466 90.2615,-42.0506"/>
</g>
<!-- Node32 -->
<g id="node3" class="node"><title>Node32</title>
<g id="a_node3"><a xlink:href="_a31_l12x__hal__spin_8c.html#aadf346031053de8e608eca482155746f" target="_top" xlink:title="Transmit a single data through SPIn peripheral.">
<polygon fill="white" stroke="black" points="105,-0.5 105,-19.5 191,-19.5 191,-0.5 105,-0.5"/>
<text text-anchor="middle" x="148" y="-7.5" font-family="Helvetica,sans-Serif" font-size="10.00">SPIn_SendByte</text>
</a>
</g>
</g>
<!-- Node30&#45;&gt;Node32 -->
<g id="edge2" class="edge"><title>Node30&#45;&gt;Node32</title>
<path fill="none" stroke="midnightblue" d="M65.1161,-23.7074C74.3647,-22.1592 84.7295,-20.4241 94.8942,-18.7226"/>
<polygon fill="midnightblue" stroke="midnightblue" points="95.6586,-22.1434 104.943,-17.0403 94.5028,-15.2395 95.6586,-22.1434"/>
</g>
</g>
</svg>
