<?xml version="1.0" encoding="UTF-8" standalone="no"?>
<!DOCTYPE svg PUBLIC "-//W3C//DTD SVG 1.1//EN"
 "http://www.w3.org/Graphics/SVG/1.1/DTD/svg11.dtd">
<!-- Generated by graphviz version 2.38.0 (20140413.2041)
 -->
<!-- Title: HAL_I2C_ConfigInterrupt Pages: 1 -->
<svg width="493pt" height="142pt"
 viewBox="0.00 0.00 493.00 142.00" xmlns="http://www.w3.org/2000/svg" xmlns:xlink="http://www.w3.org/1999/xlink">
<g id="graph0" class="graph" transform="scale(1 1) rotate(0) translate(4 138)">
<title>HAL_I2C_ConfigInterrupt</title>
<polygon fill="white" stroke="none" points="-4,4 -4,-138 489,-138 489,4 -4,4"/>
<!-- Node1 -->
<g id="node1" class="node"><title>Node1</title>
<g id="a_node1"><a xlink:title="Enable/Disable interrupt for I2C peripheral.">
<polygon fill="#bfbfbf" stroke="black" points="363,-57.5 363,-76.5 485,-76.5 485,-57.5 363,-57.5"/>
<text text-anchor="middle" x="424" y="-64.5" font-family="Helvetica,sans-Serif" font-size="10.00">HAL_I2C_ConfigInterrupt</text>
</a>
</g>
</g>
<!-- Node2 -->
<g id="node2" class="node"><title>Node2</title>
<g id="a_node2"><a xlink:href="_a31_l12x__hal__i2cn_8c.html#a997e1b14b90248312484d6db6b996be2" target="_top" xlink:title="General Master Interrupt handler for I2C peripheral.">
<polygon fill="white" stroke="black" points="169,-114.5 169,-133.5 327,-133.5 327,-114.5 169,-114.5"/>
<text text-anchor="middle" x="248" y="-121.5" font-family="Helvetica,sans-Serif" font-size="10.00">HAL_I2C_Master_IRQHandler_IT</text>
</a>
</g>
</g>
<!-- Node1&#45;&gt;Node2 -->
<g id="edge1" class="edge"><title>Node1&#45;&gt;Node2</title>
<path fill="none" stroke="midnightblue" d="M391.764,-80.6314C373.181,-88.4208 349.009,-98.0003 327,-105 316.109,-108.464 304.192,-111.658 293.024,-114.4"/>
<polygon fill="midnightblue" stroke="midnightblue" points="393.358,-83.7574 401.197,-76.6304 390.624,-77.3131 393.358,-83.7574"/>
</g>
<!-- Node3 -->
<g id="node3" class="node"><title>Node3</title>
<g id="a_node3"><a xlink:href="_a31_l12x__hal__i2cn_8c.html#aedbb9343dec1237085f9e9f1bc1a033d" target="_top" xlink:title="Transmit and Receive data in master mode.">
<polygon fill="white" stroke="black" points="175.5,-76.5 175.5,-95.5 320.5,-95.5 320.5,-76.5 175.5,-76.5"/>
<text text-anchor="middle" x="248" y="-83.5" font-family="Helvetica,sans-Serif" font-size="10.00">HAL_I2C_MasterTransferData</text>
</a>
</g>
</g>
<!-- Node1&#45;&gt;Node3 -->
<g id="edge2" class="edge"><title>Node1&#45;&gt;Node3</title>
<path fill="none" stroke="midnightblue" d="M352.644,-74.6826C342.095,-75.8344 331.208,-77.0232 320.634,-78.1779"/>
<polygon fill="midnightblue" stroke="midnightblue" points="353.071,-78.1569 362.632,-73.592 352.311,-71.1982 353.071,-78.1569"/>
</g>
<!-- Node6 -->
<g id="node6" class="node"><title>Node6</title>
<g id="a_node6"><a xlink:href="_a31_l12x__hal__i2cn_8c.html#a258913a76d2e16cf5a7578b90b1cbbe9" target="_top" xlink:title="General Slave Interrupt handler for I2C peripheral.">
<polygon fill="white" stroke="black" points="172.5,-38.5 172.5,-57.5 323.5,-57.5 323.5,-38.5 172.5,-38.5"/>
<text text-anchor="middle" x="248" y="-45.5" font-family="Helvetica,sans-Serif" font-size="10.00">HAL_I2C_Slave_IRQHandler_IT</text>
</a>
</g>
</g>
<!-- Node1&#45;&gt;Node6 -->
<g id="edge5" class="edge"><title>Node1&#45;&gt;Node6</title>
<path fill="none" stroke="midnightblue" d="M352.469,-59.2983C342.984,-58.2626 333.228,-57.1974 323.675,-56.1542"/>
<polygon fill="midnightblue" stroke="midnightblue" points="352.311,-62.8018 362.632,-60.408 353.071,-55.8431 352.311,-62.8018"/>
</g>
<!-- Node7 -->
<g id="node7" class="node"><title>Node7</title>
<g id="a_node7"><a xlink:href="_a31_l12x__hal__i2cn_8c.html#a230a36cb1065e9502cb7c0a75ec540a9" target="_top" xlink:title="Receive and Transmit data in slave mode.">
<polygon fill="white" stroke="black" points="179,-0.5 179,-19.5 317,-19.5 317,-0.5 179,-0.5"/>
<text text-anchor="middle" x="248" y="-7.5" font-family="Helvetica,sans-Serif" font-size="10.00">HAL_I2C_SlaveTransferData</text>
</a>
</g>
</g>
<!-- Node1&#45;&gt;Node7 -->
<g id="edge6" class="edge"><title>Node1&#45;&gt;Node7</title>
<path fill="none" stroke="midnightblue" d="M391.764,-53.3686C373.181,-45.5792 349.009,-35.9997 327,-29 316.109,-25.5361 304.192,-22.3419 293.024,-19.6"/>
<polygon fill="midnightblue" stroke="midnightblue" points="390.624,-56.6869 401.197,-57.3696 393.358,-50.2426 390.624,-56.6869"/>
</g>
<!-- Node4 -->
<g id="node4" class="node"><title>Node4</title>
<g id="a_node4"><a xlink:href="_a31_l12x__hal__i2cn_8c.html#a4a5a63c71ed30b538bdbf7ca49e3f594" target="_top" xlink:title="Transmit an array of bytes in Master mode.">
<polygon fill="white" stroke="black" points="0,-95.5 0,-114.5 133,-114.5 133,-95.5 0,-95.5"/>
<text text-anchor="middle" x="66.5" y="-102.5" font-family="Helvetica,sans-Serif" font-size="10.00">HAL_I2C_Master_Transmit</text>
</a>
</g>
</g>
<!-- Node3&#45;&gt;Node4 -->
<g id="edge3" class="edge"><title>Node3&#45;&gt;Node4</title>
<path fill="none" stroke="midnightblue" d="M165.123,-94.6667C154.457,-95.7957 143.641,-96.9405 133.285,-98.0367"/>
<polygon fill="midnightblue" stroke="midnightblue" points="165.707,-98.1245 175.283,-93.5912 164.97,-91.1634 165.707,-98.1245"/>
</g>
<!-- Node5 -->
<g id="node5" class="node"><title>Node5</title>
<g id="a_node5"><a xlink:href="_a31_l12x__hal__i2cn_8c.html#a337d999754c0228153031bd7c5b8e373" target="_top" xlink:title="Receive an array of bytes in Master mode.">
<polygon fill="white" stroke="black" points="2,-57.5 2,-76.5 131,-76.5 131,-57.5 2,-57.5"/>
<text text-anchor="middle" x="66.5" y="-64.5" font-family="Helvetica,sans-Serif" font-size="10.00">HAL_I2C_Master_Receive</text>
</a>
</g>
</g>
<!-- Node3&#45;&gt;Node5 -->
<g id="edge4" class="edge"><title>Node3&#45;&gt;Node5</title>
<path fill="none" stroke="midnightblue" d="M165.311,-77.3532C153.89,-76.1444 142.294,-74.9169 131.27,-73.75"/>
<polygon fill="midnightblue" stroke="midnightblue" points="164.97,-80.8366 175.283,-78.4088 165.707,-73.8755 164.97,-80.8366"/>
</g>
<!-- Node8 -->
<g id="node8" class="node"><title>Node8</title>
<g id="a_node8"><a xlink:href="_a31_l12x__hal__i2cn_8c.html#a3dc78fb232224d8f587b15377b8e1a17" target="_top" xlink:title="Receive an array of bytes in Slave mode.">
<polygon fill="white" stroke="black" points="5.5,-0.5 5.5,-19.5 127.5,-19.5 127.5,-0.5 5.5,-0.5"/>
<text text-anchor="middle" x="66.5" y="-7.5" font-family="Helvetica,sans-Serif" font-size="10.00">HAL_I2C_Slave_Receive</text>
</a>
</g>
</g>
<!-- Node7&#45;&gt;Node8 -->
<g id="edge7" class="edge"><title>Node7&#45;&gt;Node8</title>
<path fill="none" stroke="midnightblue" d="M168.496,-10C154.795,-10 140.738,-10 127.631,-10"/>
<polygon fill="midnightblue" stroke="midnightblue" points="168.883,-13.5001 178.883,-10 168.883,-6.5001 168.883,-13.5001"/>
</g>
</g>
</svg>
