<?xml version="1.0" encoding="UTF-8" standalone="no"?>
<!DOCTYPE svg PUBLIC "-//W3C//DTD SVG 1.1//EN"
 "http://www.w3.org/Graphics/SVG/1.1/DTD/svg11.dtd">
<!-- Generated by graphviz version 2.38.0 (20140413.2041)
 -->
<!-- Title: UARTPutChar Pages: 1 -->
<svg width="395pt" height="28pt"
 viewBox="0.00 0.00 395.00 28.00" xmlns="http://www.w3.org/2000/svg" xmlns:xlink="http://www.w3.org/1999/xlink">
<g id="graph0" class="graph" transform="scale(1 1) rotate(0) translate(4 24)">
<title>UARTPutChar</title>
<polygon fill="white" stroke="none" points="-4,4 -4,-24 391,-24 391,4 -4,4"/>
<!-- Node47 -->
<g id="node1" class="node"><title>Node47</title>
<g id="a_node1"><a xlink:title="Puts a character to UART port.">
<polygon fill="#bfbfbf" stroke="black" points="0,-0.5 0,-19.5 77,-19.5 77,-0.5 0,-0.5"/>
<text text-anchor="middle" x="38.5" y="-7.5" font-family="Helvetica,sans-Serif" font-size="10.00">UARTPutChar</text>
</a>
</g>
</g>
<!-- Node48 -->
<g id="node2" class="node"><title>Node48</title>
<g id="a_node2"><a xlink:href="_a31_l12x__hal__uartn_8h.html#ab1488eccbac797387079ab39be51ac38" target="_top" xlink:title="Send a block of data via UART peripheral.">
<polygon fill="white" stroke="black" points="113,-0.5 113,-19.5 222,-19.5 222,-0.5 113,-0.5"/>
<text text-anchor="middle" x="167.5" y="-7.5" font-family="Helvetica,sans-Serif" font-size="10.00">HAL_UART_Transmit</text>
</a>
</g>
</g>
<!-- Node47&#45;&gt;Node48 -->
<g id="edge1" class="edge"><title>Node47&#45;&gt;Node48</title>
<path fill="none" stroke="midnightblue" d="M77.2603,-10C85.2484,-10 93.8907,-10 102.544,-10"/>
<polygon fill="midnightblue" stroke="midnightblue" points="102.669,-13.5001 112.669,-10 102.669,-6.5001 102.669,-13.5001"/>
</g>
<!-- Node49 -->
<g id="node3" class="node"><title>Node49</title>
<g id="a_node3"><a xlink:href="_a31_l12x__hal__uartn_8c.html#aa7dfea0108c5ea92d4bc9f5c79ef9e4d" target="_top" xlink:title="Transmit a single data through UART peripheral.">
<polygon fill="white" stroke="black" points="258,-0.5 258,-19.5 387,-19.5 387,-0.5 258,-0.5"/>
<text text-anchor="middle" x="322.5" y="-7.5" font-family="Helvetica,sans-Serif" font-size="10.00">HAL_UART_TransmitByte</text>
</a>
</g>
</g>
<!-- Node48&#45;&gt;Node49 -->
<g id="edge2" class="edge"><title>Node48&#45;&gt;Node49</title>
<path fill="none" stroke="midnightblue" d="M222.012,-10C230.312,-10 239.009,-10 247.661,-10"/>
<polygon fill="midnightblue" stroke="midnightblue" points="247.771,-13.5001 257.771,-10 247.771,-6.5001 247.771,-13.5001"/>
</g>
</g>
</svg>
