<?xml version="1.0" encoding="UTF-8" standalone="no"?>
<!DOCTYPE svg PUBLIC "-//W3C//DTD SVG 1.1//EN"
 "http://www.w3.org/Graphics/SVG/1.1/DTD/svg11.dtd">
<!-- Generated by graphviz version 2.38.0 (20140413.2041)
 -->
<!-- Title: HAL_UART_Init Pages: 1 -->
<svg width="238pt" height="78pt"
 viewBox="0.00 0.00 238.00 77.50" xmlns="http://www.w3.org/2000/svg" xmlns:xlink="http://www.w3.org/1999/xlink">
<g id="graph0" class="graph" transform="scale(1 1) rotate(0) translate(4 73.5)">
<title>HAL_UART_Init</title>
<polygon fill="white" stroke="none" points="-4,4 -4,-73.5 234,-73.5 234,4 -4,4"/>
<!-- Node20 -->
<g id="node1" class="node"><title>Node20</title>
<g id="a_node1"><a xlink:title="Initialize the UARTn peripheral with the specified parameters.">
<polygon fill="#bfbfbf" stroke="black" points="0,-22.5 0,-41.5 84,-41.5 84,-22.5 0,-22.5"/>
<text text-anchor="middle" x="42" y="-29.5" font-family="Helvetica,sans-Serif" font-size="10.00">HAL_UART_Init</text>
</a>
</g>
</g>
<!-- Node21 -->
<g id="node2" class="node"><title>Node21</title>
<g id="a_node2"><a xlink:href="_a31_l12x__hal__scu_8h.html#a7d0a497cdf6bc58ed14a54aed75a04ec" target="_top" xlink:title="Set Each Peripheral Clock.">
<polygon fill="white" stroke="black" points="120,-39 120,-69 230,-69 230,-39 120,-39"/>
<text text-anchor="start" x="128" y="-57" font-family="Helvetica,sans-Serif" font-size="10.00">HAL_SCU_Peripheral</text>
<text text-anchor="middle" x="175" y="-46" font-family="Helvetica,sans-Serif" font-size="10.00">_EnableClock2</text>
</a>
</g>
</g>
<!-- Node20&#45;&gt;Node21 -->
<g id="edge1" class="edge"><title>Node20&#45;&gt;Node21</title>
<path fill="none" stroke="midnightblue" d="M84.0898,-38.9006C92.1795,-40.2592 100.849,-41.7151 109.495,-43.1671"/>
<polygon fill="midnightblue" stroke="midnightblue" points="109.157,-46.6593 119.599,-44.8639 110.316,-39.7559 109.157,-46.6593"/>
</g>
<!-- Node22 -->
<g id="node3" class="node"><title>Node22</title>
<g id="a_node3"><a xlink:href="_a31_l12x__hal__uartn_8c.html#a070769305cdbb668d2100b3240799c13" target="_top" xlink:title="Determines best dividers to get a target clock rate.">
<polygon fill="white" stroke="black" points="130.5,-0.5 130.5,-19.5 219.5,-19.5 219.5,-0.5 130.5,-0.5"/>
<text text-anchor="middle" x="175" y="-7.5" font-family="Helvetica,sans-Serif" font-size="10.00">uart_set_divisors</text>
</a>
</g>
</g>
<!-- Node20&#45;&gt;Node22 -->
<g id="edge2" class="edge"><title>Node20&#45;&gt;Node22</title>
<path fill="none" stroke="midnightblue" d="M84.0898,-25.0994C95.5796,-23.1698 108.239,-21.0439 120.34,-19.0116"/>
<polygon fill="midnightblue" stroke="midnightblue" points="121.054,-22.4408 130.336,-17.3328 119.895,-15.5375 121.054,-22.4408"/>
</g>
</g>
</svg>
