<?xml version="1.0" encoding="UTF-8" standalone="no"?>
<!DOCTYPE svg PUBLIC "-//W3C//DTD SVG 1.1//EN"
 "http://www.w3.org/Graphics/SVG/1.1/DTD/svg11.dtd">
<!-- Generated by graphviz version 2.38.0 (20140413.2041)
 -->
<!-- Title: HAL_FMC_PageWrite Pages: 1 -->
<svg width="285pt" height="104pt"
 viewBox="0.00 0.00 285.00 104.00" xmlns="http://www.w3.org/2000/svg" xmlns:xlink="http://www.w3.org/1999/xlink">
<g id="graph0" class="graph" transform="scale(1 1) rotate(0) translate(4 100)">
<title>HAL_FMC_PageWrite</title>
<polygon fill="white" stroke="none" points="-4,4 -4,-100 281,-100 281,4 -4,4"/>
<!-- Node25 -->
<g id="node1" class="node"><title>Node25</title>
<g id="a_node1"><a xlink:title="Flash Page Write Function.">
<polygon fill="#bfbfbf" stroke="black" points="0,-38.5 0,-57.5 113,-57.5 113,-38.5 0,-38.5"/>
<text text-anchor="middle" x="56.5" y="-45.5" font-family="Helvetica,sans-Serif" font-size="10.00">HAL_FMC_PageWrite</text>
</a>
</g>
</g>
<!-- Node26 -->
<g id="node2" class="node"><title>Node26</title>
<g id="a_node2"><a xlink:href="_a31_l12x__hal__fmc_8c.html#ae3273cd46e1816ecb351b03627a79c82" target="_top" xlink:title="Entry of Flash Memory Control.">
<polygon fill="white" stroke="black" points="156,-76.5 156,-95.5 270,-95.5 270,-76.5 156,-76.5"/>
<text text-anchor="middle" x="213" y="-83.5" font-family="Helvetica,sans-Serif" font-size="10.00">HAL_FMC_FlashEntry</text>
</a>
</g>
</g>
<!-- Node25&#45;&gt;Node26 -->
<g id="edge1" class="edge"><title>Node25&#45;&gt;Node26</title>
<path fill="none" stroke="midnightblue" d="M96.4869,-57.589C116.783,-62.5809 141.793,-68.7324 163.346,-74.0334"/>
<polygon fill="midnightblue" stroke="midnightblue" points="162.747,-77.4902 173.293,-76.4799 164.419,-70.6928 162.747,-77.4902"/>
</g>
<!-- Node27 -->
<g id="node3" class="node"><title>Node27</title>
<g id="a_node3"><a xlink:href="_a31_l12x__hal__fmc_8c.html#a5e897c8bc511682862346649423d5a84" target="_top" xlink:title="Exit of Flash Memory Control.">
<polygon fill="white" stroke="black" points="159,-38.5 159,-57.5 267,-57.5 267,-38.5 159,-38.5"/>
<text text-anchor="middle" x="213" y="-45.5" font-family="Helvetica,sans-Serif" font-size="10.00">HAL_FMC_FlashExit</text>
</a>
</g>
</g>
<!-- Node25&#45;&gt;Node27 -->
<g id="edge2" class="edge"><title>Node25&#45;&gt;Node27</title>
<path fill="none" stroke="midnightblue" d="M113.278,-48C124.777,-48 136.965,-48 148.707,-48"/>
<polygon fill="midnightblue" stroke="midnightblue" points="148.884,-51.5001 158.884,-48 148.884,-44.5001 148.884,-51.5001"/>
</g>
<!-- Node28 -->
<g id="node4" class="node"><title>Node28</title>
<g id="a_node4"><a xlink:href="_a31_l12x__hal__fmc_8c.html#a40346f2014c4d2b068c7b760e50a9e89" target="_top" xlink:title="Flash Page Erase/Write and Bulk(Chip) Erase.">
<polygon fill="white" stroke="black" points="149,-0.5 149,-19.5 277,-19.5 277,-0.5 149,-0.5"/>
<text text-anchor="middle" x="213" y="-7.5" font-family="Helvetica,sans-Serif" font-size="10.00">HAL_FMC_FlashFunction</text>
</a>
</g>
</g>
<!-- Node25&#45;&gt;Node28 -->
<g id="edge3" class="edge"><title>Node25&#45;&gt;Node28</title>
<path fill="none" stroke="midnightblue" d="M96.4869,-38.411C116.783,-33.4191 141.793,-27.2676 163.346,-21.9666"/>
<polygon fill="midnightblue" stroke="midnightblue" points="164.419,-25.3072 173.293,-19.5201 162.747,-18.5098 164.419,-25.3072"/>
</g>
</g>
</svg>
