<?xml version="1.0" encoding="UTF-8" standalone="no"?>
<!DOCTYPE svg PUBLIC "-//W3C//DTD SVG 1.1//EN"
 "http://www.w3.org/Graphics/SVG/1.1/DTD/svg11.dtd">
<!-- Generated by graphviz version 2.38.0 (20140413.2041)
 -->
<!-- Title: HAL_I2C_MasterTransferData_DMA Pages: 1 -->
<svg width="316pt" height="66pt"
 viewBox="0.00 0.00 316.00 66.00" xmlns="http://www.w3.org/2000/svg" xmlns:xlink="http://www.w3.org/1999/xlink">
<g id="graph0" class="graph" transform="scale(1 1) rotate(0) translate(4 62)">
<title>HAL_I2C_MasterTransferData_DMA</title>
<polygon fill="white" stroke="none" points="-4,4 -4,-62 312,-62 312,4 -4,4"/>
<!-- Node40 -->
<g id="node1" class="node"><title>Node40</title>
<g id="a_node1"><a xlink:title="Transmit and Receive data in master mode by DMA.">
<polygon fill="#bfbfbf" stroke="black" points="0,-19.5 0,-38.5 172,-38.5 172,-19.5 0,-19.5"/>
<text text-anchor="middle" x="86" y="-26.5" font-family="Helvetica,sans-Serif" font-size="10.00">HAL_I2C_MasterTransferData_DMA</text>
</a>
</g>
</g>
<!-- Node41 -->
<g id="node2" class="node"><title>Node41</title>
<g id="a_node2"><a xlink:href="_a31_l12x__hal__dmacn_8h.html#aed27eb8ff1494f44b94c8ed749f6a010" target="_top" xlink:title="Enable the transfer.">
<polygon fill="white" stroke="black" points="208,-38.5 208,-57.5 308,-57.5 308,-38.5 208,-38.5"/>
<text text-anchor="middle" x="258" y="-45.5" font-family="Helvetica,sans-Serif" font-size="10.00">HAL_DMAC_Setup</text>
</a>
</g>
</g>
<!-- Node40&#45;&gt;Node41 -->
<g id="edge1" class="edge"><title>Node40&#45;&gt;Node41</title>
<path fill="none" stroke="midnightblue" d="M172.498,-38.5557C180.986,-39.5043 189.467,-40.4522 197.603,-41.3615"/>
<polygon fill="midnightblue" stroke="midnightblue" points="197.372,-44.8574 207.699,-42.4899 198.149,-37.9007 197.372,-44.8574"/>
</g>
<!-- Node42 -->
<g id="node3" class="node"><title>Node42</title>
<g id="a_node3"><a xlink:href="_a31_l12x__hal__i2cn_8c.html#a4a2199129f04199e68f6f52bdaefcbdb" target="_top" xlink:title="wait and return status in master mode">
<polygon fill="white" stroke="black" points="223,-0.5 223,-19.5 293,-19.5 293,-0.5 223,-0.5"/>
<text text-anchor="middle" x="258" y="-7.5" font-family="Helvetica,sans-Serif" font-size="10.00">I2Cn_MWait</text>
</a>
</g>
</g>
<!-- Node40&#45;&gt;Node42 -->
<g id="edge2" class="edge"><title>Node40&#45;&gt;Node42</title>
<path fill="none" stroke="midnightblue" d="M172.498,-19.4443C186.451,-17.8849 200.385,-16.3275 212.798,-14.9402"/>
<polygon fill="midnightblue" stroke="midnightblue" points="213.285,-18.4077 222.834,-13.8185 212.507,-11.451 213.285,-18.4077"/>
</g>
</g>
</svg>
