<?xml version="1.0" encoding="UTF-8" standalone="no"?>
<!DOCTYPE svg PUBLIC "-//W3C//DTD SVG 1.1//EN"
 "http://www.w3.org/Graphics/SVG/1.1/DTD/svg11.dtd">
<!-- Generated by graphviz version 2.38.0 (20140413.2041)
 -->
<!-- Title: HAL_FMC_BulkErase Pages: 1 -->
<svg width="284pt" height="104pt"
 viewBox="0.00 0.00 284.00 104.00" xmlns="http://www.w3.org/2000/svg" xmlns:xlink="http://www.w3.org/1999/xlink">
<g id="graph0" class="graph" transform="scale(1 1) rotate(0) translate(4 100)">
<title>HAL_FMC_BulkErase</title>
<polygon fill="white" stroke="none" points="-4,4 -4,-100 280,-100 280,4 -4,4"/>
<!-- Node0 -->
<g id="node1" class="node"><title>Node0</title>
<g id="a_node1"><a xlink:title="Flash Bulk(Chip) Erase Function.">
<polygon fill="#bfbfbf" stroke="black" points="0,-38.5 0,-57.5 112,-57.5 112,-38.5 0,-38.5"/>
<text text-anchor="middle" x="56" y="-45.5" font-family="Helvetica,sans-Serif" font-size="10.00">HAL_FMC_BulkErase</text>
</a>
</g>
</g>
<!-- Node1 -->
<g id="node2" class="node"><title>Node1</title>
<g id="a_node2"><a xlink:href="_a31_l12x__hal__fmc_8c.html#ae3273cd46e1816ecb351b03627a79c82" target="_top" xlink:title="Entry of Flash Memory Control.">
<polygon fill="white" stroke="black" points="155,-76.5 155,-95.5 269,-95.5 269,-76.5 155,-76.5"/>
<text text-anchor="middle" x="212" y="-83.5" font-family="Helvetica,sans-Serif" font-size="10.00">HAL_FMC_FlashEntry</text>
</a>
</g>
</g>
<!-- Node0&#45;&gt;Node1 -->
<g id="edge1" class="edge"><title>Node0&#45;&gt;Node1</title>
<path fill="none" stroke="midnightblue" d="M95.8607,-57.589C116.091,-62.5809 141.021,-68.7324 162.504,-74.0334"/>
<polygon fill="midnightblue" stroke="midnightblue" points="161.871,-77.4823 172.419,-76.4799 163.548,-70.6861 161.871,-77.4823"/>
</g>
<!-- Node2 -->
<g id="node3" class="node"><title>Node2</title>
<g id="a_node3"><a xlink:href="_a31_l12x__hal__fmc_8c.html#a5e897c8bc511682862346649423d5a84" target="_top" xlink:title="Exit of Flash Memory Control.">
<polygon fill="white" stroke="black" points="158,-38.5 158,-57.5 266,-57.5 266,-38.5 158,-38.5"/>
<text text-anchor="middle" x="212" y="-45.5" font-family="Helvetica,sans-Serif" font-size="10.00">HAL_FMC_FlashExit</text>
</a>
</g>
</g>
<!-- Node0&#45;&gt;Node2 -->
<g id="edge2" class="edge"><title>Node0&#45;&gt;Node2</title>
<path fill="none" stroke="midnightblue" d="M112.163,-48C123.644,-48 135.832,-48 147.583,-48"/>
<polygon fill="midnightblue" stroke="midnightblue" points="147.769,-51.5001 157.769,-48 147.769,-44.5001 147.769,-51.5001"/>
</g>
<!-- Node3 -->
<g id="node4" class="node"><title>Node3</title>
<g id="a_node4"><a xlink:href="_a31_l12x__hal__fmc_8c.html#a40346f2014c4d2b068c7b760e50a9e89" target="_top" xlink:title="Flash Page Erase/Write and Bulk(Chip) Erase.">
<polygon fill="white" stroke="black" points="148,-0.5 148,-19.5 276,-19.5 276,-0.5 148,-0.5"/>
<text text-anchor="middle" x="212" y="-7.5" font-family="Helvetica,sans-Serif" font-size="10.00">HAL_FMC_FlashFunction</text>
</a>
</g>
</g>
<!-- Node0&#45;&gt;Node3 -->
<g id="edge3" class="edge"><title>Node0&#45;&gt;Node3</title>
<path fill="none" stroke="midnightblue" d="M95.8607,-38.411C116.091,-33.4191 141.021,-27.2676 162.504,-21.9666"/>
<polygon fill="midnightblue" stroke="midnightblue" points="163.548,-25.3139 172.419,-19.5201 161.871,-18.5177 163.548,-25.3139"/>
</g>
</g>
</svg>
