<?xml version="1.0" encoding="UTF-8" standalone="no"?>
<!DOCTYPE svg PUBLIC "-//W3C//DTD SVG 1.1//EN"
 "http://www.w3.org/Graphics/SVG/1.1/DTD/svg11.dtd">
<!-- Generated by graphviz version 2.38.0 (20140413.2041)
 -->
<!-- Title: HAL_SC_Init Pages: 1 -->
<svg width="229pt" height="203pt"
 viewBox="0.00 0.00 229.00 203.00" xmlns="http://www.w3.org/2000/svg" xmlns:xlink="http://www.w3.org/1999/xlink">
<g id="graph0" class="graph" transform="scale(1 1) rotate(0) translate(4 199)">
<title>HAL_SC_Init</title>
<polygon fill="white" stroke="none" points="-4,4 -4,-199 225,-199 225,4 -4,4"/>
<!-- Node34 -->
<g id="node1" class="node"><title>Node34</title>
<g id="a_node1"><a xlink:title="Initialize the SCn peripheral with the specified parameters.">
<polygon fill="#bfbfbf" stroke="black" points="0,-93.5 0,-112.5 72,-112.5 72,-93.5 0,-93.5"/>
<text text-anchor="middle" x="36" y="-100.5" font-family="Helvetica,sans-Serif" font-size="10.00">HAL_SC_Init</text>
</a>
</g>
</g>
<!-- Node35 -->
<g id="node2" class="node"><title>Node35</title>
<g id="a_node2"><a xlink:href="_a31_l12x__hal__scn_8c.html#a0a36dac419fb8692131bae3b7e55868a" target="_top" xlink:title="Clear Status register in SCn peripheral.">
<polygon fill="white" stroke="black" points="109.5,-175.5 109.5,-194.5 219.5,-194.5 219.5,-175.5 109.5,-175.5"/>
<text text-anchor="middle" x="164.5" y="-182.5" font-family="Helvetica,sans-Serif" font-size="10.00">HAL_SC_ClearStatus</text>
</a>
</g>
</g>
<!-- Node34&#45;&gt;Node35 -->
<g id="edge1" class="edge"><title>Node34&#45;&gt;Node35</title>
<path fill="none" stroke="midnightblue" d="M45.6995,-112.867C58.2319,-126.54 82.6585,-151.227 108,-166 111.613,-168.106 115.495,-170.026 119.466,-171.764"/>
<polygon fill="midnightblue" stroke="midnightblue" points="118.226,-175.037 128.811,-175.494 120.821,-168.536 118.226,-175.037"/>
</g>
<!-- Node36 -->
<g id="node3" class="node"><title>Node36</title>
<g id="a_node3"><a xlink:href="_a31_l12x__hal__scn_8c.html#a60e407b7ff2df259bdc54f6e4f659662" target="_top" xlink:title="Receive a single data from SCn peripheral.">
<polygon fill="white" stroke="black" points="108,-137.5 108,-156.5 221,-156.5 221,-137.5 108,-137.5"/>
<text text-anchor="middle" x="164.5" y="-144.5" font-family="Helvetica,sans-Serif" font-size="10.00">HAL_SC_ReceiveByte</text>
</a>
</g>
</g>
<!-- Node34&#45;&gt;Node36 -->
<g id="edge2" class="edge"><title>Node34&#45;&gt;Node36</title>
<path fill="none" stroke="midnightblue" d="M63.9524,-112.552C77.2097,-117.235 93.4327,-122.942 108,-128 113.732,-129.99 119.802,-132.083 125.742,-134.123"/>
<polygon fill="midnightblue" stroke="midnightblue" points="124.939,-137.548 135.534,-137.479 127.209,-130.926 124.939,-137.548"/>
</g>
<!-- Node37 -->
<g id="node4" class="node"><title>Node37</title>
<g id="a_node4"><a xlink:href="_a31_l12x__hal__scu_8h.html#a7d0a497cdf6bc58ed14a54aed75a04ec" target="_top" xlink:title="Set Each Peripheral Clock.">
<polygon fill="white" stroke="black" points="109.5,-88 109.5,-118 219.5,-118 219.5,-88 109.5,-88"/>
<text text-anchor="start" x="117.5" y="-106" font-family="Helvetica,sans-Serif" font-size="10.00">HAL_SCU_Peripheral</text>
<text text-anchor="middle" x="164.5" y="-95" font-family="Helvetica,sans-Serif" font-size="10.00">_EnableClock2</text>
</a>
</g>
</g>
<!-- Node34&#45;&gt;Node37 -->
<g id="edge3" class="edge"><title>Node34&#45;&gt;Node37</title>
<path fill="none" stroke="midnightblue" d="M72.2373,-103C80.5234,-103 89.6134,-103 98.7451,-103"/>
<polygon fill="midnightblue" stroke="midnightblue" points="99.0324,-106.5 109.032,-103 99.0323,-99.5001 99.0324,-106.5"/>
</g>
<!-- Node38 -->
<g id="node5" class="node"><title>Node38</title>
<g id="a_node5"><a xlink:href="_a31_l12x__hal__scu_8h.html#a86f85811c7a32616b6f21328fa2d868f" target="_top" xlink:title="Set/Reset Each Peripheral Block Reset of PPRST2 Register.">
<polygon fill="white" stroke="black" points="109.5,-39 109.5,-69 219.5,-69 219.5,-39 109.5,-39"/>
<text text-anchor="start" x="117.5" y="-57" font-family="Helvetica,sans-Serif" font-size="10.00">HAL_SCU_Peripheral</text>
<text text-anchor="middle" x="164.5" y="-46" font-family="Helvetica,sans-Serif" font-size="10.00">_SetReset2</text>
</a>
</g>
</g>
<!-- Node34&#45;&gt;Node38 -->
<g id="edge4" class="edge"><title>Node34&#45;&gt;Node38</title>
<path fill="none" stroke="midnightblue" d="M61.6908,-93.436C76.8756,-87.5541 96.8551,-79.815 115.09,-72.7515"/>
<polygon fill="midnightblue" stroke="midnightblue" points="116.372,-76.0086 124.433,-69.1328 113.844,-69.4812 116.372,-76.0086"/>
</g>
<!-- Node39 -->
<g id="node6" class="node"><title>Node39</title>
<g id="a_node6"><a xlink:href="_a31_l12x__hal__scn_8c.html#ac35d6237c238c9f724376cdbff80809c" target="_top" xlink:title="Determines best dividers to get a target clock rate.">
<polygon fill="white" stroke="black" points="123,-0.5 123,-19.5 206,-19.5 206,-0.5 123,-0.5"/>
<text text-anchor="middle" x="164.5" y="-7.5" font-family="Helvetica,sans-Serif" font-size="10.00">sc_set_divisors</text>
</a>
</g>
</g>
<!-- Node34&#45;&gt;Node39 -->
<g id="edge5" class="edge"><title>Node34&#45;&gt;Node39</title>
<path fill="none" stroke="midnightblue" d="M44.2012,-93.1073C55.9416,-77.6259 80.6583,-47.6249 108,-30 111.782,-27.5619 115.901,-25.3715 120.13,-23.4157"/>
<polygon fill="midnightblue" stroke="midnightblue" points="121.601,-26.5941 129.474,-19.5036 118.898,-20.1372 121.601,-26.5941"/>
</g>
</g>
</svg>
