<?xml version="1.0" encoding="UTF-8" standalone="no"?>
<!DOCTYPE svg PUBLIC "-//W3C//DTD SVG 1.1//EN"
 "http://www.w3.org/Graphics/SVG/1.1/DTD/svg11.dtd">
<!-- Generated by graphviz version 2.38.0 (20140413.2041)
 -->
<!-- Title: fputc Pages: 1 -->
<svg width="211pt" height="66pt"
 viewBox="0.00 0.00 211.00 66.00" xmlns="http://www.w3.org/2000/svg" xmlns:xlink="http://www.w3.org/1999/xlink">
<g id="graph0" class="graph" transform="scale(1 1) rotate(0) translate(4 62)">
<title>fputc</title>
<polygon fill="white" stroke="none" points="-4,4 -4,-62 207,-62 207,4 -4,4"/>
<!-- Node26 -->
<g id="node1" class="node"><title>Node26</title>
<g id="a_node1"><a xlink:title="Puts a character to file.">
<polygon fill="#bfbfbf" stroke="black" points="0,-19.5 0,-38.5 38,-38.5 38,-19.5 0,-19.5"/>
<text text-anchor="middle" x="19" y="-26.5" font-family="Helvetica,sans-Serif" font-size="10.00">fputc</text>
</a>
</g>
</g>
<!-- Node27 -->
<g id="node2" class="node"><title>Node27</title>
<g id="a_node2"><a xlink:href="_a31_l12x__hal__uartn_8h.html#a7be9380ed3fd8eb5f1a895398d50540d" target="_top" xlink:title="Check whether if UART is busy or not.">
<polygon fill="white" stroke="black" points="77.5,-38.5 77.5,-57.5 199.5,-57.5 199.5,-38.5 77.5,-38.5"/>
<text text-anchor="middle" x="138.5" y="-45.5" font-family="Helvetica,sans-Serif" font-size="10.00">HAL_UART_CheckBusy</text>
</a>
</g>
</g>
<!-- Node26&#45;&gt;Node27 -->
<g id="edge1" class="edge"><title>Node26&#45;&gt;Node27</title>
<path fill="none" stroke="midnightblue" d="M38.1019,-31.9271C46.6159,-33.3038 57.3638,-35.0418 68.6235,-36.8625"/>
<polygon fill="midnightblue" stroke="midnightblue" points="68.1763,-40.3356 78.6068,-38.4768 69.2937,-33.4254 68.1763,-40.3356"/>
</g>
<!-- Node28 -->
<g id="node3" class="node"><title>Node28</title>
<g id="a_node3"><a xlink:href="_a31_l12x__hal__uartn_8h.html#aa7dfea0108c5ea92d4bc9f5c79ef9e4d" target="_top" xlink:title="Transmit a single data through UART peripheral.">
<polygon fill="white" stroke="black" points="74,-0.5 74,-19.5 203,-19.5 203,-0.5 74,-0.5"/>
<text text-anchor="middle" x="138.5" y="-7.5" font-family="Helvetica,sans-Serif" font-size="10.00">HAL_UART_TransmitByte</text>
</a>
</g>
</g>
<!-- Node26&#45;&gt;Node28 -->
<g id="edge2" class="edge"><title>Node26&#45;&gt;Node28</title>
<path fill="none" stroke="midnightblue" d="M38.1019,-26.0729C46.6159,-24.6962 57.3638,-22.9582 68.6235,-21.1375"/>
<polygon fill="midnightblue" stroke="midnightblue" points="69.2937,-24.5746 78.6068,-19.5232 68.1763,-17.6644 69.2937,-24.5746"/>
</g>
</g>
</svg>
