<?xml version="1.0" encoding="UTF-8" standalone="no"?>
<!DOCTYPE svg PUBLIC "-//W3C//DTD SVG 1.1//EN"
 "http://www.w3.org/Graphics/SVG/1.1/DTD/svg11.dtd">
<!-- Generated by graphviz version 2.38.0 (20140413.2041)
 -->
<!-- Title: HAL_I2C_SlaveTransferData Pages: 1 -->
<svg width="304pt" height="104pt"
 viewBox="0.00 0.00 304.00 104.00" xmlns="http://www.w3.org/2000/svg" xmlns:xlink="http://www.w3.org/1999/xlink">
<g id="graph0" class="graph" transform="scale(1 1) rotate(0) translate(4 100)">
<title>HAL_I2C_SlaveTransferData</title>
<polygon fill="white" stroke="none" points="-4,4 -4,-100 300,-100 300,4 -4,4"/>
<!-- Node72 -->
<g id="node1" class="node"><title>Node72</title>
<g id="a_node1"><a xlink:title="Receive and Transmit data in slave mode.">
<polygon fill="#bfbfbf" stroke="black" points="0,-38.5 0,-57.5 138,-57.5 138,-38.5 0,-38.5"/>
<text text-anchor="middle" x="69" y="-45.5" font-family="Helvetica,sans-Serif" font-size="10.00">HAL_I2C_SlaveTransferData</text>
</a>
</g>
</g>
<!-- Node73 -->
<g id="node2" class="node"><title>Node73</title>
<g id="a_node2"><a xlink:href="_a31_l12x__hal__i2cn_8c.html#a133ae17b04b34797ec747141b0a4d4e9" target="_top" xlink:title="Enable/Disable interrupt for I2C peripheral.">
<polygon fill="white" stroke="black" points="174,-76.5 174,-95.5 296,-95.5 296,-76.5 174,-76.5"/>
<text text-anchor="middle" x="235" y="-83.5" font-family="Helvetica,sans-Serif" font-size="10.00">HAL_I2C_ConfigInterrupt</text>
</a>
</g>
</g>
<!-- Node72&#45;&gt;Node73 -->
<g id="edge1" class="edge"><title>Node72&#45;&gt;Node73</title>
<path fill="none" stroke="midnightblue" d="M111.384,-57.589C133.123,-62.6261 159.957,-68.8438 182.975,-74.1771"/>
<polygon fill="midnightblue" stroke="midnightblue" points="182.381,-77.6323 192.913,-76.4799 183.962,-70.8129 182.381,-77.6323"/>
</g>
<!-- Node74 -->
<g id="node3" class="node"><title>Node74</title>
<g id="a_node3"><a xlink:href="_a31_l12x__hal__i2cn_8c.html#afd408e2448333d4efa4b237c73a8cfcb" target="_top" xlink:title="Convert from I2C peripheral to number.">
<polygon fill="white" stroke="black" points="197.5,-38.5 197.5,-57.5 272.5,-57.5 272.5,-38.5 197.5,-38.5"/>
<text text-anchor="middle" x="235" y="-45.5" font-family="Helvetica,sans-Serif" font-size="10.00">I2Cn_getNum</text>
</a>
</g>
</g>
<!-- Node72&#45;&gt;Node74 -->
<g id="edge2" class="edge"><title>Node72&#45;&gt;Node74</title>
<path fill="none" stroke="midnightblue" d="M138.126,-48C154.572,-48 171.785,-48 187.014,-48"/>
<polygon fill="midnightblue" stroke="midnightblue" points="187.206,-51.5001 197.206,-48 187.206,-44.5001 187.206,-51.5001"/>
</g>
<!-- Node75 -->
<g id="node4" class="node"><title>Node75</title>
<g id="a_node4"><a xlink:href="_a31_l12x__hal__i2cn_8c.html#a15e9a4755791cd7daaeb8025b47d4076" target="_top" xlink:title="wait and return status in slave mode">
<polygon fill="white" stroke="black" points="201,-0.5 201,-19.5 269,-19.5 269,-0.5 201,-0.5"/>
<text text-anchor="middle" x="235" y="-7.5" font-family="Helvetica,sans-Serif" font-size="10.00">I2Cn_SWait</text>
</a>
</g>
</g>
<!-- Node72&#45;&gt;Node75 -->
<g id="edge3" class="edge"><title>Node72&#45;&gt;Node75</title>
<path fill="none" stroke="midnightblue" d="M111.384,-38.411C135.737,-32.7683 166.483,-25.6441 191.095,-19.9413"/>
<polygon fill="midnightblue" stroke="midnightblue" points="191.934,-23.3397 200.886,-17.6727 190.354,-16.5204 191.934,-23.3397"/>
</g>
</g>
</svg>
