<?xml version="1.0" encoding="UTF-8" standalone="no"?>
<!DOCTYPE svg PUBLIC "-//W3C//DTD SVG 1.1//EN"
 "http://www.w3.org/Graphics/SVG/1.1/DTD/svg11.dtd">
<!-- Generated by graphviz version 2.38.0 (20140413.2041)
 -->
<!-- Title: HAL_USART_Transmit Pages: 1 -->
<svg width="296pt" height="66pt"
 viewBox="0.00 0.00 296.00 66.00" xmlns="http://www.w3.org/2000/svg" xmlns:xlink="http://www.w3.org/1999/xlink">
<g id="graph0" class="graph" transform="scale(1 1) rotate(0) translate(4 62)">
<title>HAL_USART_Transmit</title>
<polygon fill="white" stroke="none" points="-4,4 -4,-62 292,-62 292,4 -4,4"/>
<!-- Node36 -->
<g id="node1" class="node"><title>Node36</title>
<g id="a_node1"><a xlink:title="Send a block of data via USART peripheral.">
<polygon fill="#bfbfbf" stroke="black" points="0,-19.5 0,-38.5 116,-38.5 116,-19.5 0,-19.5"/>
<text text-anchor="middle" x="58" y="-26.5" font-family="Helvetica,sans-Serif" font-size="10.00">HAL_USART_Transmit</text>
</a>
</g>
</g>
<!-- Node37 -->
<g id="node2" class="node"><title>Node37</title>
<g id="a_node2"><a xlink:href="_a31_l12x__hal__usart1n_8c.html#a681990d5d29756daab5623c2174312a3" target="_top" xlink:title="Clear Status register in USART peripheral.">
<polygon fill="white" stroke="black" points="155.5,-38.5 155.5,-57.5 284.5,-57.5 284.5,-38.5 155.5,-38.5"/>
<text text-anchor="middle" x="220" y="-45.5" font-family="Helvetica,sans-Serif" font-size="10.00">HAL_USART_ClearStatus</text>
</a>
</g>
</g>
<!-- Node36&#45;&gt;Node37 -->
<g id="edge1" class="edge"><title>Node36&#45;&gt;Node37</title>
<path fill="none" stroke="midnightblue" d="M116.312,-35.8058C125.695,-36.9201 135.533,-38.0883 145.247,-39.2419"/>
<polygon fill="midnightblue" stroke="midnightblue" points="144.958,-42.7321 155.301,-40.4358 145.784,-35.7809 144.958,-42.7321"/>
</g>
<!-- Node38 -->
<g id="node3" class="node"><title>Node38</title>
<g id="a_node3"><a xlink:href="_a31_l12x__hal__usart1n_8c.html#a92e6ffa29854e6b3777567d2cfc29a3d" target="_top" xlink:title="Transmit a single data through USART peripheral.">
<polygon fill="white" stroke="black" points="152,-0.5 152,-19.5 288,-19.5 288,-0.5 152,-0.5"/>
<text text-anchor="middle" x="220" y="-7.5" font-family="Helvetica,sans-Serif" font-size="10.00">HAL_USART_TransmitByte</text>
</a>
</g>
</g>
<!-- Node36&#45;&gt;Node38 -->
<g id="edge2" class="edge"><title>Node36&#45;&gt;Node38</title>
<path fill="none" stroke="midnightblue" d="M116.312,-22.1942C124.561,-21.2146 133.162,-20.1933 141.72,-19.1769"/>
<polygon fill="midnightblue" stroke="midnightblue" points="142.208,-22.6438 151.725,-17.9889 141.382,-15.6926 142.208,-22.6438"/>
</g>
</g>
</svg>
