<?xml version="1.0" encoding="UTF-8" standalone="no"?>
<!DOCTYPE svg PUBLIC "-//W3C//DTD SVG 1.1//EN"
 "http://www.w3.org/Graphics/SVG/1.1/DTD/svg11.dtd">
<!-- Generated by graphviz version 2.38.0 (20140413.2041)
 -->
<!-- Title: HAL_FMC_FlashFunction Pages: 1 -->
<svg width="287pt" height="104pt"
 viewBox="0.00 0.00 287.00 104.00" xmlns="http://www.w3.org/2000/svg" xmlns:xlink="http://www.w3.org/1999/xlink">
<g id="graph0" class="graph" transform="scale(1 1) rotate(0) translate(4 100)">
<title>HAL_FMC_FlashFunction</title>
<polygon fill="white" stroke="none" points="-4,4 -4,-100 283,-100 283,4 -4,4"/>
<!-- Node16 -->
<g id="node1" class="node"><title>Node16</title>
<g id="a_node1"><a xlink:title="Flash Page Erase/Write and Bulk(Chip) Erase.">
<polygon fill="#bfbfbf" stroke="black" points="151,-38.5 151,-57.5 279,-57.5 279,-38.5 151,-38.5"/>
<text text-anchor="middle" x="215" y="-45.5" font-family="Helvetica,sans-Serif" font-size="10.00">HAL_FMC_FlashFunction</text>
</a>
</g>
</g>
<!-- Node17 -->
<g id="node2" class="node"><title>Node17</title>
<g id="a_node2"><a xlink:href="_a31_l12x__hal__fmc_8c.html#afecfcf9e9af4c487d2372387312e5d67" target="_top" xlink:title="Flash Bulk(Chip) Erase Function.">
<polygon fill="white" stroke="black" points="1.5,-76.5 1.5,-95.5 113.5,-95.5 113.5,-76.5 1.5,-76.5"/>
<text text-anchor="middle" x="57.5" y="-83.5" font-family="Helvetica,sans-Serif" font-size="10.00">HAL_FMC_BulkErase</text>
</a>
</g>
</g>
<!-- Node16&#45;&gt;Node17 -->
<g id="edge1" class="edge"><title>Node16&#45;&gt;Node17</title>
<path fill="none" stroke="midnightblue" d="M165.026,-59.968C143.235,-65.2931 117.933,-71.4762 97.457,-76.4799"/>
<polygon fill="midnightblue" stroke="midnightblue" points="165.878,-63.3629 174.761,-57.589 164.216,-56.563 165.878,-63.3629"/>
</g>
<!-- Node18 -->
<g id="node3" class="node"><title>Node18</title>
<g id="a_node3"><a xlink:href="_a31_l12x__hal__fmc_8c.html#acbef36e2ac9437bd006e86722fa51441" target="_top" xlink:title="Flash Page Erase Function.">
<polygon fill="white" stroke="black" points="0,-38.5 0,-57.5 115,-57.5 115,-38.5 0,-38.5"/>
<text text-anchor="middle" x="57.5" y="-45.5" font-family="Helvetica,sans-Serif" font-size="10.00">HAL_FMC_PageErase</text>
</a>
</g>
</g>
<!-- Node16&#45;&gt;Node18 -->
<g id="edge2" class="edge"><title>Node16&#45;&gt;Node18</title>
<path fill="none" stroke="midnightblue" d="M140.736,-48C132.153,-48 123.498,-48 115.189,-48"/>
<polygon fill="midnightblue" stroke="midnightblue" points="140.752,-51.5001 150.752,-48 140.752,-44.5001 140.752,-51.5001"/>
</g>
<!-- Node19 -->
<g id="node4" class="node"><title>Node19</title>
<g id="a_node4"><a xlink:href="_a31_l12x__hal__fmc_8c.html#a713d9e992681eaf9ebfa49287c996af1" target="_top" xlink:title="Flash Page Write Function.">
<polygon fill="white" stroke="black" points="1,-0.5 1,-19.5 114,-19.5 114,-0.5 1,-0.5"/>
<text text-anchor="middle" x="57.5" y="-7.5" font-family="Helvetica,sans-Serif" font-size="10.00">HAL_FMC_PageWrite</text>
</a>
</g>
</g>
<!-- Node16&#45;&gt;Node19 -->
<g id="edge3" class="edge"><title>Node16&#45;&gt;Node19</title>
<path fill="none" stroke="midnightblue" d="M165.026,-36.032C143.235,-30.7069 117.933,-24.5238 97.457,-19.5201"/>
<polygon fill="midnightblue" stroke="midnightblue" points="164.216,-39.437 174.761,-38.411 165.878,-32.6371 164.216,-39.437"/>
</g>
</g>
</svg>
