<?xml version="1.0" encoding="UTF-8" standalone="no"?>
<!DOCTYPE svg PUBLIC "-//W3C//DTD SVG 1.1//EN"
 "http://www.w3.org/Graphics/SVG/1.1/DTD/svg11.dtd">
<!-- Generated by graphviz version 2.38.0 (20140413.2041)
 -->
<!-- Title: HAL_I2C_MasterTransmit_DMA Pages: 1 -->
<svg width="507pt" height="66pt"
 viewBox="0.00 0.00 507.00 66.00" xmlns="http://www.w3.org/2000/svg" xmlns:xlink="http://www.w3.org/1999/xlink">
<g id="graph0" class="graph" transform="scale(1 1) rotate(0) translate(4 62)">
<title>HAL_I2C_MasterTransmit_DMA</title>
<polygon fill="white" stroke="none" points="-4,4 -4,-62 503,-62 503,4 -4,4"/>
<!-- Node45 -->
<g id="node1" class="node"><title>Node45</title>
<g id="a_node1"><a xlink:title="Transmit an array of bytes in Master mode by DMA.">
<polygon fill="#bfbfbf" stroke="black" points="0,-19.5 0,-38.5 155,-38.5 155,-19.5 0,-19.5"/>
<text text-anchor="middle" x="77.5" y="-26.5" font-family="Helvetica,sans-Serif" font-size="10.00">HAL_I2C_MasterTransmit_DMA</text>
</a>
</g>
</g>
<!-- Node46 -->
<g id="node2" class="node"><title>Node46</title>
<g id="a_node2"><a xlink:href="_a31_l12x__hal__i2cn_8c.html#ad81085c9b3265be137e1722e61fa917a" target="_top" xlink:title="Transmit and Receive data in master mode by DMA.">
<polygon fill="white" stroke="black" points="191,-19.5 191,-38.5 363,-38.5 363,-19.5 191,-19.5"/>
<text text-anchor="middle" x="277" y="-26.5" font-family="Helvetica,sans-Serif" font-size="10.00">HAL_I2C_MasterTransferData_DMA</text>
</a>
</g>
</g>
<!-- Node45&#45;&gt;Node46 -->
<g id="edge1" class="edge"><title>Node45&#45;&gt;Node46</title>
<path fill="none" stroke="midnightblue" d="M155.141,-29C163.558,-29 172.201,-29 180.808,-29"/>
<polygon fill="midnightblue" stroke="midnightblue" points="180.879,-32.5001 190.879,-29 180.879,-25.5001 180.879,-32.5001"/>
</g>
<!-- Node47 -->
<g id="node3" class="node"><title>Node47</title>
<g id="a_node3"><a xlink:href="_a31_l12x__hal__dmacn_8h.html#aed27eb8ff1494f44b94c8ed749f6a010" target="_top" xlink:title="Enable the transfer.">
<polygon fill="white" stroke="black" points="399,-38.5 399,-57.5 499,-57.5 499,-38.5 399,-38.5"/>
<text text-anchor="middle" x="449" y="-45.5" font-family="Helvetica,sans-Serif" font-size="10.00">HAL_DMAC_Setup</text>
</a>
</g>
</g>
<!-- Node46&#45;&gt;Node47 -->
<g id="edge2" class="edge"><title>Node46&#45;&gt;Node47</title>
<path fill="none" stroke="midnightblue" d="M363.498,-38.5557C371.986,-39.5043 380.467,-40.4522 388.603,-41.3615"/>
<polygon fill="midnightblue" stroke="midnightblue" points="388.372,-44.8574 398.699,-42.4899 389.149,-37.9007 388.372,-44.8574"/>
</g>
<!-- Node48 -->
<g id="node4" class="node"><title>Node48</title>
<g id="a_node4"><a xlink:href="_a31_l12x__hal__i2cn_8c.html#a4a2199129f04199e68f6f52bdaefcbdb" target="_top" xlink:title="wait and return status in master mode">
<polygon fill="white" stroke="black" points="414,-0.5 414,-19.5 484,-19.5 484,-0.5 414,-0.5"/>
<text text-anchor="middle" x="449" y="-7.5" font-family="Helvetica,sans-Serif" font-size="10.00">I2Cn_MWait</text>
</a>
</g>
</g>
<!-- Node46&#45;&gt;Node48 -->
<g id="edge3" class="edge"><title>Node46&#45;&gt;Node48</title>
<path fill="none" stroke="midnightblue" d="M363.498,-19.4443C377.451,-17.8849 391.385,-16.3275 403.798,-14.9402"/>
<polygon fill="midnightblue" stroke="midnightblue" points="404.285,-18.4077 413.834,-13.8185 403.507,-11.451 404.285,-18.4077"/>
</g>
</g>
</svg>
