<?xml version="1.0" encoding="UTF-8" standalone="no"?>
<!DOCTYPE svg PUBLIC "-//W3C//DTD SVG 1.1//EN"
 "http://www.w3.org/Graphics/SVG/1.1/DTD/svg11.dtd">
<!-- Generated by graphviz version 2.38.0 (20140413.2041)
 -->
<!-- Title: HAL_LPUART_ReceiveByte Pages: 1 -->
<svg width="298pt" height="66pt"
 viewBox="0.00 0.00 298.00 66.00" xmlns="http://www.w3.org/2000/svg" xmlns:xlink="http://www.w3.org/1999/xlink">
<g id="graph0" class="graph" transform="scale(1 1) rotate(0) translate(4 62)">
<title>HAL_LPUART_ReceiveByte</title>
<polygon fill="white" stroke="none" points="-4,4 -4,-62 294,-62 294,4 -4,4"/>
<!-- Node27 -->
<g id="node1" class="node"><title>Node27</title>
<g id="a_node1"><a xlink:title="Receive a single data from USART peripheral.">
<polygon fill="#bfbfbf" stroke="black" points="153,-19.5 153,-38.5 290,-38.5 290,-19.5 153,-19.5"/>
<text text-anchor="middle" x="221.5" y="-26.5" font-family="Helvetica,sans-Serif" font-size="10.00">HAL_LPUART_ReceiveByte</text>
</a>
</g>
</g>
<!-- Node28 -->
<g id="node2" class="node"><title>Node28</title>
<g id="a_node2"><a xlink:href="_a31_l12x__hal__lpuart_8c.html#a4842723facd9651d1445256c52d0df7f" target="_top" xlink:title="Initialize the LPUART peripheral with the specified parameters.">
<polygon fill="white" stroke="black" points="10.5,-38.5 10.5,-57.5 106.5,-57.5 106.5,-38.5 10.5,-38.5"/>
<text text-anchor="middle" x="58.5" y="-45.5" font-family="Helvetica,sans-Serif" font-size="10.00">HAL_LPUART_Init</text>
</a>
</g>
</g>
<!-- Node27&#45;&gt;Node28 -->
<g id="edge1" class="edge"><title>Node27&#45;&gt;Node28</title>
<path fill="none" stroke="midnightblue" d="M142.469,-38.2086C130.254,-39.6502 117.962,-41.1008 106.721,-42.4274"/>
<polygon fill="midnightblue" stroke="midnightblue" points="143.167,-41.6506 152.688,-37.0026 142.347,-34.6988 143.167,-41.6506"/>
</g>
<!-- Node29 -->
<g id="node3" class="node"><title>Node29</title>
<g id="a_node3"><a xlink:href="_a31_l12x__hal__lpuart_8c.html#ac4179d5e7ff56784fc3141f42a6425cd" target="_top" xlink:title="Receive a block of data via LPUART peripheral.">
<polygon fill="white" stroke="black" points="0,-0.5 0,-19.5 117,-19.5 117,-0.5 0,-0.5"/>
<text text-anchor="middle" x="58.5" y="-7.5" font-family="Helvetica,sans-Serif" font-size="10.00">HAL_LPUART_Receive</text>
</a>
</g>
</g>
<!-- Node27&#45;&gt;Node29 -->
<g id="edge2" class="edge"><title>Node27&#45;&gt;Node29</title>
<path fill="none" stroke="midnightblue" d="M142.616,-19.8087C134,-18.7919 125.344,-17.7705 117.044,-16.7909"/>
<polygon fill="midnightblue" stroke="midnightblue" points="142.347,-23.3012 152.688,-20.9974 143.167,-16.3494 142.347,-23.3012"/>
</g>
</g>
</svg>
