<?xml version="1.0" encoding="UTF-8" standalone="no"?>
<!DOCTYPE svg PUBLIC "-//W3C//DTD SVG 1.1//EN"
 "http://www.w3.org/Graphics/SVG/1.1/DTD/svg11.dtd">
<!-- Generated by graphviz version 2.38.0 (20140413.2041)
 -->
<!-- Title: HAL_USART_Init Pages: 1 -->
<svg width="267pt" height="203pt"
 viewBox="0.00 0.00 267.00 202.50" xmlns="http://www.w3.org/2000/svg" xmlns:xlink="http://www.w3.org/1999/xlink">
<g id="graph0" class="graph" transform="scale(1 1) rotate(0) translate(4 198.5)">
<title>HAL_USART_Init</title>
<polygon fill="white" stroke="none" points="-4,4 -4,-198.5 263,-198.5 263,4 -4,4"/>
<!-- Node20 -->
<g id="node1" class="node"><title>Node20</title>
<g id="a_node1"><a xlink:title="Initialize the USART1n peripheral with the specified parameters.">
<polygon fill="#bfbfbf" stroke="black" points="0,-76.5 0,-95.5 91,-95.5 91,-76.5 0,-76.5"/>
<text text-anchor="middle" x="45.5" y="-83.5" font-family="Helvetica,sans-Serif" font-size="10.00">HAL_USART_Init</text>
</a>
</g>
</g>
<!-- Node21 -->
<g id="node2" class="node"><title>Node21</title>
<g id="a_node2"><a xlink:href="_a31_l12x__hal__scu_8h.html#a7d0a497cdf6bc58ed14a54aed75a04ec" target="_top" xlink:title="Set Each Peripheral Clock.">
<polygon fill="white" stroke="black" points="138,-164 138,-194 248,-194 248,-164 138,-164"/>
<text text-anchor="start" x="146" y="-182" font-family="Helvetica,sans-Serif" font-size="10.00">HAL_SCU_Peripheral</text>
<text text-anchor="middle" x="193" y="-171" font-family="Helvetica,sans-Serif" font-size="10.00">_EnableClock2</text>
</a>
</g>
</g>
<!-- Node20&#45;&gt;Node21 -->
<g id="edge1" class="edge"><title>Node20&#45;&gt;Node21</title>
<path fill="none" stroke="midnightblue" d="M55.5497,-95.7094C69.6135,-110.315 98.1149,-138.031 127,-155 129.8,-156.645 132.733,-158.21 135.739,-159.694"/>
<polygon fill="midnightblue" stroke="midnightblue" points="134.369,-162.916 144.918,-163.899 137.284,-156.552 134.369,-162.916"/>
</g>
<!-- Node22 -->
<g id="node3" class="node"><title>Node22</title>
<g id="a_node3"><a xlink:href="_a31_l12x__hal__scu_8h.html#a86f85811c7a32616b6f21328fa2d868f" target="_top" xlink:title="Set/Reset Each Peripheral Block Reset of PPRST2 Register.">
<polygon fill="white" stroke="black" points="138,-115 138,-145 248,-145 248,-115 138,-115"/>
<text text-anchor="start" x="146" y="-133" font-family="Helvetica,sans-Serif" font-size="10.00">HAL_SCU_Peripheral</text>
<text text-anchor="middle" x="193" y="-122" font-family="Helvetica,sans-Serif" font-size="10.00">_SetReset2</text>
</a>
</g>
</g>
<!-- Node20&#45;&gt;Node22 -->
<g id="edge2" class="edge"><title>Node20&#45;&gt;Node22</title>
<path fill="none" stroke="midnightblue" d="M78.0713,-95.5473C94.0141,-100.369 113.891,-106.379 132.558,-112.024"/>
<polygon fill="midnightblue" stroke="midnightblue" points="131.597,-115.39 142.182,-114.935 133.623,-108.69 131.597,-115.39"/>
</g>
<!-- Node23 -->
<g id="node4" class="node"><title>Node23</title>
<g id="a_node4"><a xlink:href="_a31_l12x__hal__usart1n_8c.html#a681990d5d29756daab5623c2174312a3" target="_top" xlink:title="Clear Status register in USART peripheral.">
<polygon fill="white" stroke="black" points="128.5,-76.5 128.5,-95.5 257.5,-95.5 257.5,-76.5 128.5,-76.5"/>
<text text-anchor="middle" x="193" y="-83.5" font-family="Helvetica,sans-Serif" font-size="10.00">HAL_USART_ClearStatus</text>
</a>
</g>
</g>
<!-- Node20&#45;&gt;Node23 -->
<g id="edge3" class="edge"><title>Node20&#45;&gt;Node23</title>
<path fill="none" stroke="midnightblue" d="M91.342,-86C99.8354,-86 108.927,-86 118.044,-86"/>
<polygon fill="midnightblue" stroke="midnightblue" points="118.317,-89.5001 128.317,-86 118.317,-82.5001 118.317,-89.5001"/>
</g>
<!-- Node24 -->
<g id="node5" class="node"><title>Node24</title>
<g id="a_node5"><a xlink:href="_a31_l12x__hal__usart1n_8c.html#a9b721e5c333cc14936939abebd9e88ea" target="_top" xlink:title="Receive a single data from USART peripheral.">
<polygon fill="white" stroke="black" points="127,-38.5 127,-57.5 259,-57.5 259,-38.5 127,-38.5"/>
<text text-anchor="middle" x="193" y="-45.5" font-family="Helvetica,sans-Serif" font-size="10.00">HAL_USART_ReceiveByte</text>
</a>
</g>
</g>
<!-- Node20&#45;&gt;Node24 -->
<g id="edge4" class="edge"><title>Node20&#45;&gt;Node24</title>
<path fill="none" stroke="midnightblue" d="M83.2158,-76.411C102.157,-71.4642 125.457,-65.3789 145.629,-60.1108"/>
<polygon fill="midnightblue" stroke="midnightblue" points="146.757,-63.4335 155.548,-57.5201 144.988,-56.6606 146.757,-63.4335"/>
</g>
<!-- Node25 -->
<g id="node6" class="node"><title>Node25</title>
<g id="a_node6"><a xlink:href="_a31_l12x__hal__usart1n_8c.html#a208e897ee9cfa68e0e5feacdfc967555" target="_top" xlink:title="Determines best dividers to get a target clock rate.">
<polygon fill="white" stroke="black" points="145.5,-0.5 145.5,-19.5 240.5,-19.5 240.5,-0.5 145.5,-0.5"/>
<text text-anchor="middle" x="193" y="-7.5" font-family="Helvetica,sans-Serif" font-size="10.00">usart_set_divisors</text>
</a>
</g>
</g>
<!-- Node20&#45;&gt;Node25 -->
<g id="edge5" class="edge"><title>Node20&#45;&gt;Node25</title>
<path fill="none" stroke="midnightblue" d="M57.4739,-76.4088C72.3083,-63.8892 100.019,-42.0418 127,-29 131.709,-26.7239 136.744,-24.6652 141.849,-22.8169"/>
<polygon fill="midnightblue" stroke="midnightblue" points="143.318,-26.0162 151.688,-19.5203 141.094,-19.3789 143.318,-26.0162"/>
</g>
</g>
</svg>
