<?xml version="1.0" encoding="UTF-8" standalone="no"?>
<!DOCTYPE svg PUBLIC "-//W3C//DTD SVG 1.1//EN"
 "http://www.w3.org/Graphics/SVG/1.1/DTD/svg11.dtd">
<!-- Generated by graphviz version 2.38.0 (20140413.2041)
 -->
<!-- Title: HAL_UART_ReceiveByte Pages: 1 -->
<svg width="519pt" height="66pt"
 viewBox="0.00 0.00 519.00 66.00" xmlns="http://www.w3.org/2000/svg" xmlns:xlink="http://www.w3.org/1999/xlink">
<g id="graph0" class="graph" transform="scale(1 1) rotate(0) translate(4 62)">
<title>HAL_UART_ReceiveByte</title>
<polygon fill="white" stroke="none" points="-4,4 -4,-62 515,-62 515,4 -4,4"/>
<!-- Node32 -->
<g id="node1" class="node"><title>Node32</title>
<g id="a_node1"><a xlink:title="Receive a single data from UART peripheral.">
<polygon fill="#bfbfbf" stroke="black" points="386,-19.5 386,-38.5 511,-38.5 511,-19.5 386,-19.5"/>
<text text-anchor="middle" x="448.5" y="-26.5" font-family="Helvetica,sans-Serif" font-size="10.00">HAL_UART_ReceiveByte</text>
</a>
</g>
</g>
<!-- Node33 -->
<g id="node2" class="node"><title>Node33</title>
<g id="a_node2"><a xlink:href="_a31_l12x__hal__uartn_8c.html#acc979b053c6e3a4fd224714df511b4f5" target="_top" xlink:title="Receive a block of data via UART peripheral.">
<polygon fill="white" stroke="black" points="245,-38.5 245,-57.5 350,-57.5 350,-38.5 245,-38.5"/>
<text text-anchor="middle" x="297.5" y="-45.5" font-family="Helvetica,sans-Serif" font-size="10.00">HAL_UART_Receive</text>
</a>
</g>
</g>
<!-- Node32&#45;&gt;Node33 -->
<g id="edge1" class="edge"><title>Node32&#45;&gt;Node33</title>
<path fill="none" stroke="midnightblue" d="M375.544,-38.1755C366.933,-39.2736 358.276,-40.3775 350.035,-41.4284"/>
<polygon fill="midnightblue" stroke="midnightblue" points="376.128,-41.6295 385.605,-36.8926 375.243,-34.6858 376.128,-41.6295"/>
</g>
<!-- Node37 -->
<g id="node6" class="node"><title>Node37</title>
<g id="a_node6"><a xlink:href="_a31_l12x__hal__debug__frmwrk_8c.html#a6022e022519aa6bd27a43165ae705674" target="_top" xlink:title="Get a character to UART port.">
<polygon fill="white" stroke="black" points="135,-0.5 135,-19.5 205,-19.5 205,-0.5 135,-0.5"/>
<text text-anchor="middle" x="170" y="-7.5" font-family="Helvetica,sans-Serif" font-size="10.00">UARTGetCh</text>
</a>
</g>
</g>
<!-- Node32&#45;&gt;Node37 -->
<g id="edge5" class="edge"><title>Node32&#45;&gt;Node37</title>
<path fill="none" stroke="midnightblue" d="M375.763,-24.0705C320.84,-20.2964 247.531,-15.2589 205.172,-12.3482"/>
<polygon fill="midnightblue" stroke="midnightblue" points="375.576,-27.5658 385.792,-24.7597 376.056,-20.5823 375.576,-27.5658"/>
</g>
<!-- Node34 -->
<g id="node3" class="node"><title>Node34</title>
<g id="a_node3"><a xlink:href="_a31_l12x__hal__debug__frmwrk_8c.html#ab5682425a8b9f9fd4290e303f3fd500b" target="_top" xlink:title="Get a character to UART port.">
<polygon fill="white" stroke="black" points="131,-38.5 131,-57.5 209,-57.5 209,-38.5 131,-38.5"/>
<text text-anchor="middle" x="170" y="-45.5" font-family="Helvetica,sans-Serif" font-size="10.00">UARTGetChar</text>
</a>
</g>
</g>
<!-- Node33&#45;&gt;Node34 -->
<g id="edge2" class="edge"><title>Node33&#45;&gt;Node34</title>
<path fill="none" stroke="midnightblue" d="M234.614,-48C225.954,-48 217.273,-48 209.229,-48"/>
<polygon fill="midnightblue" stroke="midnightblue" points="234.73,-51.5001 244.73,-48 234.73,-44.5001 234.73,-51.5001"/>
</g>
<!-- Node35 -->
<g id="node4" class="node"><title>Node35</title>
<g id="a_node4"><a xlink:href="_a31_l12x__hal__debug__frmwrk_8c.html#aa79ebfdcc65f8acaa847e9deaecea5a0" target="_top" xlink:title="Initializes Debug Framework through initializing UARTn.">
<polygon fill="white" stroke="black" points="0,-0.5 0,-19.5 95,-19.5 95,-0.5 0,-0.5"/>
<text text-anchor="middle" x="47.5" y="-7.5" font-family="Helvetica,sans-Serif" font-size="10.00">debug_frmwrk_init</text>
</a>
</g>
</g>
<!-- Node34&#45;&gt;Node35 -->
<g id="edge3" class="edge"><title>Node34&#45;&gt;Node35</title>
<path fill="none" stroke="midnightblue" d="M128.79,-35.3196C112.508,-30.1852 94.0233,-24.3559 78.8975,-19.5859"/>
<polygon fill="midnightblue" stroke="midnightblue" points="128.003,-38.7414 138.593,-38.411 130.108,-32.0654 128.003,-38.7414"/>
</g>
<!-- Node36 -->
<g id="node5" class="node"><title>Node36</title>
<g id="a_node5"><a xlink:href="_a31_l12x__hal__debug__frmwrk_8c.html#a715f28fa289a7cef9f522fab87a552f6" target="_top" xlink:title="Get a character to UART port.">
<polygon fill="white" stroke="black" points="20.5,-38.5 20.5,-57.5 74.5,-57.5 74.5,-38.5 20.5,-38.5"/>
<text text-anchor="middle" x="47.5" y="-45.5" font-family="Helvetica,sans-Serif" font-size="10.00">getstring</text>
</a>
</g>
</g>
<!-- Node34&#45;&gt;Node36 -->
<g id="edge4" class="edge"><title>Node34&#45;&gt;Node36</title>
<path fill="none" stroke="midnightblue" d="M120.726,-48C104.963,-48 88.0606,-48 74.5725,-48"/>
<polygon fill="midnightblue" stroke="midnightblue" points="120.873,-51.5001 130.873,-48 120.873,-44.5001 120.873,-51.5001"/>
</g>
<!-- Node37&#45;&gt;Node35 -->
<g id="edge6" class="edge"><title>Node37&#45;&gt;Node35</title>
<path fill="none" stroke="midnightblue" d="M124.707,-10C115.159,-10 105.034,-10 95.3903,-10"/>
<polygon fill="midnightblue" stroke="midnightblue" points="124.792,-13.5001 134.792,-10 124.792,-6.5001 124.792,-13.5001"/>
</g>
</g>
</svg>
