<?xml version="1.0" encoding="UTF-8" standalone="no"?>
<!DOCTYPE svg PUBLIC "-//W3C//DTD SVG 1.1//EN"
 "http://www.w3.org/Graphics/SVG/1.1/DTD/svg11.dtd">
<!-- Generated by graphviz version 2.38.0 (20140413.2041)
 -->
<!-- Title: UARTPuts_ Pages: 1 -->
<svg width="597pt" height="28pt"
 viewBox="0.00 0.00 597.00 28.00" xmlns="http://www.w3.org/2000/svg" xmlns:xlink="http://www.w3.org/1999/xlink">
<g id="graph0" class="graph" transform="scale(1 1) rotate(0) translate(4 24)">
<title>UARTPuts_</title>
<polygon fill="white" stroke="none" points="-4,4 -4,-24 593,-24 593,4 -4,4"/>
<!-- Node104 -->
<g id="node1" class="node"><title>Node104</title>
<g id="a_node1"><a xlink:title="Puts a string to UART port and print new line.">
<polygon fill="#bfbfbf" stroke="black" points="0,-0.5 0,-19.5 68,-19.5 68,-0.5 0,-0.5"/>
<text text-anchor="middle" x="34" y="-7.5" font-family="Helvetica,sans-Serif" font-size="10.00">UARTPuts_</text>
</a>
</g>
</g>
<!-- Node105 -->
<g id="node2" class="node"><title>Node105</title>
<g id="a_node2"><a xlink:href="_a31_l12x__hal__debug__frmwrk_8c.html#afb44a3a4c42d7f28a82882213d38a0b9" target="_top" xlink:title="Puts a string to UART port.">
<polygon fill="white" stroke="black" points="104,-0.5 104,-19.5 166,-19.5 166,-0.5 104,-0.5"/>
<text text-anchor="middle" x="135" y="-7.5" font-family="Helvetica,sans-Serif" font-size="10.00">UARTPuts</text>
</a>
</g>
</g>
<!-- Node104&#45;&gt;Node105 -->
<g id="edge1" class="edge"><title>Node104&#45;&gt;Node105</title>
<path fill="none" stroke="midnightblue" d="M68.241,-10C76.3878,-10 85.1956,-10 93.6363,-10"/>
<polygon fill="midnightblue" stroke="midnightblue" points="93.6809,-13.5001 103.681,-10 93.6808,-6.5001 93.6809,-13.5001"/>
</g>
<!-- Node106 -->
<g id="node3" class="node"><title>Node106</title>
<g id="a_node3"><a xlink:href="_a31_l12x__hal__debug__frmwrk_8c.html#a7e7f61fa79d52e2ba38085032eab8f5f" target="_top" xlink:title="Puts a character to UART port.">
<polygon fill="white" stroke="black" points="202,-0.5 202,-19.5 279,-19.5 279,-0.5 202,-0.5"/>
<text text-anchor="middle" x="240.5" y="-7.5" font-family="Helvetica,sans-Serif" font-size="10.00">UARTPutChar</text>
</a>
</g>
</g>
<!-- Node105&#45;&gt;Node106 -->
<g id="edge2" class="edge"><title>Node105&#45;&gt;Node106</title>
<path fill="none" stroke="midnightblue" d="M166.215,-10C174.191,-10 182.999,-10 191.66,-10"/>
<polygon fill="midnightblue" stroke="midnightblue" points="191.701,-13.5001 201.701,-10 191.7,-6.5001 191.701,-13.5001"/>
</g>
<!-- Node107 -->
<g id="node4" class="node"><title>Node107</title>
<g id="a_node4"><a xlink:href="_a31_l12x__hal__uartn_8h.html#ab1488eccbac797387079ab39be51ac38" target="_top" xlink:title="Send a block of data via UART peripheral.">
<polygon fill="white" stroke="black" points="315,-0.5 315,-19.5 424,-19.5 424,-0.5 315,-0.5"/>
<text text-anchor="middle" x="369.5" y="-7.5" font-family="Helvetica,sans-Serif" font-size="10.00">HAL_UART_Transmit</text>
</a>
</g>
</g>
<!-- Node106&#45;&gt;Node107 -->
<g id="edge3" class="edge"><title>Node106&#45;&gt;Node107</title>
<path fill="none" stroke="midnightblue" d="M279.26,-10C287.248,-10 295.891,-10 304.544,-10"/>
<polygon fill="midnightblue" stroke="midnightblue" points="304.669,-13.5001 314.669,-10 304.669,-6.5001 304.669,-13.5001"/>
</g>
<!-- Node108 -->
<g id="node5" class="node"><title>Node108</title>
<g id="a_node5"><a xlink:href="_a31_l12x__hal__uartn_8c.html#aa7dfea0108c5ea92d4bc9f5c79ef9e4d" target="_top" xlink:title="Transmit a single data through UART peripheral.">
<polygon fill="white" stroke="black" points="460,-0.5 460,-19.5 589,-19.5 589,-0.5 460,-0.5"/>
<text text-anchor="middle" x="524.5" y="-7.5" font-family="Helvetica,sans-Serif" font-size="10.00">HAL_UART_TransmitByte</text>
</a>
</g>
</g>
<!-- Node107&#45;&gt;Node108 -->
<g id="edge4" class="edge"><title>Node107&#45;&gt;Node108</title>
<path fill="none" stroke="midnightblue" d="M424.012,-10C432.312,-10 441.009,-10 449.661,-10"/>
<polygon fill="midnightblue" stroke="midnightblue" points="449.771,-13.5001 459.771,-10 449.771,-6.5001 449.771,-13.5001"/>
</g>
</g>
</svg>
