<?xml version="1.0" encoding="UTF-8" standalone="no"?>
<!DOCTYPE svg PUBLIC "-//W3C//DTD SVG 1.1//EN"
 "http://www.w3.org/Graphics/SVG/1.1/DTD/svg11.dtd">
<!-- Generated by graphviz version 2.38.0 (20140413.2041)
 -->
<!-- Title: HAL_SC_ClearStatus Pages: 1 -->
<svg width="251pt" height="66pt"
 viewBox="0.00 0.00 251.00 66.00" xmlns="http://www.w3.org/2000/svg" xmlns:xlink="http://www.w3.org/1999/xlink">
<g id="graph0" class="graph" transform="scale(1 1) rotate(0) translate(4 62)">
<title>HAL_SC_ClearStatus</title>
<polygon fill="white" stroke="none" points="-4,4 -4,-62 247,-62 247,4 -4,4"/>
<!-- Node11 -->
<g id="node1" class="node"><title>Node11</title>
<g id="a_node1"><a xlink:title="Clear Status register in SCn peripheral.">
<polygon fill="#bfbfbf" stroke="black" points="133,-19.5 133,-38.5 243,-38.5 243,-19.5 133,-19.5"/>
<text text-anchor="middle" x="188" y="-26.5" font-family="Helvetica,sans-Serif" font-size="10.00">HAL_SC_ClearStatus</text>
</a>
</g>
</g>
<!-- Node12 -->
<g id="node2" class="node"><title>Node12</title>
<g id="a_node2"><a xlink:href="_a31_l12x__hal__scn_8c.html#ab3874bdeb76d2ee4368e18e8bcb2816f" target="_top" xlink:title="Initialize the SCn peripheral with the specified parameters.">
<polygon fill="white" stroke="black" points="12.5,-38.5 12.5,-57.5 84.5,-57.5 84.5,-38.5 12.5,-38.5"/>
<text text-anchor="middle" x="48.5" y="-45.5" font-family="Helvetica,sans-Serif" font-size="10.00">HAL_SC_Init</text>
</a>
</g>
</g>
<!-- Node11&#45;&gt;Node12 -->
<g id="edge1" class="edge"><title>Node11&#45;&gt;Node12</title>
<path fill="none" stroke="midnightblue" d="M122.379,-37.9294C109.469,-39.7134 96.3632,-41.5244 84.8929,-43.1093"/>
<polygon fill="midnightblue" stroke="midnightblue" points="123.23,-41.3453 132.656,-36.5093 122.271,-34.4111 123.23,-41.3453"/>
</g>
<!-- Node13 -->
<g id="node3" class="node"><title>Node13</title>
<g id="a_node3"><a xlink:href="_a31_l12x__hal__scn_8c.html#acea8f8dcab4b5e8e65588666a1b0f482" target="_top" xlink:title="Send a block of data via SCn peripheral.">
<polygon fill="white" stroke="black" points="0,-0.5 0,-19.5 97,-19.5 97,-0.5 0,-0.5"/>
<text text-anchor="middle" x="48.5" y="-7.5" font-family="Helvetica,sans-Serif" font-size="10.00">HAL_SC_Transmit</text>
</a>
</g>
</g>
<!-- Node11&#45;&gt;Node13 -->
<g id="edge2" class="edge"><title>Node11&#45;&gt;Node13</title>
<path fill="none" stroke="midnightblue" d="M122.669,-20.1107C114.099,-18.9264 105.436,-17.7293 97.217,-16.5936"/>
<polygon fill="midnightblue" stroke="midnightblue" points="122.271,-23.5889 132.656,-21.4907 123.23,-16.6547 122.271,-23.5889"/>
</g>
</g>
</svg>
