<?xml version="1.0" encoding="UTF-8" standalone="no"?>
<!DOCTYPE svg PUBLIC "-//W3C//DTD SVG 1.1//EN"
 "http://www.w3.org/Graphics/SVG/1.1/DTD/svg11.dtd">
<!-- Generated by graphviz version 2.38.0 (20140413.2041)
 -->
<!-- Title: HAL_USART_DeInit Pages: 1 -->
<svg width="257pt" height="88pt"
 viewBox="0.00 0.00 257.00 88.00" xmlns="http://www.w3.org/2000/svg" xmlns:xlink="http://www.w3.org/1999/xlink">
<g id="graph0" class="graph" transform="scale(1 1) rotate(0) translate(4 84)">
<title>HAL_USART_DeInit</title>
<polygon fill="white" stroke="none" points="-4,4 -4,-84 253,-84 253,4 -4,4"/>
<!-- Node10 -->
<g id="node1" class="node"><title>Node10</title>
<g id="a_node1"><a xlink:title="Deinitialize the USART1n peripheral registers to their default reset values.">
<polygon fill="#bfbfbf" stroke="black" points="0,-30 0,-49 103,-49 103,-30 0,-30"/>
<text text-anchor="middle" x="51.5" y="-37" font-family="Helvetica,sans-Serif" font-size="10.00">HAL_USART_DeInit</text>
</a>
</g>
</g>
<!-- Node11 -->
<g id="node2" class="node"><title>Node11</title>
<g id="a_node2"><a xlink:href="_a31_l12x__hal__scu_8h.html#a7d0a497cdf6bc58ed14a54aed75a04ec" target="_top" xlink:title="Set Each Peripheral Clock.">
<polygon fill="white" stroke="black" points="139,-49.5 139,-79.5 249,-79.5 249,-49.5 139,-49.5"/>
<text text-anchor="start" x="147" y="-67.5" font-family="Helvetica,sans-Serif" font-size="10.00">HAL_SCU_Peripheral</text>
<text text-anchor="middle" x="194" y="-56.5" font-family="Helvetica,sans-Serif" font-size="10.00">_EnableClock2</text>
</a>
</g>
</g>
<!-- Node10&#45;&gt;Node11 -->
<g id="edge1" class="edge"><title>Node10&#45;&gt;Node11</title>
<path fill="none" stroke="midnightblue" d="M103.224,-48.5256C111.472,-49.9933 120.111,-51.5304 128.633,-53.0468"/>
<polygon fill="midnightblue" stroke="midnightblue" points="128.095,-56.5059 138.553,-54.812 129.321,-49.6142 128.095,-56.5059"/>
</g>
<!-- Node12 -->
<g id="node3" class="node"><title>Node12</title>
<g id="a_node3"><a xlink:href="_a31_l12x__hal__scu_8h.html#a86f85811c7a32616b6f21328fa2d868f" target="_top" xlink:title="Set/Reset Each Peripheral Block Reset of PPRST2 Register.">
<polygon fill="white" stroke="black" points="139,-0.5 139,-30.5 249,-30.5 249,-0.5 139,-0.5"/>
<text text-anchor="start" x="147" y="-18.5" font-family="Helvetica,sans-Serif" font-size="10.00">HAL_SCU_Peripheral</text>
<text text-anchor="middle" x="194" y="-7.5" font-family="Helvetica,sans-Serif" font-size="10.00">_SetReset2</text>
</a>
</g>
</g>
<!-- Node10&#45;&gt;Node12 -->
<g id="edge2" class="edge"><title>Node10&#45;&gt;Node12</title>
<path fill="none" stroke="midnightblue" d="M103.224,-30.8354C111.472,-29.4265 120.111,-27.9509 128.633,-26.4951"/>
<polygon fill="midnightblue" stroke="midnightblue" points="129.285,-29.9344 138.553,-24.8005 128.107,-23.0343 129.285,-29.9344"/>
</g>
</g>
</svg>
