<?xml version="1.0" encoding="UTF-8" standalone="no"?>
<!DOCTYPE svg PUBLIC "-//W3C//DTD SVG 1.1//EN"
 "http://www.w3.org/Graphics/SVG/1.1/DTD/svg11.dtd">
<!-- Generated by graphviz version 2.38.0 (20140413.2041)
 -->
<!-- Title: HAL_DMAC_Setup Pages: 1 -->
<svg width="507pt" height="66pt"
 viewBox="0.00 0.00 507.00 66.00" xmlns="http://www.w3.org/2000/svg" xmlns:xlink="http://www.w3.org/1999/xlink">
<g id="graph0" class="graph" transform="scale(1 1) rotate(0) translate(4 62)">
<title>HAL_DMAC_Setup</title>
<polygon fill="white" stroke="none" points="-4,4 -4,-62 503,-62 503,4 -4,4"/>
<!-- Node5 -->
<g id="node1" class="node"><title>Node5</title>
<g id="a_node1"><a xlink:title="Enable the transfer.">
<polygon fill="#bfbfbf" stroke="black" points="399,-19.5 399,-38.5 499,-38.5 499,-19.5 399,-19.5"/>
<text text-anchor="middle" x="449" y="-26.5" font-family="Helvetica,sans-Serif" font-size="10.00">HAL_DMAC_Setup</text>
</a>
</g>
</g>
<!-- Node6 -->
<g id="node2" class="node"><title>Node6</title>
<g id="a_node2"><a xlink:href="_a31_l12x__hal__i2cn_8c.html#ad81085c9b3265be137e1722e61fa917a" target="_top" xlink:title="Transmit and Receive data in master mode by DMA.">
<polygon fill="white" stroke="black" points="191,-38.5 191,-57.5 363,-57.5 363,-38.5 191,-38.5"/>
<text text-anchor="middle" x="277" y="-45.5" font-family="Helvetica,sans-Serif" font-size="10.00">HAL_I2C_MasterTransferData_DMA</text>
</a>
</g>
</g>
<!-- Node5&#45;&gt;Node6 -->
<g id="edge1" class="edge"><title>Node5&#45;&gt;Node6</title>
<path fill="none" stroke="midnightblue" d="M388.631,-35.6353C380.411,-36.5541 371.838,-37.5123 363.261,-38.4709"/>
<polygon fill="midnightblue" stroke="midnightblue" points="389.28,-39.0847 398.829,-34.4956 388.502,-32.1281 389.28,-39.0847"/>
</g>
<!-- Node8 -->
<g id="node4" class="node"><title>Node8</title>
<g id="a_node4"><a xlink:href="_a31_l12x__hal__i2cn_8c.html#a93b983df75e1ac7e2870e55b918d9f30" target="_top" xlink:title="Receive and Transmit data in slave mode by DMA.">
<polygon fill="white" stroke="black" points="194.5,-0.5 194.5,-19.5 359.5,-19.5 359.5,-0.5 194.5,-0.5"/>
<text text-anchor="middle" x="277" y="-7.5" font-family="Helvetica,sans-Serif" font-size="10.00">HAL_I2C_SlaveTransferData_DMA</text>
</a>
</g>
</g>
<!-- Node5&#45;&gt;Node8 -->
<g id="edge3" class="edge"><title>Node5&#45;&gt;Node8</title>
<path fill="none" stroke="midnightblue" d="M388.828,-22.3867C379.421,-21.3352 369.546,-20.2317 359.73,-19.1346"/>
<polygon fill="midnightblue" stroke="midnightblue" points="388.502,-25.8719 398.829,-23.5044 389.28,-18.9153 388.502,-25.8719"/>
</g>
<!-- Node7 -->
<g id="node3" class="node"><title>Node7</title>
<g id="a_node3"><a xlink:href="_a31_l12x__hal__i2cn_8c.html#aa01b5aa29e7cad2ecee3cae85ba37a63" target="_top" xlink:title="Transmit an array of bytes in Master mode by DMA.">
<polygon fill="white" stroke="black" points="0,-38.5 0,-57.5 155,-57.5 155,-38.5 0,-38.5"/>
<text text-anchor="middle" x="77.5" y="-45.5" font-family="Helvetica,sans-Serif" font-size="10.00">HAL_I2C_MasterTransmit_DMA</text>
</a>
</g>
</g>
<!-- Node6&#45;&gt;Node7 -->
<g id="edge2" class="edge"><title>Node6&#45;&gt;Node7</title>
<path fill="none" stroke="midnightblue" d="M180.719,-48C172.097,-48 163.439,-48 155.01,-48"/>
<polygon fill="midnightblue" stroke="midnightblue" points="180.809,-51.5001 190.809,-48 180.809,-44.5001 180.809,-51.5001"/>
</g>
<!-- Node9 -->
<g id="node5" class="node"><title>Node9</title>
<g id="a_node5"><a xlink:href="_a31_l12x__hal__i2cn_8c.html#af102bb04f3bcef61569512085f8848d1" target="_top" xlink:title="Receive an array of bytes in Slave mode by DMA.">
<polygon fill="white" stroke="black" points="5.5,-0.5 5.5,-19.5 149.5,-19.5 149.5,-0.5 5.5,-0.5"/>
<text text-anchor="middle" x="77.5" y="-7.5" font-family="Helvetica,sans-Serif" font-size="10.00">HAL_I2C_SlaveReceive_DMA</text>
</a>
</g>
</g>
<!-- Node8&#45;&gt;Node9 -->
<g id="edge4" class="edge"><title>Node8&#45;&gt;Node9</title>
<path fill="none" stroke="midnightblue" d="M184.153,-10C172.616,-10 160.953,-10 149.797,-10"/>
<polygon fill="midnightblue" stroke="midnightblue" points="184.244,-13.5001 194.244,-10 184.244,-6.5001 184.244,-13.5001"/>
</g>
</g>
</svg>
