<?xml version="1.0" encoding="UTF-8" standalone="no"?>
<!DOCTYPE svg PUBLIC "-//W3C//DTD SVG 1.1//EN"
 "http://www.w3.org/Graphics/SVG/1.1/DTD/svg11.dtd">
<!-- Generated by graphviz version 2.38.0 (20140413.2041)
 -->
<!-- Title: HAL_SCU_Peripheral_EnableClock2 Pages: 1 -->
<!--zoomable 788 -->
<svg id="main" version="1.1" xmlns="http://www.w3.org/2000/svg" xmlns:xlink="http://www.w3.org/1999/xlink" xml:space="preserve" onload="init(evt)">
<style type="text/css"><![CDATA[
.edge:hover path { stroke: red; }
.edge:hover polygon { stroke: red; fill: red; }
]]></style>
<script type="text/javascript"><![CDATA[
var edges = document.getElementsByTagName('g');
if (edges && edges.length) {
  for (var i=0;i<edges.length;i++) {
    if (edges[i].id.substr(0,4)=='edge') {
      edges[i].setAttribute('class','edge');
    }
  }
}
]]></script>
        <defs>
                <circle id="rim" cx="0" cy="0" r="7"/>
                <circle id="rim2" cx="0" cy="0" r="3.5"/>
                <g id="zoomPlus">
                        <use xlink:href="#rim" fill="#404040">
                                <set attributeName="fill" to="#808080" begin="zoomplus.mouseover" end="zoomplus.mouseout"/>
                        </use>
                        <path d="M-4,0h8M0,-4v8" fill="none" stroke="white" stroke-width="1.5" pointer-events="none"/>
                </g>
                <g id="zoomMin">
                        <use xlink:href="#rim" fill="#404040">
                                <set attributeName="fill" to="#808080" begin="zoomminus.mouseover" end="zoomminus.mouseout"/>
                        </use>
                        <path d="M-4,0h8" fill="none" stroke="white" stroke-width="1.5" pointer-events="none"/>
                </g>
                <g id="dirArrow">
                        <path fill="none" stroke="white" stroke-width="1.5" d="M0,-3.0v7 M-2.5,-0.5L0,-3.0L2.5,-0.5"/>
                </g>
               <g id="resetDef">
                       <use xlink:href="#rim2" fill="#404040">
                               <set attributeName="fill" to="#808080" begin="reset.mouseover" end="reset.mouseout"/>
                       </use>
               </g>
        </defs>

<script type="text/javascript">
var viewWidth = 393;
var viewHeight = 788;
var sectionId = 'dynsection-1';
</script>
<script xlink:href="svgpan.js"/>
<svg id="graph" class="graph">
<g id="viewport">
<title>HAL_SCU_Peripheral_EnableClock2</title>
<polygon fill="white" stroke="none" points="-4,4 -4,-784 389,-784 389,4 -4,4"/>
<!-- Node27 -->
<g id="node1" class="node"><title>Node27</title>
<g id="a_node1"><a xlink:title="Set Each Peripheral Clock.">
<polygon fill="#bfbfbf" stroke="black" points="275,-375 275,-405 385,-405 385,-375 275,-375"/>
<text text-anchor="start" x="283" y="-393" font-family="Helvetica,sans-Serif" font-size="10.00">HAL_SCU_Peripheral</text>
<text text-anchor="middle" x="330" y="-382" font-family="Helvetica,sans-Serif" font-size="10.00">_EnableClock2</text>
</a>
</g>
</g>
<!-- Node28 -->
<g id="node2" class="node"><title>Node28</title>
<g id="a_node2"><a xlink:href="_a31_l12x__hal__adc_8c.html#adc3af0eef1a9fdb2bbe3d33d8ca9e953" target="_top" xlink:title="Close ADC.">
<polygon fill="white" stroke="black" points="139.5,-760.5 139.5,-779.5 230.5,-779.5 230.5,-760.5 139.5,-760.5"/>
<text text-anchor="middle" x="185" y="-767.5" font-family="Helvetica,sans-Serif" font-size="10.00">HAL_ADC_DeInit</text>
</a>
</g>
</g>
<!-- Node27&#45;&gt;Node28 -->
<g id="edge1" class="edge"><title>Node27&#45;&gt;Node28</title>
<path fill="none" stroke="midnightblue" d="M325.83,-415.187C316.119,-488.63 284.651,-700.545 239,-751 235.459,-754.914 231.053,-758.022 226.305,-760.49"/>
<polygon fill="midnightblue" stroke="midnightblue" points="329.334,-415.38 327.152,-405.012 322.392,-414.477 329.334,-415.38"/>
</g>
<!-- Node29 -->
<g id="node3" class="node"><title>Node29</title>
<g id="a_node3"><a xlink:href="_a31_l12x__hal__adc_8c.html#a03f1f8f43465b4cf34543397931074fe" target="_top" xlink:title="Initialize the ADC peripheral with the specified parameters.">
<polygon fill="white" stroke="black" points="145.5,-722.5 145.5,-741.5 224.5,-741.5 224.5,-722.5 145.5,-722.5"/>
<text text-anchor="middle" x="185" y="-729.5" font-family="Helvetica,sans-Serif" font-size="10.00">HAL_ADC_Init</text>
</a>
</g>
</g>
<!-- Node27&#45;&gt;Node29 -->
<g id="edge2" class="edge"><title>Node27&#45;&gt;Node29</title>
<path fill="none" stroke="midnightblue" d="M329.369,-415.201C328.859,-474.965 319.241,-626.722 239,-713 235.006,-717.295 229.973,-720.62 224.607,-723.194"/>
<polygon fill="midnightblue" stroke="midnightblue" points="332.868,-415.15 329.373,-405.149 325.868,-415.147 332.868,-415.15"/>
</g>
<!-- Node30 -->
<g id="node4" class="node"><title>Node30</title>
<g id="a_node4"><a xlink:href="_a31_l12x__hal__cmpn_8c.html#adcd4367d51e8286761860d4b87db10ea" target="_top" xlink:title="Deinitialize the target peripheral.">
<polygon fill="white" stroke="black" points="135,-684.5 135,-703.5 235,-703.5 235,-684.5 135,-684.5"/>
<text text-anchor="middle" x="185" y="-691.5" font-family="Helvetica,sans-Serif" font-size="10.00">HAL_COMP_Deinit</text>
</a>
</g>
</g>
<!-- Node27&#45;&gt;Node30 -->
<g id="edge3" class="edge"><title>Node27&#45;&gt;Node30</title>
<path fill="none" stroke="midnightblue" d="M328.242,-415.192C325.239,-469.912 310.53,-600.674 239,-675 235.272,-678.874 230.7,-681.96 225.818,-684.418"/>
<polygon fill="midnightblue" stroke="midnightblue" points="331.747,-415.159 328.71,-405.009 324.754,-414.837 331.747,-415.159"/>
</g>
<!-- Node31 -->
<g id="node5" class="node"><title>Node31</title>
<g id="a_node5"><a xlink:href="_a31_l12x__hal__cmpn_8c.html#a8d622095197a0a59f8e312f120559ddf" target="_top" xlink:title="Initialize the target peripheral.">
<polygon fill="white" stroke="black" points="141,-646.5 141,-665.5 229,-665.5 229,-646.5 141,-646.5"/>
<text text-anchor="middle" x="185" y="-653.5" font-family="Helvetica,sans-Serif" font-size="10.00">HAL_COMP_Init</text>
</a>
</g>
</g>
<!-- Node27&#45;&gt;Node31 -->
<g id="edge4" class="edge"><title>Node27&#45;&gt;Node31</title>
<path fill="none" stroke="midnightblue" d="M326.792,-415.225C321.15,-464.561 301.869,-574.457 239,-637 235.119,-640.861 230.4,-643.941 225.395,-646.399"/>
<polygon fill="midnightblue" stroke="midnightblue" points="330.29,-415.427 327.851,-405.117 323.328,-414.698 330.29,-415.427"/>
</g>
<!-- Node32 -->
<g id="node6" class="node"><title>Node32</title>
<g id="a_node6"><a xlink:href="_a31_l12x__hal__crc_8c.html#af98d877f2e3390ed7b10cc57ba4abfd6" target="_top" xlink:title="DeInitialize CRC peripheral.">
<polygon fill="white" stroke="black" points="139.5,-608.5 139.5,-627.5 230.5,-627.5 230.5,-608.5 139.5,-608.5"/>
<text text-anchor="middle" x="185" y="-615.5" font-family="Helvetica,sans-Serif" font-size="10.00">HAL_CRC_DeInit</text>
</a>
</g>
</g>
<!-- Node27&#45;&gt;Node32 -->
<g id="edge5" class="edge"><title>Node27&#45;&gt;Node32</title>
<path fill="none" stroke="midnightblue" d="M324.852,-415.277C316.423,-458.774 293.281,-548.005 239,-599 234.868,-602.882 229.888,-605.98 224.656,-608.45"/>
<polygon fill="midnightblue" stroke="midnightblue" points="328.328,-415.723 326.687,-405.256 321.443,-414.461 328.328,-415.723"/>
</g>
<!-- Node33 -->
<g id="node7" class="node"><title>Node33</title>
<g id="a_node7"><a xlink:href="_a31_l12x__hal__crc_8c.html#a676dc0716a87c30928c4f3db66ee6aff" target="_top" xlink:title="Initialize CRC/Checksum peripheral.">
<polygon fill="white" stroke="black" points="145.5,-570.5 145.5,-589.5 224.5,-589.5 224.5,-570.5 145.5,-570.5"/>
<text text-anchor="middle" x="185" y="-577.5" font-family="Helvetica,sans-Serif" font-size="10.00">HAL_CRC_Init</text>
</a>
</g>
</g>
<!-- Node27&#45;&gt;Node33 -->
<g id="edge6" class="edge"><title>Node27&#45;&gt;Node33</title>
<path fill="none" stroke="midnightblue" d="M322.178,-415.103C310.885,-452.092 284.871,-521.15 239,-561 234.573,-564.846 229.309,-567.933 223.845,-570.406"/>
<polygon fill="midnightblue" stroke="midnightblue" points="325.643,-415.726 325.097,-405.145 318.925,-413.757 325.643,-415.726"/>
</g>
<!-- Node34 -->
<g id="node8" class="node"><title>Node34</title>
<g id="a_node8"><a xlink:href="_a31_l12x__hal__lcd_8c.html#a3907b9d98f3b69ea976e4002587e8aa1" target="_top" xlink:title="Initialize the LCD peripheral with the specified parameters.">
<polygon fill="white" stroke="black" points="146.5,-532.5 146.5,-551.5 223.5,-551.5 223.5,-532.5 146.5,-532.5"/>
<text text-anchor="middle" x="185" y="-539.5" font-family="Helvetica,sans-Serif" font-size="10.00">HAL_LCD_Init</text>
</a>
</g>
</g>
<!-- Node27&#45;&gt;Node34 -->
<g id="edge7" class="edge"><title>Node27&#45;&gt;Node34</title>
<path fill="none" stroke="midnightblue" d="M318.427,-414.27C304.359,-443.897 276.794,-493.665 239,-523 234.058,-526.836 228.275,-529.941 222.379,-532.442"/>
<polygon fill="midnightblue" stroke="midnightblue" points="321.668,-415.601 322.676,-405.054 315.311,-412.67 321.668,-415.601"/>
</g>
<!-- Node35 -->
<g id="node9" class="node"><title>Node35</title>
<g id="a_node9"><a xlink:href="_a31_l12x__hal__lpuart_8c.html#aa0ff7425ce3e68e1a2c574b8820022dd" target="_top" xlink:title="Deinitialize the LPUART peripheral registers to their default reset values.">
<polygon fill="white" stroke="black" points="131,-494.5 131,-513.5 239,-513.5 239,-494.5 131,-494.5"/>
<text text-anchor="middle" x="185" y="-501.5" font-family="Helvetica,sans-Serif" font-size="10.00">HAL_LPUART_DeInit</text>
</a>
</g>
</g>
<!-- Node27&#45;&gt;Node35 -->
<g id="edge8" class="edge"><title>Node27&#45;&gt;Node35</title>
<path fill="none" stroke="midnightblue" d="M311.978,-413.472C295.457,-434.76 268.596,-465.681 239,-485 233.27,-488.74 226.711,-491.855 220.205,-494.408"/>
<polygon fill="midnightblue" stroke="midnightblue" points="314.94,-415.359 318.198,-405.277 309.364,-411.127 314.94,-415.359"/>
</g>
<!-- Node36 -->
<g id="node10" class="node"><title>Node36</title>
<g id="a_node10"><a xlink:href="_a31_l12x__hal__lpuart_8c.html#a4842723facd9651d1445256c52d0df7f" target="_top" xlink:title="Initialize the LPUART peripheral with the specified parameters.">
<polygon fill="white" stroke="black" points="137,-456.5 137,-475.5 233,-475.5 233,-456.5 137,-456.5"/>
<text text-anchor="middle" x="185" y="-463.5" font-family="Helvetica,sans-Serif" font-size="10.00">HAL_LPUART_Init</text>
</a>
</g>
</g>
<!-- Node27&#45;&gt;Node36 -->
<g id="edge9" class="edge"><title>Node27&#45;&gt;Node36</title>
<path fill="none" stroke="midnightblue" d="M299.502,-411.013C282.379,-422.608 260.086,-436.7 239,-447 231.798,-450.518 223.772,-453.732 216.189,-456.475"/>
<polygon fill="midnightblue" stroke="midnightblue" points="301.69,-413.756 307.952,-405.21 297.727,-407.986 301.69,-413.756"/>
</g>
<!-- Node37 -->
<g id="node11" class="node"><title>Node37</title>
<g id="a_node11"><a xlink:href="_a31_l12x__hal__sculv_8c.html#a59ca29e359d58d4017d22c9cf9740252" target="_top" xlink:title="Set LVI Block Enable/Disable and Voltage Level.">
<polygon fill="white" stroke="black" points="148.5,-418.5 148.5,-437.5 221.5,-437.5 221.5,-418.5 148.5,-418.5"/>
<text text-anchor="middle" x="185" y="-425.5" font-family="Helvetica,sans-Serif" font-size="10.00">HAL_LVI_Init</text>
</a>
</g>
</g>
<!-- Node27&#45;&gt;Node37 -->
<g id="edge10" class="edge"><title>Node27&#45;&gt;Node37</title>
<path fill="none" stroke="midnightblue" d="M265.18,-406.959C250.189,-410.943 234.743,-415.047 221.518,-418.562"/>
<polygon fill="midnightblue" stroke="midnightblue" points="266.172,-410.317 274.938,-404.366 264.374,-403.552 266.172,-410.317"/>
</g>
<!-- Node38 -->
<g id="node12" class="node"><title>Node38</title>
<g id="a_node12"><a xlink:href="_a31_l12x__hal__rtcc_8c.html#a299bf6ca2cbe263d92e981299694bcec" target="_top" xlink:title="Close RTCC.">
<polygon fill="white" stroke="black" points="137,-380.5 137,-399.5 233,-399.5 233,-380.5 137,-380.5"/>
<text text-anchor="middle" x="185" y="-387.5" font-family="Helvetica,sans-Serif" font-size="10.00">HAL_RTCC_DeInit</text>
</a>
</g>
</g>
<!-- Node27&#45;&gt;Node38 -->
<g id="edge11" class="edge"><title>Node27&#45;&gt;Node38</title>
<path fill="none" stroke="midnightblue" d="M264.809,-390C254.141,-390 243.254,-390 233.111,-390"/>
<polygon fill="midnightblue" stroke="midnightblue" points="264.938,-393.5 274.938,-390 264.938,-386.5 264.938,-393.5"/>
</g>
<!-- Node39 -->
<g id="node13" class="node"><title>Node39</title>
<g id="a_node13"><a xlink:href="_a31_l12x__hal__rtcc_8c.html#a2a5fb90d2f38a508cd4a9352abb354cd" target="_top" xlink:title="Initialize the RTCC peripheral with the specified parameters.">
<polygon fill="white" stroke="black" points="143,-342.5 143,-361.5 227,-361.5 227,-342.5 143,-342.5"/>
<text text-anchor="middle" x="185" y="-349.5" font-family="Helvetica,sans-Serif" font-size="10.00">HAL_RTCC_Init</text>
</a>
</g>
</g>
<!-- Node27&#45;&gt;Node39 -->
<g id="edge12" class="edge"><title>Node27&#45;&gt;Node39</title>
<path fill="none" stroke="midnightblue" d="M265.268,-373.064C250.411,-369.116 235.102,-365.048 221.946,-361.552"/>
<polygon fill="midnightblue" stroke="midnightblue" points="264.374,-376.448 274.938,-375.634 266.172,-369.683 264.374,-376.448"/>
</g>
<!-- Node40 -->
<g id="node14" class="node"><title>Node40</title>
<g id="a_node14"><a xlink:href="_a31_l12x__hal__scn_8c.html#a77892ea94b0cde94c395afd6461ddfbf" target="_top" xlink:title="Deinitialize the SCn peripheral registers to their default reset values.">
<polygon fill="white" stroke="black" points="143,-304.5 143,-323.5 227,-323.5 227,-304.5 143,-304.5"/>
<text text-anchor="middle" x="185" y="-311.5" font-family="Helvetica,sans-Serif" font-size="10.00">HAL_SC_DeInit</text>
</a>
</g>
</g>
<!-- Node27&#45;&gt;Node40 -->
<g id="edge13" class="edge"><title>Node27&#45;&gt;Node40</title>
<path fill="none" stroke="midnightblue" d="M299.502,-368.987C282.379,-357.392 260.086,-343.3 239,-333 231.798,-329.482 223.772,-326.268 216.189,-323.525"/>
<polygon fill="midnightblue" stroke="midnightblue" points="297.727,-372.014 307.952,-374.79 301.69,-366.244 297.727,-372.014"/>
</g>
<!-- Node41 -->
<g id="node15" class="node"><title>Node41</title>
<g id="a_node15"><a xlink:href="_a31_l12x__hal__scn_8c.html#ab3874bdeb76d2ee4368e18e8bcb2816f" target="_top" xlink:title="Initialize the SCn peripheral with the specified parameters.">
<polygon fill="white" stroke="black" points="149,-266.5 149,-285.5 221,-285.5 221,-266.5 149,-266.5"/>
<text text-anchor="middle" x="185" y="-273.5" font-family="Helvetica,sans-Serif" font-size="10.00">HAL_SC_Init</text>
</a>
</g>
</g>
<!-- Node27&#45;&gt;Node41 -->
<g id="edge14" class="edge"><title>Node27&#45;&gt;Node41</title>
<path fill="none" stroke="midnightblue" d="M311.978,-366.528C295.457,-345.24 268.596,-314.319 239,-295 233.27,-291.26 226.711,-288.145 220.205,-285.592"/>
<polygon fill="midnightblue" stroke="midnightblue" points="309.364,-368.873 318.198,-374.723 314.94,-364.641 309.364,-368.873"/>
</g>
<!-- Node42 -->
<g id="node16" class="node"><title>Node42</title>
<g id="a_node16"><a xlink:href="_a31_l12x__hal__spin_8c.html#aa04293967566099d8ae083b36b82f644" target="_top" xlink:title="Initialize the SPIn peripheral with the specified parameters.">
<polygon fill="white" stroke="black" points="145,-228.5 145,-247.5 225,-247.5 225,-228.5 145,-228.5"/>
<text text-anchor="middle" x="185" y="-235.5" font-family="Helvetica,sans-Serif" font-size="10.00">HAL_SPIn_Init</text>
</a>
</g>
</g>
<!-- Node27&#45;&gt;Node42 -->
<g id="edge15" class="edge"><title>Node27&#45;&gt;Node42</title>
<path fill="none" stroke="midnightblue" d="M318.427,-365.73C304.359,-336.103 276.794,-286.335 239,-257 234.058,-253.164 228.275,-250.059 222.379,-247.558"/>
<polygon fill="midnightblue" stroke="midnightblue" points="315.311,-367.33 322.676,-374.946 321.668,-364.399 315.311,-367.33"/>
</g>
<!-- Node43 -->
<g id="node17" class="node"><title>Node43</title>
<g id="a_node17"><a xlink:href="_a31_l12x__hal__uartn_8c.html#a6d12dc7f5d3ca7341d77a9526d33f88a" target="_top" xlink:title="Deinitialize the UARTn peripheral registers to their default reset values.">
<polygon fill="white" stroke="black" points="137,-190.5 137,-209.5 233,-209.5 233,-190.5 137,-190.5"/>
<text text-anchor="middle" x="185" y="-197.5" font-family="Helvetica,sans-Serif" font-size="10.00">HAL_UART_DeInit</text>
</a>
</g>
</g>
<!-- Node27&#45;&gt;Node43 -->
<g id="edge16" class="edge"><title>Node27&#45;&gt;Node43</title>
<path fill="none" stroke="midnightblue" d="M322.178,-364.897C310.885,-327.908 284.871,-258.85 239,-219 234.573,-215.154 229.309,-212.067 223.845,-209.594"/>
<polygon fill="midnightblue" stroke="midnightblue" points="318.925,-366.243 325.097,-374.855 325.643,-364.274 318.925,-366.243"/>
</g>
<!-- Node44 -->
<g id="node18" class="node"><title>Node44</title>
<g id="a_node18"><a xlink:href="_a31_l12x__hal__uartn_8c.html#a51447d216b4fe2c99ebde7753ced6568" target="_top" xlink:title="Initialize the UARTn peripheral with the specified parameters.">
<polygon fill="white" stroke="black" points="143,-152.5 143,-171.5 227,-171.5 227,-152.5 143,-152.5"/>
<text text-anchor="middle" x="185" y="-159.5" font-family="Helvetica,sans-Serif" font-size="10.00">HAL_UART_Init</text>
</a>
</g>
</g>
<!-- Node27&#45;&gt;Node44 -->
<g id="edge17" class="edge"><title>Node27&#45;&gt;Node44</title>
<path fill="none" stroke="midnightblue" d="M324.852,-364.723C316.423,-321.226 293.281,-231.995 239,-181 234.868,-177.118 229.888,-174.02 224.656,-171.55"/>
<polygon fill="midnightblue" stroke="midnightblue" points="321.443,-365.539 326.687,-374.744 328.328,-364.277 321.443,-365.539"/>
</g>
<!-- Node46 -->
<g id="node20" class="node"><title>Node46</title>
<g id="a_node20"><a xlink:href="_a31_l12x__hal__usart1n_8c.html#a4633ef2cbe207a5af1ff23eac3852cad" target="_top" xlink:title="Deinitialize the USART1n peripheral registers to their default reset values.">
<polygon fill="white" stroke="black" points="133.5,-114.5 133.5,-133.5 236.5,-133.5 236.5,-114.5 133.5,-114.5"/>
<text text-anchor="middle" x="185" y="-121.5" font-family="Helvetica,sans-Serif" font-size="10.00">HAL_USART_DeInit</text>
</a>
</g>
</g>
<!-- Node27&#45;&gt;Node46 -->
<g id="edge19" class="edge"><title>Node27&#45;&gt;Node46</title>
<path fill="none" stroke="midnightblue" d="M326.792,-364.775C321.15,-315.439 301.869,-205.543 239,-143 235.119,-139.139 230.4,-136.059 225.395,-133.601"/>
<polygon fill="midnightblue" stroke="midnightblue" points="323.328,-365.302 327.851,-374.883 330.29,-364.573 323.328,-365.302"/>
</g>
<!-- Node47 -->
<g id="node21" class="node"><title>Node47</title>
<g id="a_node21"><a xlink:href="_a31_l12x__hal__usart1n_8c.html#a2095d581460704baf96d9ba7f552db19" target="_top" xlink:title="Initialize the USART1n peripheral with the specified parameters.">
<polygon fill="white" stroke="black" points="139.5,-76.5 139.5,-95.5 230.5,-95.5 230.5,-76.5 139.5,-76.5"/>
<text text-anchor="middle" x="185" y="-83.5" font-family="Helvetica,sans-Serif" font-size="10.00">HAL_USART_Init</text>
</a>
</g>
</g>
<!-- Node27&#45;&gt;Node47 -->
<g id="edge20" class="edge"><title>Node27&#45;&gt;Node47</title>
<path fill="none" stroke="midnightblue" d="M328.242,-364.808C325.239,-310.088 310.53,-179.326 239,-105 235.272,-101.126 230.7,-98.0401 225.818,-95.5818"/>
<polygon fill="midnightblue" stroke="midnightblue" points="324.754,-365.163 328.71,-374.991 331.747,-364.841 324.754,-365.163"/>
</g>
<!-- Node48 -->
<g id="node22" class="node"><title>Node48</title>
<g id="a_node22"><a xlink:href="_a31_l12x__hal__wdt_8c.html#a2642b11ad5df931ab5ace05d0626b8c1" target="_top" xlink:title="Initialize the WDT peripheral with the specified parameters.">
<polygon fill="white" stroke="black" points="145,-38.5 145,-57.5 225,-57.5 225,-38.5 145,-38.5"/>
<text text-anchor="middle" x="185" y="-45.5" font-family="Helvetica,sans-Serif" font-size="10.00">HAL_WDT_Init</text>
</a>
</g>
</g>
<!-- Node27&#45;&gt;Node48 -->
<g id="edge21" class="edge"><title>Node27&#45;&gt;Node48</title>
<path fill="none" stroke="midnightblue" d="M329.369,-364.799C328.859,-305.035 319.241,-153.278 239,-67 235.139,-62.8485 230.307,-59.6029 225.142,-57.0658"/>
<polygon fill="midnightblue" stroke="midnightblue" points="325.868,-364.853 329.373,-374.851 332.868,-364.85 325.868,-364.853"/>
</g>
<!-- Node49 -->
<g id="node23" class="node"><title>Node49</title>
<g id="a_node23"><a xlink:href="_a31_l12x__hal__spin_8c.html#a6d7dc13e38ad6bf1735a99d7b9322316" target="_top" xlink:title="Deinitialize the SPIn peripheral registers to their default reset values.">
<polygon fill="white" stroke="black" points="151,-0.5 151,-19.5 219,-19.5 219,-0.5 151,-0.5"/>
<text text-anchor="middle" x="185" y="-7.5" font-family="Helvetica,sans-Serif" font-size="10.00">SPIn_DeInit</text>
</a>
</g>
</g>
<!-- Node27&#45;&gt;Node49 -->
<g id="edge22" class="edge"><title>Node27&#45;&gt;Node49</title>
<path fill="none" stroke="midnightblue" d="M325.83,-364.813C316.119,-291.37 284.651,-79.4555 239,-29 233.754,-23.2014 226.61,-19.1714 219.268,-16.371"/>
<polygon fill="midnightblue" stroke="midnightblue" points="322.392,-365.523 327.152,-374.988 329.334,-364.62 322.392,-365.523"/>
</g>
<!-- Node45 -->
<g id="node19" class="node"><title>Node45</title>
<g id="a_node19"><a xlink:href="_a31_l12x__hal__debug__frmwrk_8c.html#aa79ebfdcc65f8acaa847e9deaecea5a0" target="_top" xlink:title="Initializes Debug Framework through initializing UARTn.">
<polygon fill="white" stroke="black" points="0,-152.5 0,-171.5 95,-171.5 95,-152.5 0,-152.5"/>
<text text-anchor="middle" x="47.5" y="-159.5" font-family="Helvetica,sans-Serif" font-size="10.00">debug_frmwrk_init</text>
</a>
</g>
</g>
<!-- Node44&#45;&gt;Node45 -->
<g id="edge18" class="edge"><title>Node44&#45;&gt;Node45</title>
<path fill="none" stroke="midnightblue" d="M132.797,-162C120.41,-162 107.238,-162 95.0766,-162"/>
<polygon fill="midnightblue" stroke="midnightblue" points="132.978,-165.5 142.978,-162 132.978,-158.5 132.978,-165.5"/>
</g>
</g>
</svg>
        <g id="navigator" transform="translate(0 0)" fill="#404254">
                <rect fill="#f2f5e9" fill-opacity="0.5" stroke="#606060" stroke-width=".5" x="0" y="0" width="60" height="60"/>
                <use id="zoomplus" xlink:href="#zoomPlus" x="17" y="9" onmousedown="handleZoom(evt,'in')"/>
                <use id="zoomminus" xlink:href="#zoomMin" x="42" y="9" onmousedown="handleZoom(evt,'out')"/>
                <use id="reset" xlink:href="#resetDef" x="30" y="36" onmousedown="handleReset()"/>
                <g id="arrowUp" xlink:href="#dirArrow" transform="translate(30 24)" onmousedown="handlePan(0,-1)">
                  <use xlink:href="#rim" fill="#404040">
                        <set attributeName="fill" to="#808080" begin="arrowUp.mouseover" end="arrowUp.mouseout"/>
                  </use>
                  <path fill="none" stroke="white" stroke-width="1.5" d="M0,-3.0v7 M-2.5,-0.5L0,-3.0L2.5,-0.5"/>
                </g>
                <g id="arrowRight" xlink:href="#dirArrow" transform="rotate(90) translate(36 -43)" onmousedown="handlePan(1,0)">
                  <use xlink:href="#rim" fill="#404040">
                        <set attributeName="fill" to="#808080" begin="arrowRight.mouseover" end="arrowRight.mouseout"/>
                  </use>
                  <path fill="none" stroke="white" stroke-width="1.5" d="M0,-3.0v7 M-2.5,-0.5L0,-3.0L2.5,-0.5"/>
                </g>
                <g id="arrowDown" xlink:href="#dirArrow" transform="rotate(180) translate(-30 -48)" onmousedown="handlePan(0,1)">
                  <use xlink:href="#rim" fill="#404040">
                        <set attributeName="fill" to="#808080" begin="arrowDown.mouseover" end="arrowDown.mouseout"/>
                  </use>
                  <path fill="none" stroke="white" stroke-width="1.5" d="M0,-3.0v7 M-2.5,-0.5L0,-3.0L2.5,-0.5"/>
                </g>
                <g id="arrowLeft" xlink:href="#dirArrow" transform="rotate(270) translate(-36 17)" onmousedown="handlePan(-1,0)">
                  <use xlink:href="#rim" fill="#404040">
                        <set attributeName="fill" to="#808080" begin="arrowLeft.mouseover" end="arrowLeft.mouseout"/>
                  </use>
                  <path fill="none" stroke="white" stroke-width="1.5" d="M0,-3.0v7 M-2.5,-0.5L0,-3.0L2.5,-0.5"/>
                </g>
        </g>
        <svg viewBox="0 0 15 15" width="100%" height="30px" preserveAspectRatio="xMaxYMin meet">
         <g id="arrow_out" transform="scale(0.3 0.3)">
          <a xlink:href="_a31_l12x__hal__scu_8c_a7d0a497cdf6bc58ed14a54aed75a04ec_icgraph_org.svg" target="_base">
           <rect id="button" ry="5" rx="5" y="6" x="6" height="38" width="38"
                fill="#f2f5e9" fill-opacity="0.5" stroke="#606060" stroke-width="1.0"/>
           <path id="arrow"
             d="M 11.500037,31.436501 C 11.940474,20.09759 22.043105,11.32322 32.158766,21.979434 L 37.068811,17.246167 C 37.068811,17.246167 37.088388,32 37.088388,32 L 22.160133,31.978069 C 22.160133,31.978069 26.997745,27.140456 26.997745,27.140456 C 18.528582,18.264221 13.291696,25.230495 11.500037,31.436501 z"
             style="fill:#404040;"/>
          </a>
         </g>
        </svg>
</svg>
