<?xml version="1.0" encoding="UTF-8" standalone="no"?>
<!DOCTYPE svg PUBLIC "-//W3C//DTD SVG 1.1//EN"
 "http://www.w3.org/Graphics/SVG/1.1/DTD/svg11.dtd">
<!-- Generated by graphviz version 2.38.0 (20140413.2041)
 -->
<!-- Title: HAL_SC_DeInit Pages: 1 -->
<svg width="238pt" height="88pt"
 viewBox="0.00 0.00 238.00 88.00" xmlns="http://www.w3.org/2000/svg" xmlns:xlink="http://www.w3.org/1999/xlink">
<g id="graph0" class="graph" transform="scale(1 1) rotate(0) translate(4 84)">
<title>HAL_SC_DeInit</title>
<polygon fill="white" stroke="none" points="-4,4 -4,-84 234,-84 234,4 -4,4"/>
<!-- Node22 -->
<g id="node1" class="node"><title>Node22</title>
<g id="a_node1"><a xlink:title="Deinitialize the SCn peripheral registers to their default reset values.">
<polygon fill="#bfbfbf" stroke="black" points="0,-30 0,-49 84,-49 84,-30 0,-30"/>
<text text-anchor="middle" x="42" y="-37" font-family="Helvetica,sans-Serif" font-size="10.00">HAL_SC_DeInit</text>
</a>
</g>
</g>
<!-- Node23 -->
<g id="node2" class="node"><title>Node23</title>
<g id="a_node2"><a xlink:href="_a31_l12x__hal__scu_8h.html#a7d0a497cdf6bc58ed14a54aed75a04ec" target="_top" xlink:title="Set Each Peripheral Clock.">
<polygon fill="white" stroke="black" points="120,-49.5 120,-79.5 230,-79.5 230,-49.5 120,-49.5"/>
<text text-anchor="start" x="128" y="-67.5" font-family="Helvetica,sans-Serif" font-size="10.00">HAL_SCU_Peripheral</text>
<text text-anchor="middle" x="175" y="-56.5" font-family="Helvetica,sans-Serif" font-size="10.00">_EnableClock2</text>
</a>
</g>
</g>
<!-- Node22&#45;&gt;Node23 -->
<g id="edge1" class="edge"><title>Node22&#45;&gt;Node23</title>
<path fill="none" stroke="midnightblue" d="M84.0898,-47.3416C92.1795,-48.8854 100.849,-50.5399 109.495,-52.1899"/>
<polygon fill="midnightblue" stroke="midnightblue" points="109.12,-55.6814 119.599,-54.118 110.432,-48.8054 109.12,-55.6814"/>
</g>
<!-- Node24 -->
<g id="node3" class="node"><title>Node24</title>
<g id="a_node3"><a xlink:href="_a31_l12x__hal__scu_8h.html#a86f85811c7a32616b6f21328fa2d868f" target="_top" xlink:title="Set/Reset Each Peripheral Block Reset of PPRST2 Register.">
<polygon fill="white" stroke="black" points="120,-0.5 120,-30.5 230,-30.5 230,-0.5 120,-0.5"/>
<text text-anchor="start" x="128" y="-18.5" font-family="Helvetica,sans-Serif" font-size="10.00">HAL_SCU_Peripheral</text>
<text text-anchor="middle" x="175" y="-7.5" font-family="Helvetica,sans-Serif" font-size="10.00">_SetReset2</text>
</a>
</g>
</g>
<!-- Node22&#45;&gt;Node24 -->
<g id="edge2" class="edge"><title>Node22&#45;&gt;Node24</title>
<path fill="none" stroke="midnightblue" d="M84.0898,-31.9721C92.1795,-30.49 100.849,-28.9017 109.495,-27.3177"/>
<polygon fill="midnightblue" stroke="midnightblue" points="110.393,-30.7115 119.599,-25.4667 109.132,-23.8261 110.393,-30.7115"/>
</g>
</g>
</svg>
