<?xml version="1.0" encoding="UTF-8" standalone="no"?>
<!DOCTYPE svg PUBLIC "-//W3C//DTD SVG 1.1//EN"
 "http://www.w3.org/Graphics/SVG/1.1/DTD/svg11.dtd">
<!-- Generated by graphviz version 2.38.0 (20140413.2041)
 -->
<!-- Title: getstring Pages: 1 -->
<svg width="486pt" height="66pt"
 viewBox="0.00 0.00 486.00 66.00" xmlns="http://www.w3.org/2000/svg" xmlns:xlink="http://www.w3.org/1999/xlink">
<g id="graph0" class="graph" transform="scale(1 1) rotate(0) translate(4 62)">
<title>getstring</title>
<polygon fill="white" stroke="none" points="-4,4 -4,-62 482,-62 482,4 -4,4"/>
<!-- Node26 -->
<g id="node1" class="node"><title>Node26</title>
<g id="a_node1"><a xlink:title="Get a character to UART port.">
<polygon fill="#bfbfbf" stroke="black" points="0,-19.5 0,-38.5 54,-38.5 54,-19.5 0,-19.5"/>
<text text-anchor="middle" x="27" y="-26.5" font-family="Helvetica,sans-Serif" font-size="10.00">getstring</text>
</a>
</g>
</g>
<!-- Node27 -->
<g id="node2" class="node"><title>Node27</title>
<g id="a_node2"><a xlink:href="_a31_l12x__hal__debug__frmwrk_8c.html#ab5682425a8b9f9fd4290e303f3fd500b" target="_top" xlink:title="Get a character to UART port.">
<polygon fill="white" stroke="black" points="90,-38.5 90,-57.5 168,-57.5 168,-38.5 90,-38.5"/>
<text text-anchor="middle" x="129" y="-45.5" font-family="Helvetica,sans-Serif" font-size="10.00">UARTGetChar</text>
</a>
</g>
</g>
<!-- Node26&#45;&gt;Node27 -->
<g id="edge1" class="edge"><title>Node26&#45;&gt;Node27</title>
<path fill="none" stroke="midnightblue" d="M54.0128,-33.9424C61.9175,-35.4443 70.8705,-37.1454 79.7498,-38.8325"/>
<polygon fill="midnightblue" stroke="midnightblue" points="79.2061,-42.2917 89.6837,-40.7199 80.5128,-35.4147 79.2061,-42.2917"/>
</g>
<!-- Node30 -->
<g id="node5" class="node"><title>Node30</title>
<g id="a_node5"><a xlink:href="_a31_l12x__hal__debug__frmwrk_8c.html#a7e7f61fa79d52e2ba38085032eab8f5f" target="_top" xlink:title="Puts a character to UART port.">
<polygon fill="white" stroke="black" points="90.5,-0.5 90.5,-19.5 167.5,-19.5 167.5,-0.5 90.5,-0.5"/>
<text text-anchor="middle" x="129" y="-7.5" font-family="Helvetica,sans-Serif" font-size="10.00">UARTPutChar</text>
</a>
</g>
</g>
<!-- Node26&#45;&gt;Node30 -->
<g id="edge4" class="edge"><title>Node26&#45;&gt;Node30</title>
<path fill="none" stroke="midnightblue" d="M54.0128,-24.0576C62.1725,-22.5072 71.4492,-20.7447 80.6088,-19.0043"/>
<polygon fill="midnightblue" stroke="midnightblue" points="81.2727,-22.4409 90.4436,-17.1357 79.966,-15.5639 81.2727,-22.4409"/>
</g>
<!-- Node28 -->
<g id="node3" class="node"><title>Node28</title>
<g id="a_node3"><a xlink:href="_a31_l12x__hal__uartn_8h.html#acc979b053c6e3a4fd224714df511b4f5" target="_top" xlink:title="Receive a block of data via UART peripheral.">
<polygon fill="white" stroke="black" points="206,-38.5 206,-57.5 311,-57.5 311,-38.5 206,-38.5"/>
<text text-anchor="middle" x="258.5" y="-45.5" font-family="Helvetica,sans-Serif" font-size="10.00">HAL_UART_Receive</text>
</a>
</g>
</g>
<!-- Node27&#45;&gt;Node28 -->
<g id="edge2" class="edge"><title>Node27&#45;&gt;Node28</title>
<path fill="none" stroke="midnightblue" d="M168.254,-48C176.873,-48 186.236,-48 195.548,-48"/>
<polygon fill="midnightblue" stroke="midnightblue" points="195.595,-51.5001 205.595,-48 195.595,-44.5001 195.595,-51.5001"/>
</g>
<!-- Node29 -->
<g id="node4" class="node"><title>Node29</title>
<g id="a_node4"><a xlink:href="_a31_l12x__hal__uartn_8c.html#aea7d60af1ecdb767452af416422e3446" target="_top" xlink:title="Receive a single data from UART peripheral.">
<polygon fill="white" stroke="black" points="351,-38.5 351,-57.5 476,-57.5 476,-38.5 351,-38.5"/>
<text text-anchor="middle" x="413.5" y="-45.5" font-family="Helvetica,sans-Serif" font-size="10.00">HAL_UART_ReceiveByte</text>
</a>
</g>
</g>
<!-- Node28&#45;&gt;Node29 -->
<g id="edge3" class="edge"><title>Node28&#45;&gt;Node29</title>
<path fill="none" stroke="midnightblue" d="M311.299,-48C320.757,-48 330.78,-48 340.697,-48"/>
<polygon fill="midnightblue" stroke="midnightblue" points="340.965,-51.5001 350.965,-48 340.965,-44.5001 340.965,-51.5001"/>
</g>
<!-- Node31 -->
<g id="node6" class="node"><title>Node31</title>
<g id="a_node6"><a xlink:href="_a31_l12x__hal__uartn_8h.html#ab1488eccbac797387079ab39be51ac38" target="_top" xlink:title="Send a block of data via UART peripheral.">
<polygon fill="white" stroke="black" points="204,-0.5 204,-19.5 313,-19.5 313,-0.5 204,-0.5"/>
<text text-anchor="middle" x="258.5" y="-7.5" font-family="Helvetica,sans-Serif" font-size="10.00">HAL_UART_Transmit</text>
</a>
</g>
</g>
<!-- Node30&#45;&gt;Node31 -->
<g id="edge5" class="edge"><title>Node30&#45;&gt;Node31</title>
<path fill="none" stroke="midnightblue" d="M167.565,-10C175.784,-10 184.705,-10 193.63,-10"/>
<polygon fill="midnightblue" stroke="midnightblue" points="193.671,-13.5001 203.671,-10 193.671,-6.5001 193.671,-13.5001"/>
</g>
<!-- Node32 -->
<g id="node7" class="node"><title>Node32</title>
<g id="a_node7"><a xlink:href="_a31_l12x__hal__uartn_8c.html#aa7dfea0108c5ea92d4bc9f5c79ef9e4d" target="_top" xlink:title="Transmit a single data through UART peripheral.">
<polygon fill="white" stroke="black" points="349,-0.5 349,-19.5 478,-19.5 478,-0.5 349,-0.5"/>
<text text-anchor="middle" x="413.5" y="-7.5" font-family="Helvetica,sans-Serif" font-size="10.00">HAL_UART_TransmitByte</text>
</a>
</g>
</g>
<!-- Node31&#45;&gt;Node32 -->
<g id="edge6" class="edge"><title>Node31&#45;&gt;Node32</title>
<path fill="none" stroke="midnightblue" d="M313.012,-10C321.312,-10 330.009,-10 338.661,-10"/>
<polygon fill="midnightblue" stroke="midnightblue" points="338.771,-13.5001 348.771,-10 338.771,-6.5001 338.771,-13.5001"/>
</g>
</g>
</svg>
