<?xml version="1.0" encoding="UTF-8" standalone="no"?>
<!DOCTYPE svg PUBLIC "-//W3C//DTD SVG 1.1//EN"
 "http://www.w3.org/Graphics/SVG/1.1/DTD/svg11.dtd">
<!-- Generated by graphviz version 2.38.0 (20140413.2041)
 -->
<!-- Title: HAL_SCU_Peripheral_SetReset2 Pages: 1 -->
<svg width="262pt" height="522pt"
 viewBox="0.00 0.00 262.00 522.00" xmlns="http://www.w3.org/2000/svg" xmlns:xlink="http://www.w3.org/1999/xlink">
<g id="graph0" class="graph" transform="scale(1 1) rotate(0) translate(4 518)">
<title>HAL_SCU_Peripheral_SetReset2</title>
<polygon fill="white" stroke="none" points="-4,4 -4,-518 258,-518 258,4 -4,4"/>
<!-- Node56 -->
<g id="node1" class="node"><title>Node56</title>
<g id="a_node1"><a xlink:title="Set/Reset Each Peripheral Block Reset of PPRST2 Register.">
<polygon fill="#bfbfbf" stroke="black" points="144,-242 144,-272 254,-272 254,-242 144,-242"/>
<text text-anchor="start" x="152" y="-260" font-family="Helvetica,sans-Serif" font-size="10.00">HAL_SCU_Peripheral</text>
<text text-anchor="middle" x="199" y="-249" font-family="Helvetica,sans-Serif" font-size="10.00">_SetReset2</text>
</a>
</g>
</g>
<!-- Node57 -->
<g id="node2" class="node"><title>Node57</title>
<g id="a_node2"><a xlink:href="_a31_l12x__hal__cmpn_8c.html#adcd4367d51e8286761860d4b87db10ea" target="_top" xlink:title="Deinitialize the target peripheral.">
<polygon fill="white" stroke="black" points="4,-494.5 4,-513.5 104,-513.5 104,-494.5 4,-494.5"/>
<text text-anchor="middle" x="54" y="-501.5" font-family="Helvetica,sans-Serif" font-size="10.00">HAL_COMP_Deinit</text>
</a>
</g>
</g>
<!-- Node56&#45;&gt;Node57 -->
<g id="edge1" class="edge"><title>Node56&#45;&gt;Node57</title>
<path fill="none" stroke="midnightblue" d="M194.901,-282.229C187.887,-328.702 166.574,-428.256 108,-485 103.998,-488.877 99.151,-491.969 94.0332,-494.434"/>
<polygon fill="midnightblue" stroke="midnightblue" points="198.395,-282.515 196.324,-272.125 191.464,-281.539 198.395,-282.515"/>
</g>
<!-- Node58 -->
<g id="node3" class="node"><title>Node58</title>
<g id="a_node3"><a xlink:href="_a31_l12x__hal__cmpn_8c.html#a8d622095197a0a59f8e312f120559ddf" target="_top" xlink:title="Initialize the target peripheral.">
<polygon fill="white" stroke="black" points="10,-456.5 10,-475.5 98,-475.5 98,-456.5 10,-456.5"/>
<text text-anchor="middle" x="54" y="-463.5" font-family="Helvetica,sans-Serif" font-size="10.00">HAL_COMP_Init</text>
</a>
</g>
</g>
<!-- Node56&#45;&gt;Node58 -->
<g id="edge2" class="edge"><title>Node56&#45;&gt;Node58</title>
<path fill="none" stroke="midnightblue" d="M192.685,-281.993C182.868,-322.255 158.148,-401.548 108,-447 103.727,-450.873 98.6083,-453.97 93.2608,-456.443"/>
<polygon fill="midnightblue" stroke="midnightblue" points="196.11,-282.719 194.968,-272.186 189.292,-281.132 196.11,-282.719"/>
</g>
<!-- Node59 -->
<g id="node4" class="node"><title>Node59</title>
<g id="a_node4"><a xlink:href="_a31_l12x__hal__crc_8c.html#af98d877f2e3390ed7b10cc57ba4abfd6" target="_top" xlink:title="DeInitialize CRC peripheral.">
<polygon fill="white" stroke="black" points="8.5,-418.5 8.5,-437.5 99.5,-437.5 99.5,-418.5 8.5,-418.5"/>
<text text-anchor="middle" x="54" y="-425.5" font-family="Helvetica,sans-Serif" font-size="10.00">HAL_CRC_DeInit</text>
</a>
</g>
</g>
<!-- Node56&#45;&gt;Node59 -->
<g id="edge3" class="edge"><title>Node56&#45;&gt;Node59</title>
<path fill="none" stroke="midnightblue" d="M189.475,-281.777C176.772,-315.196 149.791,-374.494 108,-409 103.327,-412.859 97.8084,-415.963 92.1285,-418.451"/>
<polygon fill="midnightblue" stroke="midnightblue" points="192.797,-282.886 192.96,-272.292 186.226,-280.472 192.797,-282.886"/>
</g>
<!-- Node60 -->
<g id="node5" class="node"><title>Node60</title>
<g id="a_node5"><a xlink:href="_a31_l12x__hal__i2cn_8c.html#a5b9c2837a1a18e967114ad41ade4a830" target="_top" xlink:title="Initialize the I2Cn peripheral with the specified parameters.">
<polygon fill="white" stroke="black" points="17.5,-380.5 17.5,-399.5 90.5,-399.5 90.5,-380.5 17.5,-380.5"/>
<text text-anchor="middle" x="54" y="-387.5" font-family="Helvetica,sans-Serif" font-size="10.00">HAL_I2C_Init</text>
</a>
</g>
</g>
<!-- Node56&#45;&gt;Node60 -->
<g id="edge4" class="edge"><title>Node56&#45;&gt;Node60</title>
<path fill="none" stroke="midnightblue" d="M184.708,-280.876C169.326,-306.489 141.733,-346.746 108,-371 102.683,-374.823 96.5183,-377.947 90.3145,-380.475"/>
<polygon fill="midnightblue" stroke="midnightblue" points="187.78,-282.557 189.812,-272.158 181.739,-279.02 187.78,-282.557"/>
</g>
<!-- Node61 -->
<g id="node6" class="node"><title>Node61</title>
<g id="a_node6"><a xlink:href="_a31_l12x__hal__lpuart_8c.html#aa0ff7425ce3e68e1a2c574b8820022dd" target="_top" xlink:title="Deinitialize the LPUART peripheral registers to their default reset values.">
<polygon fill="white" stroke="black" points="0,-342.5 0,-361.5 108,-361.5 108,-342.5 0,-342.5"/>
<text text-anchor="middle" x="54" y="-349.5" font-family="Helvetica,sans-Serif" font-size="10.00">HAL_LPUART_DeInit</text>
</a>
</g>
</g>
<!-- Node56&#45;&gt;Node61 -->
<g id="edge5" class="edge"><title>Node56&#45;&gt;Node61</title>
<path fill="none" stroke="midnightblue" d="M176.029,-279.486C158.787,-296.103 133.508,-318.302 108,-333 101.648,-336.66 94.4688,-339.806 87.4923,-342.426"/>
<polygon fill="midnightblue" stroke="midnightblue" points="178.673,-281.794 183.357,-272.291 173.769,-276.799 178.673,-281.794"/>
</g>
<!-- Node62 -->
<g id="node7" class="node"><title>Node62</title>
<g id="a_node7"><a xlink:href="_a31_l12x__hal__lpuart_8c.html#a4842723facd9651d1445256c52d0df7f" target="_top" xlink:title="Initialize the LPUART peripheral with the specified parameters.">
<polygon fill="white" stroke="black" points="6,-304.5 6,-323.5 102,-323.5 102,-304.5 6,-304.5"/>
<text text-anchor="middle" x="54" y="-311.5" font-family="Helvetica,sans-Serif" font-size="10.00">HAL_LPUART_Init</text>
</a>
</g>
</g>
<!-- Node56&#45;&gt;Node62 -->
<g id="edge6" class="edge"><title>Node56&#45;&gt;Node62</title>
<path fill="none" stroke="midnightblue" d="M154.242,-276.048C139.61,-282.264 123.166,-289.085 108,-295 99.804,-298.197 90.8202,-301.494 82.6155,-304.426"/>
<polygon fill="midnightblue" stroke="midnightblue" points="155.743,-279.213 163.565,-272.066 152.994,-272.776 155.743,-279.213"/>
</g>
<!-- Node63 -->
<g id="node8" class="node"><title>Node63</title>
<g id="a_node8"><a xlink:href="_a31_l12x__hal__rtcc_8c.html#a299bf6ca2cbe263d92e981299694bcec" target="_top" xlink:title="Close RTCC.">
<polygon fill="white" stroke="black" points="6,-266.5 6,-285.5 102,-285.5 102,-266.5 6,-266.5"/>
<text text-anchor="middle" x="54" y="-273.5" font-family="Helvetica,sans-Serif" font-size="10.00">HAL_RTCC_DeInit</text>
</a>
</g>
</g>
<!-- Node56&#45;&gt;Node63 -->
<g id="edge7" class="edge"><title>Node56&#45;&gt;Node63</title>
<path fill="none" stroke="midnightblue" d="M133.809,-265.529C123.141,-266.946 112.254,-268.393 102.111,-269.74"/>
<polygon fill="midnightblue" stroke="midnightblue" points="134.486,-268.97 143.938,-264.183 133.564,-262.031 134.486,-268.97"/>
</g>
<!-- Node64 -->
<g id="node9" class="node"><title>Node64</title>
<g id="a_node9"><a xlink:href="_a31_l12x__hal__scn_8c.html#a77892ea94b0cde94c395afd6461ddfbf" target="_top" xlink:title="Deinitialize the SCn peripheral registers to their default reset values.">
<polygon fill="white" stroke="black" points="12,-228.5 12,-247.5 96,-247.5 96,-228.5 12,-228.5"/>
<text text-anchor="middle" x="54" y="-235.5" font-family="Helvetica,sans-Serif" font-size="10.00">HAL_SC_DeInit</text>
</a>
</g>
</g>
<!-- Node56&#45;&gt;Node64 -->
<g id="edge8" class="edge"><title>Node56&#45;&gt;Node64</title>
<path fill="none" stroke="midnightblue" d="M133.797,-248.47C121.03,-246.773 107.949,-245.035 96.2056,-243.475"/>
<polygon fill="midnightblue" stroke="midnightblue" points="133.564,-251.969 143.938,-249.817 134.486,-245.03 133.564,-251.969"/>
</g>
<!-- Node65 -->
<g id="node10" class="node"><title>Node65</title>
<g id="a_node10"><a xlink:href="_a31_l12x__hal__scn_8c.html#ab3874bdeb76d2ee4368e18e8bcb2816f" target="_top" xlink:title="Initialize the SCn peripheral with the specified parameters.">
<polygon fill="white" stroke="black" points="18,-190.5 18,-209.5 90,-209.5 90,-190.5 18,-190.5"/>
<text text-anchor="middle" x="54" y="-197.5" font-family="Helvetica,sans-Serif" font-size="10.00">HAL_SC_Init</text>
</a>
</g>
</g>
<!-- Node56&#45;&gt;Node65 -->
<g id="edge9" class="edge"><title>Node56&#45;&gt;Node65</title>
<path fill="none" stroke="midnightblue" d="M154.242,-237.952C139.61,-231.736 123.166,-224.915 108,-219 99.804,-215.803 90.8202,-212.506 82.6155,-209.574"/>
<polygon fill="midnightblue" stroke="midnightblue" points="152.994,-241.224 163.565,-241.934 155.743,-234.787 152.994,-241.224"/>
</g>
<!-- Node66 -->
<g id="node11" class="node"><title>Node66</title>
<g id="a_node11"><a xlink:href="_a31_l12x__hal__spin_8c.html#aa04293967566099d8ae083b36b82f644" target="_top" xlink:title="Initialize the SPIn peripheral with the specified parameters.">
<polygon fill="white" stroke="black" points="14,-152.5 14,-171.5 94,-171.5 94,-152.5 14,-152.5"/>
<text text-anchor="middle" x="54" y="-159.5" font-family="Helvetica,sans-Serif" font-size="10.00">HAL_SPIn_Init</text>
</a>
</g>
</g>
<!-- Node56&#45;&gt;Node66 -->
<g id="edge10" class="edge"><title>Node56&#45;&gt;Node66</title>
<path fill="none" stroke="midnightblue" d="M176.029,-234.514C158.787,-217.897 133.508,-195.698 108,-181 101.648,-177.34 94.4688,-174.194 87.4923,-171.574"/>
<polygon fill="midnightblue" stroke="midnightblue" points="173.769,-237.201 183.357,-241.709 178.673,-232.206 173.769,-237.201"/>
</g>
<!-- Node67 -->
<g id="node12" class="node"><title>Node67</title>
<g id="a_node12"><a xlink:href="_a31_l12x__hal__uartn_8c.html#a6d12dc7f5d3ca7341d77a9526d33f88a" target="_top" xlink:title="Deinitialize the UARTn peripheral registers to their default reset values.">
<polygon fill="white" stroke="black" points="6,-114.5 6,-133.5 102,-133.5 102,-114.5 6,-114.5"/>
<text text-anchor="middle" x="54" y="-121.5" font-family="Helvetica,sans-Serif" font-size="10.00">HAL_UART_DeInit</text>
</a>
</g>
</g>
<!-- Node56&#45;&gt;Node67 -->
<g id="edge11" class="edge"><title>Node56&#45;&gt;Node67</title>
<path fill="none" stroke="midnightblue" d="M184.708,-233.124C169.326,-207.511 141.733,-167.254 108,-143 102.683,-139.177 96.5183,-136.053 90.3145,-133.525"/>
<polygon fill="midnightblue" stroke="midnightblue" points="181.739,-234.98 189.812,-241.842 187.78,-231.443 181.739,-234.98"/>
</g>
<!-- Node68 -->
<g id="node13" class="node"><title>Node68</title>
<g id="a_node13"><a xlink:href="_a31_l12x__hal__usart1n_8c.html#a4633ef2cbe207a5af1ff23eac3852cad" target="_top" xlink:title="Deinitialize the USART1n peripheral registers to their default reset values.">
<polygon fill="white" stroke="black" points="2.5,-76.5 2.5,-95.5 105.5,-95.5 105.5,-76.5 2.5,-76.5"/>
<text text-anchor="middle" x="54" y="-83.5" font-family="Helvetica,sans-Serif" font-size="10.00">HAL_USART_DeInit</text>
</a>
</g>
</g>
<!-- Node56&#45;&gt;Node68 -->
<g id="edge12" class="edge"><title>Node56&#45;&gt;Node68</title>
<path fill="none" stroke="midnightblue" d="M189.475,-232.223C176.772,-198.804 149.791,-139.506 108,-105 103.327,-101.141 97.8084,-98.0373 92.1285,-95.5487"/>
<polygon fill="midnightblue" stroke="midnightblue" points="186.226,-233.528 192.96,-241.708 192.797,-231.114 186.226,-233.528"/>
</g>
<!-- Node69 -->
<g id="node14" class="node"><title>Node69</title>
<g id="a_node14"><a xlink:href="_a31_l12x__hal__usart1n_8c.html#a2095d581460704baf96d9ba7f552db19" target="_top" xlink:title="Initialize the USART1n peripheral with the specified parameters.">
<polygon fill="white" stroke="black" points="8.5,-38.5 8.5,-57.5 99.5,-57.5 99.5,-38.5 8.5,-38.5"/>
<text text-anchor="middle" x="54" y="-45.5" font-family="Helvetica,sans-Serif" font-size="10.00">HAL_USART_Init</text>
</a>
</g>
</g>
<!-- Node56&#45;&gt;Node69 -->
<g id="edge13" class="edge"><title>Node56&#45;&gt;Node69</title>
<path fill="none" stroke="midnightblue" d="M192.685,-232.007C182.868,-191.745 158.148,-112.452 108,-67 103.727,-63.127 98.6083,-60.03 93.2608,-57.557"/>
<polygon fill="midnightblue" stroke="midnightblue" points="189.292,-232.868 194.968,-241.814 196.11,-231.281 189.292,-232.868"/>
</g>
<!-- Node70 -->
<g id="node15" class="node"><title>Node70</title>
<g id="a_node15"><a xlink:href="_a31_l12x__hal__spin_8c.html#a6d7dc13e38ad6bf1735a99d7b9322316" target="_top" xlink:title="Deinitialize the SPIn peripheral registers to their default reset values.">
<polygon fill="white" stroke="black" points="20,-0.5 20,-19.5 88,-19.5 88,-0.5 20,-0.5"/>
<text text-anchor="middle" x="54" y="-7.5" font-family="Helvetica,sans-Serif" font-size="10.00">SPIn_DeInit</text>
</a>
</g>
</g>
<!-- Node56&#45;&gt;Node70 -->
<g id="edge14" class="edge"><title>Node56&#45;&gt;Node70</title>
<path fill="none" stroke="midnightblue" d="M194.901,-231.771C187.887,-185.298 166.574,-85.7437 108,-29 102.454,-23.627 95.2833,-19.7608 88.0194,-16.9831"/>
<polygon fill="midnightblue" stroke="midnightblue" points="191.464,-232.461 196.324,-241.875 198.395,-231.485 191.464,-232.461"/>
</g>
</g>
</svg>
