<?xml version="1.0" encoding="UTF-8" standalone="no"?>
<!DOCTYPE svg PUBLIC "-//W3C//DTD SVG 1.1//EN"
 "http://www.w3.org/Graphics/SVG/1.1/DTD/svg11.dtd">
<!-- Generated by graphviz version 2.38.0 (20140413.2041)
 -->
<!-- Title: HAL_I2C_Slave_Receive Pages: 1 -->
<svg width="462pt" height="104pt"
 viewBox="0.00 0.00 462.00 104.00" xmlns="http://www.w3.org/2000/svg" xmlns:xlink="http://www.w3.org/1999/xlink">
<g id="graph0" class="graph" transform="scale(1 1) rotate(0) translate(4 100)">
<title>HAL_I2C_Slave_Receive</title>
<polygon fill="white" stroke="none" points="-4,4 -4,-100 458,-100 458,4 -4,4"/>
<!-- Node57 -->
<g id="node1" class="node"><title>Node57</title>
<g id="a_node1"><a xlink:title="Receive an array of bytes in Slave mode.">
<polygon fill="#bfbfbf" stroke="black" points="0,-38.5 0,-57.5 122,-57.5 122,-38.5 0,-38.5"/>
<text text-anchor="middle" x="61" y="-45.5" font-family="Helvetica,sans-Serif" font-size="10.00">HAL_I2C_Slave_Receive</text>
</a>
</g>
</g>
<!-- Node58 -->
<g id="node2" class="node"><title>Node58</title>
<g id="a_node2"><a xlink:href="_a31_l12x__hal__i2cn_8c.html#a230a36cb1065e9502cb7c0a75ec540a9" target="_top" xlink:title="Receive and Transmit data in slave mode.">
<polygon fill="white" stroke="black" points="158,-38.5 158,-57.5 296,-57.5 296,-38.5 158,-38.5"/>
<text text-anchor="middle" x="227" y="-45.5" font-family="Helvetica,sans-Serif" font-size="10.00">HAL_I2C_SlaveTransferData</text>
</a>
</g>
</g>
<!-- Node57&#45;&gt;Node58 -->
<g id="edge1" class="edge"><title>Node57&#45;&gt;Node58</title>
<path fill="none" stroke="midnightblue" d="M122.136,-48C130.481,-48 139.152,-48 147.767,-48"/>
<polygon fill="midnightblue" stroke="midnightblue" points="147.831,-51.5001 157.831,-48 147.831,-44.5001 147.831,-51.5001"/>
</g>
<!-- Node59 -->
<g id="node3" class="node"><title>Node59</title>
<g id="a_node3"><a xlink:href="_a31_l12x__hal__i2cn_8c.html#a133ae17b04b34797ec747141b0a4d4e9" target="_top" xlink:title="Enable/Disable interrupt for I2C peripheral.">
<polygon fill="white" stroke="black" points="332,-76.5 332,-95.5 454,-95.5 454,-76.5 332,-76.5"/>
<text text-anchor="middle" x="393" y="-83.5" font-family="Helvetica,sans-Serif" font-size="10.00">HAL_I2C_ConfigInterrupt</text>
</a>
</g>
</g>
<!-- Node58&#45;&gt;Node59 -->
<g id="edge2" class="edge"><title>Node58&#45;&gt;Node59</title>
<path fill="none" stroke="midnightblue" d="M269.384,-57.589C291.123,-62.6261 317.957,-68.8438 340.975,-74.1771"/>
<polygon fill="midnightblue" stroke="midnightblue" points="340.381,-77.6323 350.913,-76.4799 341.962,-70.8129 340.381,-77.6323"/>
</g>
<!-- Node60 -->
<g id="node4" class="node"><title>Node60</title>
<g id="a_node4"><a xlink:href="_a31_l12x__hal__i2cn_8c.html#afd408e2448333d4efa4b237c73a8cfcb" target="_top" xlink:title="Convert from I2C peripheral to number.">
<polygon fill="white" stroke="black" points="355.5,-38.5 355.5,-57.5 430.5,-57.5 430.5,-38.5 355.5,-38.5"/>
<text text-anchor="middle" x="393" y="-45.5" font-family="Helvetica,sans-Serif" font-size="10.00">I2Cn_getNum</text>
</a>
</g>
</g>
<!-- Node58&#45;&gt;Node60 -->
<g id="edge3" class="edge"><title>Node58&#45;&gt;Node60</title>
<path fill="none" stroke="midnightblue" d="M296.126,-48C312.572,-48 329.785,-48 345.014,-48"/>
<polygon fill="midnightblue" stroke="midnightblue" points="345.206,-51.5001 355.206,-48 345.206,-44.5001 345.206,-51.5001"/>
</g>
<!-- Node61 -->
<g id="node5" class="node"><title>Node61</title>
<g id="a_node5"><a xlink:href="_a31_l12x__hal__i2cn_8c.html#a15e9a4755791cd7daaeb8025b47d4076" target="_top" xlink:title="wait and return status in slave mode">
<polygon fill="white" stroke="black" points="359,-0.5 359,-19.5 427,-19.5 427,-0.5 359,-0.5"/>
<text text-anchor="middle" x="393" y="-7.5" font-family="Helvetica,sans-Serif" font-size="10.00">I2Cn_SWait</text>
</a>
</g>
</g>
<!-- Node58&#45;&gt;Node61 -->
<g id="edge4" class="edge"><title>Node58&#45;&gt;Node61</title>
<path fill="none" stroke="midnightblue" d="M269.384,-38.411C293.737,-32.7683 324.483,-25.6441 349.095,-19.9413"/>
<polygon fill="midnightblue" stroke="midnightblue" points="349.934,-23.3397 358.886,-17.6727 348.354,-16.5204 349.934,-23.3397"/>
</g>
</g>
</svg>
