<?xml version="1.0" encoding="UTF-8" standalone="no"?>
<!DOCTYPE svg PUBLIC "-//W3C//DTD SVG 1.1//EN"
 "http://www.w3.org/Graphics/SVG/1.1/DTD/svg11.dtd">
<!-- Generated by graphviz version 2.38.0 (20140413.2041)
 -->
<!-- Title: HAL_USART_ReceiveByte Pages: 1 -->
<svg width="288pt" height="66pt"
 viewBox="0.00 0.00 288.00 66.00" xmlns="http://www.w3.org/2000/svg" xmlns:xlink="http://www.w3.org/1999/xlink">
<g id="graph0" class="graph" transform="scale(1 1) rotate(0) translate(4 62)">
<title>HAL_USART_ReceiveByte</title>
<polygon fill="white" stroke="none" points="-4,4 -4,-62 284,-62 284,4 -4,4"/>
<!-- Node31 -->
<g id="node1" class="node"><title>Node31</title>
<g id="a_node1"><a xlink:title="Receive a single data from USART peripheral.">
<polygon fill="#bfbfbf" stroke="black" points="148,-19.5 148,-38.5 280,-38.5 280,-19.5 148,-19.5"/>
<text text-anchor="middle" x="214" y="-26.5" font-family="Helvetica,sans-Serif" font-size="10.00">HAL_USART_ReceiveByte</text>
</a>
</g>
</g>
<!-- Node32 -->
<g id="node2" class="node"><title>Node32</title>
<g id="a_node2"><a xlink:href="_a31_l12x__hal__usart1n_8c.html#a2095d581460704baf96d9ba7f552db19" target="_top" xlink:title="Initialize the USART1n peripheral with the specified parameters.">
<polygon fill="white" stroke="black" points="10.5,-38.5 10.5,-57.5 101.5,-57.5 101.5,-38.5 10.5,-38.5"/>
<text text-anchor="middle" x="56" y="-45.5" font-family="Helvetica,sans-Serif" font-size="10.00">HAL_USART_Init</text>
</a>
</g>
</g>
<!-- Node31&#45;&gt;Node32 -->
<g id="edge1" class="edge"><title>Node31&#45;&gt;Node32</title>
<path fill="none" stroke="midnightblue" d="M137.482,-38.1977C125.208,-39.6926 112.852,-41.1975 101.632,-42.5641"/>
<polygon fill="midnightblue" stroke="midnightblue" points="138.242,-41.631 147.746,-36.9476 137.396,-34.6824 138.242,-41.631"/>
</g>
<!-- Node33 -->
<g id="node3" class="node"><title>Node33</title>
<g id="a_node3"><a xlink:href="_a31_l12x__hal__usart1n_8c.html#a4aecc404a5e0f5569ac7c3c739d3d8d1" target="_top" xlink:title="Receive a block of data via USART peripheral.">
<polygon fill="white" stroke="black" points="0,-0.5 0,-19.5 112,-19.5 112,-0.5 0,-0.5"/>
<text text-anchor="middle" x="56" y="-7.5" font-family="Helvetica,sans-Serif" font-size="10.00">HAL_USART_Receive</text>
</a>
</g>
</g>
<!-- Node31&#45;&gt;Node33 -->
<g id="edge2" class="edge"><title>Node31&#45;&gt;Node33</title>
<path fill="none" stroke="midnightblue" d="M137.672,-19.8254C129.052,-18.7755 120.388,-17.7203 112.103,-16.7112"/>
<polygon fill="midnightblue" stroke="midnightblue" points="137.396,-23.3176 147.746,-21.0524 138.242,-16.369 137.396,-23.3176"/>
</g>
</g>
</svg>
