<?xml version="1.0" encoding="UTF-8" standalone="no"?>
<!DOCTYPE svg PUBLIC "-//W3C//DTD SVG 1.1//EN"
 "http://www.w3.org/Graphics/SVG/1.1/DTD/svg11.dtd">
<!-- Generated by graphviz version 2.38.0 (20140413.2041)
 -->
<!-- Title: HAL_I2C_Master_Transmit Pages: 1 -->
<svg width="480pt" height="104pt"
 viewBox="0.00 0.00 480.00 104.00" xmlns="http://www.w3.org/2000/svg" xmlns:xlink="http://www.w3.org/1999/xlink">
<g id="graph0" class="graph" transform="scale(1 1) rotate(0) translate(4 100)">
<title>HAL_I2C_Master_Transmit</title>
<polygon fill="white" stroke="none" points="-4,4 -4,-100 476,-100 476,4 -4,4"/>
<!-- Node27 -->
<g id="node1" class="node"><title>Node27</title>
<g id="a_node1"><a xlink:title="Transmit an array of bytes in Master mode.">
<polygon fill="#bfbfbf" stroke="black" points="0,-38.5 0,-57.5 133,-57.5 133,-38.5 0,-38.5"/>
<text text-anchor="middle" x="66.5" y="-45.5" font-family="Helvetica,sans-Serif" font-size="10.00">HAL_I2C_Master_Transmit</text>
</a>
</g>
</g>
<!-- Node28 -->
<g id="node2" class="node"><title>Node28</title>
<g id="a_node2"><a xlink:href="_a31_l12x__hal__i2cn_8c.html#aedbb9343dec1237085f9e9f1bc1a033d" target="_top" xlink:title="Transmit and Receive data in master mode.">
<polygon fill="white" stroke="black" points="169,-38.5 169,-57.5 314,-57.5 314,-38.5 169,-38.5"/>
<text text-anchor="middle" x="241.5" y="-45.5" font-family="Helvetica,sans-Serif" font-size="10.00">HAL_I2C_MasterTransferData</text>
</a>
</g>
</g>
<!-- Node27&#45;&gt;Node28 -->
<g id="edge1" class="edge"><title>Node27&#45;&gt;Node28</title>
<path fill="none" stroke="midnightblue" d="M133.397,-48C141.612,-48 150.089,-48 158.509,-48"/>
<polygon fill="midnightblue" stroke="midnightblue" points="158.73,-51.5001 168.73,-48 158.73,-44.5001 158.73,-51.5001"/>
</g>
<!-- Node29 -->
<g id="node3" class="node"><title>Node29</title>
<g id="a_node3"><a xlink:href="_a31_l12x__hal__i2cn_8c.html#a4a2199129f04199e68f6f52bdaefcbdb" target="_top" xlink:title="wait and return status in master mode">
<polygon fill="white" stroke="black" points="376,-76.5 376,-95.5 446,-95.5 446,-76.5 376,-76.5"/>
<text text-anchor="middle" x="411" y="-83.5" font-family="Helvetica,sans-Serif" font-size="10.00">I2Cn_MWait</text>
</a>
</g>
</g>
<!-- Node28&#45;&gt;Node29 -->
<g id="edge2" class="edge"><title>Node28&#45;&gt;Node29</title>
<path fill="none" stroke="midnightblue" d="M284.767,-57.589C309.554,-63.2124 340.827,-70.3071 365.921,-76"/>
<polygon fill="midnightblue" stroke="midnightblue" points="365.382,-79.4665 375.908,-78.2658 366.93,-72.64 365.382,-79.4665"/>
</g>
<!-- Node30 -->
<g id="node4" class="node"><title>Node30</title>
<g id="a_node4"><a xlink:href="_a31_l12x__hal__i2cn_8c.html#afd408e2448333d4efa4b237c73a8cfcb" target="_top" xlink:title="Convert from I2C peripheral to number.">
<polygon fill="white" stroke="black" points="373.5,-38.5 373.5,-57.5 448.5,-57.5 448.5,-38.5 373.5,-38.5"/>
<text text-anchor="middle" x="411" y="-45.5" font-family="Helvetica,sans-Serif" font-size="10.00">I2Cn_getNum</text>
</a>
</g>
</g>
<!-- Node28&#45;&gt;Node30 -->
<g id="edge3" class="edge"><title>Node28&#45;&gt;Node30</title>
<path fill="none" stroke="midnightblue" d="M314.021,-48C330.637,-48 347.91,-48 363.147,-48"/>
<polygon fill="midnightblue" stroke="midnightblue" points="363.337,-51.5001 373.337,-48 363.337,-44.5001 363.337,-51.5001"/>
</g>
<!-- Node31 -->
<g id="node5" class="node"><title>Node31</title>
<g id="a_node5"><a xlink:href="_a31_l12x__hal__i2cn_8c.html#a133ae17b04b34797ec747141b0a4d4e9" target="_top" xlink:title="Enable/Disable interrupt for I2C peripheral.">
<polygon fill="white" stroke="black" points="350,-0.5 350,-19.5 472,-19.5 472,-0.5 350,-0.5"/>
<text text-anchor="middle" x="411" y="-7.5" font-family="Helvetica,sans-Serif" font-size="10.00">HAL_I2C_ConfigInterrupt</text>
</a>
</g>
</g>
<!-- Node28&#45;&gt;Node31 -->
<g id="edge4" class="edge"><title>Node28&#45;&gt;Node31</title>
<path fill="none" stroke="midnightblue" d="M284.767,-38.411C307.07,-33.3513 334.623,-27.1004 358.202,-21.7512"/>
<polygon fill="midnightblue" stroke="midnightblue" points="359.059,-25.1458 368.037,-19.5201 357.51,-18.3193 359.059,-25.1458"/>
</g>
</g>
</svg>
