<?xml version="1.0" encoding="UTF-8" standalone="no"?>
<!DOCTYPE svg PUBLIC "-//W3C//DTD SVG 1.1//EN"
 "http://www.w3.org/Graphics/SVG/1.1/DTD/svg11.dtd">
<!-- Generated by graphviz version 2.38.0 (20140413.2041)
 -->
<!-- Title: HAL_LPUART_Transmit Pages: 1 -->
<svg width="306pt" height="66pt"
 viewBox="0.00 0.00 306.00 66.00" xmlns="http://www.w3.org/2000/svg" xmlns:xlink="http://www.w3.org/1999/xlink">
<g id="graph0" class="graph" transform="scale(1 1) rotate(0) translate(4 62)">
<title>HAL_LPUART_Transmit</title>
<polygon fill="white" stroke="none" points="-4,4 -4,-62 302,-62 302,4 -4,4"/>
<!-- Node30 -->
<g id="node1" class="node"><title>Node30</title>
<g id="a_node1"><a xlink:title="Send a block of data via LPUART peripheral.">
<polygon fill="#bfbfbf" stroke="black" points="0,-19.5 0,-38.5 121,-38.5 121,-19.5 0,-19.5"/>
<text text-anchor="middle" x="60.5" y="-26.5" font-family="Helvetica,sans-Serif" font-size="10.00">HAL_LPUART_Transmit</text>
</a>
</g>
</g>
<!-- Node31 -->
<g id="node2" class="node"><title>Node31</title>
<g id="a_node2"><a xlink:href="_a31_l12x__hal__lpuart_8c.html#a295a69e51a5bf380cf6f2bc7e9f3e8ee" target="_top" xlink:title="This function clears Interrupt Flag and Status Register.">
<polygon fill="white" stroke="black" points="160.5,-38.5 160.5,-57.5 294.5,-57.5 294.5,-38.5 160.5,-38.5"/>
<text text-anchor="middle" x="227.5" y="-45.5" font-family="Helvetica,sans-Serif" font-size="10.00">HAL_LPUART_ClearStatus</text>
</a>
</g>
</g>
<!-- Node30&#45;&gt;Node31 -->
<g id="edge1" class="edge"><title>Node30&#45;&gt;Node31</title>
<path fill="none" stroke="midnightblue" d="M121.069,-35.8594C130.523,-36.9481 140.414,-38.0871 150.189,-39.2126"/>
<polygon fill="midnightblue" stroke="midnightblue" points="149.974,-42.711 160.309,-40.378 150.775,-35.757 149.974,-42.711"/>
</g>
<!-- Node32 -->
<g id="node3" class="node"><title>Node32</title>
<g id="a_node3"><a xlink:href="_a31_l12x__hal__lpuart_8c.html#aaf73affb624f8363d0a9ed8d8327efe2" target="_top" xlink:title="Transmit a single data through USART peripheral.">
<polygon fill="white" stroke="black" points="157,-0.5 157,-19.5 298,-19.5 298,-0.5 157,-0.5"/>
<text text-anchor="middle" x="227.5" y="-7.5" font-family="Helvetica,sans-Serif" font-size="10.00">HAL_LPUART_TransmitByte</text>
</a>
</g>
</g>
<!-- Node30&#45;&gt;Node32 -->
<g id="edge2" class="edge"><title>Node30&#45;&gt;Node32</title>
<path fill="none" stroke="midnightblue" d="M121.069,-22.1406C129.429,-21.1779 138.13,-20.176 146.789,-19.1788"/>
<polygon fill="midnightblue" stroke="midnightblue" points="147.38,-22.634 156.914,-18.013 146.579,-15.68 147.38,-22.634"/>
</g>
</g>
</svg>
