<?xml version="1.0" encoding="UTF-8" standalone="no"?>
<!DOCTYPE svg PUBLIC "-//W3C//DTD SVG 1.1//EN"
 "http://www.w3.org/Graphics/SVG/1.1/DTD/svg11.dtd">
<!-- Generated by graphviz version 2.38.0 (20140413.2041)
 -->
<!-- Title: HAL_I2C_MasterTransferData Pages: 1 -->
<svg width="322pt" height="66pt"
 viewBox="0.00 0.00 322.00 66.00" xmlns="http://www.w3.org/2000/svg" xmlns:xlink="http://www.w3.org/1999/xlink">
<g id="graph0" class="graph" transform="scale(1 1) rotate(0) translate(4 62)">
<title>HAL_I2C_MasterTransferData</title>
<polygon fill="white" stroke="none" points="-4,4 -4,-62 318,-62 318,4 -4,4"/>
<!-- Node37 -->
<g id="node1" class="node"><title>Node37</title>
<g id="a_node1"><a xlink:title="Transmit and Receive data in master mode.">
<polygon fill="#bfbfbf" stroke="black" points="169,-19.5 169,-38.5 314,-38.5 314,-19.5 169,-19.5"/>
<text text-anchor="middle" x="241.5" y="-26.5" font-family="Helvetica,sans-Serif" font-size="10.00">HAL_I2C_MasterTransferData</text>
</a>
</g>
</g>
<!-- Node38 -->
<g id="node2" class="node"><title>Node38</title>
<g id="a_node2"><a xlink:href="_a31_l12x__hal__i2cn_8c.html#a337d999754c0228153031bd7c5b8e373" target="_top" xlink:title="Receive an array of bytes in Master mode.">
<polygon fill="white" stroke="black" points="2,-38.5 2,-57.5 131,-57.5 131,-38.5 2,-38.5"/>
<text text-anchor="middle" x="66.5" y="-45.5" font-family="Helvetica,sans-Serif" font-size="10.00">HAL_I2C_Master_Receive</text>
</a>
</g>
</g>
<!-- Node37&#45;&gt;Node38 -->
<g id="edge1" class="edge"><title>Node37&#45;&gt;Node38</title>
<path fill="none" stroke="midnightblue" d="M158.815,-37.9712C149.488,-38.9955 140.086,-40.0281 131.045,-41.021"/>
<polygon fill="midnightblue" stroke="midnightblue" points="159.327,-41.436 168.885,-36.8652 158.563,-34.4779 159.327,-41.436"/>
</g>
<!-- Node39 -->
<g id="node3" class="node"><title>Node39</title>
<g id="a_node3"><a xlink:href="_a31_l12x__hal__i2cn_8c.html#a4a5a63c71ed30b538bdbf7ca49e3f594" target="_top" xlink:title="Transmit an array of bytes in Master mode.">
<polygon fill="white" stroke="black" points="0,-0.5 0,-19.5 133,-19.5 133,-0.5 0,-0.5"/>
<text text-anchor="middle" x="66.5" y="-7.5" font-family="Helvetica,sans-Serif" font-size="10.00">HAL_I2C_Master_Transmit</text>
</a>
</g>
</g>
<!-- Node37&#45;&gt;Node39 -->
<g id="edge2" class="edge"><title>Node37&#45;&gt;Node39</title>
<path fill="none" stroke="midnightblue" d="M158.855,-20.0332C150.267,-19.09 141.616,-18.1399 133.241,-17.2201"/>
<polygon fill="midnightblue" stroke="midnightblue" points="158.563,-23.5221 168.885,-21.1348 159.327,-16.564 158.563,-23.5221"/>
</g>
</g>
</svg>
