<?xml version="1.0" encoding="UTF-8" standalone="no"?>
<!DOCTYPE svg PUBLIC "-//W3C//DTD SVG 1.1//EN"
 "http://www.w3.org/Graphics/SVG/1.1/DTD/svg11.dtd">
<!-- Generated by graphviz version 2.38.0 (20140413.2041)
 -->
<!-- Title: UARTPutHex16 Pages: 1 -->
<svg width="516pt" height="28pt"
 viewBox="0.00 0.00 516.00 28.00" xmlns="http://www.w3.org/2000/svg" xmlns:xlink="http://www.w3.org/1999/xlink">
<g id="graph0" class="graph" transform="scale(1 1) rotate(0) translate(4 24)">
<title>UARTPutHex16</title>
<polygon fill="white" stroke="none" points="-4,4 -4,-24 512,-24 512,4 -4,4"/>
<!-- Node85 -->
<g id="node1" class="node"><title>Node85</title>
<g id="a_node1"><a xlink:title="Puts a hex number to UART port.">
<polygon fill="#bfbfbf" stroke="black" points="0,-0.5 0,-19.5 85,-19.5 85,-0.5 0,-0.5"/>
<text text-anchor="middle" x="42.5" y="-7.5" font-family="Helvetica,sans-Serif" font-size="10.00">UARTPutHex16</text>
</a>
</g>
</g>
<!-- Node86 -->
<g id="node2" class="node"><title>Node86</title>
<g id="a_node2"><a xlink:href="_a31_l12x__hal__debug__frmwrk_8c.html#a7e7f61fa79d52e2ba38085032eab8f5f" target="_top" xlink:title="Puts a character to UART port.">
<polygon fill="white" stroke="black" points="121,-0.5 121,-19.5 198,-19.5 198,-0.5 121,-0.5"/>
<text text-anchor="middle" x="159.5" y="-7.5" font-family="Helvetica,sans-Serif" font-size="10.00">UARTPutChar</text>
</a>
</g>
</g>
<!-- Node85&#45;&gt;Node86 -->
<g id="edge1" class="edge"><title>Node85&#45;&gt;Node86</title>
<path fill="none" stroke="midnightblue" d="M85.0176,-10C93.3422,-10 102.152,-10 110.671,-10"/>
<polygon fill="midnightblue" stroke="midnightblue" points="110.865,-13.5001 120.865,-10 110.865,-6.5001 110.865,-13.5001"/>
</g>
<!-- Node87 -->
<g id="node3" class="node"><title>Node87</title>
<g id="a_node3"><a xlink:href="_a31_l12x__hal__uartn_8h.html#ab1488eccbac797387079ab39be51ac38" target="_top" xlink:title="Send a block of data via UART peripheral.">
<polygon fill="white" stroke="black" points="234,-0.5 234,-19.5 343,-19.5 343,-0.5 234,-0.5"/>
<text text-anchor="middle" x="288.5" y="-7.5" font-family="Helvetica,sans-Serif" font-size="10.00">HAL_UART_Transmit</text>
</a>
</g>
</g>
<!-- Node86&#45;&gt;Node87 -->
<g id="edge2" class="edge"><title>Node86&#45;&gt;Node87</title>
<path fill="none" stroke="midnightblue" d="M198.26,-10C206.248,-10 214.891,-10 223.544,-10"/>
<polygon fill="midnightblue" stroke="midnightblue" points="223.669,-13.5001 233.669,-10 223.669,-6.5001 223.669,-13.5001"/>
</g>
<!-- Node88 -->
<g id="node4" class="node"><title>Node88</title>
<g id="a_node4"><a xlink:href="_a31_l12x__hal__uartn_8c.html#aa7dfea0108c5ea92d4bc9f5c79ef9e4d" target="_top" xlink:title="Transmit a single data through UART peripheral.">
<polygon fill="white" stroke="black" points="379,-0.5 379,-19.5 508,-19.5 508,-0.5 379,-0.5"/>
<text text-anchor="middle" x="443.5" y="-7.5" font-family="Helvetica,sans-Serif" font-size="10.00">HAL_UART_TransmitByte</text>
</a>
</g>
</g>
<!-- Node87&#45;&gt;Node88 -->
<g id="edge3" class="edge"><title>Node87&#45;&gt;Node88</title>
<path fill="none" stroke="midnightblue" d="M343.012,-10C351.312,-10 360.009,-10 368.661,-10"/>
<polygon fill="midnightblue" stroke="midnightblue" points="368.771,-13.5001 378.771,-10 368.771,-6.5001 368.771,-13.5001"/>
</g>
</g>
</svg>
