<?xml version="1.0" encoding="UTF-8" standalone="no"?>
<!DOCTYPE svg PUBLIC "-//W3C//DTD SVG 1.1//EN"
 "http://www.w3.org/Graphics/SVG/1.1/DTD/svg11.dtd">
<!-- Generated by graphviz version 2.38.0 (20140413.2041)
 -->
<!-- Title: HAL_UART_Transmit Pages: 1 -->
<!--zoomable 351 -->
<svg id="main" version="1.1" xmlns="http://www.w3.org/2000/svg" xmlns:xlink="http://www.w3.org/1999/xlink" xml:space="preserve" onload="init(evt)">
<style type="text/css"><![CDATA[
.edge:hover path { stroke: red; }
.edge:hover polygon { stroke: red; fill: red; }
]]></style>
<script type="text/javascript"><![CDATA[
var edges = document.getElementsByTagName('g');
if (edges && edges.length) {
  for (var i=0;i<edges.length;i++) {
    if (edges[i].id.substr(0,4)=='edge') {
      edges[i].setAttribute('class','edge');
    }
  }
}
]]></script>
        <defs>
                <circle id="rim" cx="0" cy="0" r="7"/>
                <circle id="rim2" cx="0" cy="0" r="3.5"/>
                <g id="zoomPlus">
                        <use xlink:href="#rim" fill="#404040">
                                <set attributeName="fill" to="#808080" begin="zoomplus.mouseover" end="zoomplus.mouseout"/>
                        </use>
                        <path d="M-4,0h8M0,-4v8" fill="none" stroke="white" stroke-width="1.5" pointer-events="none"/>
                </g>
                <g id="zoomMin">
                        <use xlink:href="#rim" fill="#404040">
                                <set attributeName="fill" to="#808080" begin="zoomminus.mouseover" end="zoomminus.mouseout"/>
                        </use>
                        <path d="M-4,0h8" fill="none" stroke="white" stroke-width="1.5" pointer-events="none"/>
                </g>
                <g id="dirArrow">
                        <path fill="none" stroke="white" stroke-width="1.5" d="M0,-3.0v7 M-2.5,-0.5L0,-3.0L2.5,-0.5"/>
                </g>
               <g id="resetDef">
                       <use xlink:href="#rim2" fill="#404040">
                               <set attributeName="fill" to="#808080" begin="reset.mouseover" end="reset.mouseout"/>
                       </use>
               </g>
        </defs>

<script type="text/javascript">
var viewWidth = 603;
var viewHeight = 351;
var sectionId = 'dynsection-9';
</script>
<script xlink:href="svgpan.js"/>
<svg id="graph" class="graph">
<g id="viewport">
<title>HAL_UART_Transmit</title>
<polygon fill="white" stroke="none" points="-4,4 -4,-347.25 599,-347.25 599,4 -4,4"/>
<!-- Node40 -->
<g id="node1" class="node"><title>Node40</title>
<g id="a_node1"><a xlink:title="Send a block of data via UART peripheral.">
<polygon fill="#bfbfbf" stroke="black" points="486,-190.5 486,-209.5 595,-209.5 595,-190.5 486,-190.5"/>
<text text-anchor="middle" x="540.5" y="-197.5" font-family="Helvetica,sans-Serif" font-size="10.00">HAL_UART_Transmit</text>
</a>
</g>
</g>
<!-- Node41 -->
<g id="node2" class="node"><title>Node41</title>
<g id="a_node2"><a xlink:href="_a31_l12x__hal__debug__frmwrk_8c.html#a7e7f61fa79d52e2ba38085032eab8f5f" target="_top" xlink:title="Puts a character to UART port.">
<polygon fill="white" stroke="black" points="373,-190.5 373,-209.5 450,-209.5 450,-190.5 373,-190.5"/>
<text text-anchor="middle" x="411.5" y="-197.5" font-family="Helvetica,sans-Serif" font-size="10.00">UARTPutChar</text>
</a>
</g>
</g>
<!-- Node40&#45;&gt;Node41 -->
<g id="edge1" class="edge"><title>Node40&#45;&gt;Node41</title>
<path fill="none" stroke="midnightblue" d="M475.53,-200C466.889,-200 458.259,-200 450.282,-200"/>
<polygon fill="midnightblue" stroke="midnightblue" points="475.641,-203.5 485.641,-200 475.641,-196.5 475.641,-203.5"/>
</g>
<!-- Node42 -->
<g id="node3" class="node"><title>Node42</title>
<g id="a_node3"><a xlink:href="_a31_l12x__hal__debug__frmwrk_8c.html#aa79ebfdcc65f8acaa847e9deaecea5a0" target="_top" xlink:title="Initializes Debug Framework through initializing UARTn.">
<polygon fill="white" stroke="black" points="0,-152.5 0,-171.5 95,-171.5 95,-152.5 0,-152.5"/>
<text text-anchor="middle" x="47.5" y="-159.5" font-family="Helvetica,sans-Serif" font-size="10.00">debug_frmwrk_init</text>
</a>
</g>
</g>
<!-- Node41&#45;&gt;Node42 -->
<g id="edge2" class="edge"><title>Node41&#45;&gt;Node42</title>
<path fill="none" stroke="midnightblue" d="M406.295,-219.612C398.565,-250.192 378.891,-308.288 337,-333 304.462,-352.195 289.341,-338.726 252,-333 196.284,-324.457 175.532,-329.557 131,-295 86.9936,-260.851 60.563,-196.107 51.7786,-171.666"/>
<polygon fill="midnightblue" stroke="midnightblue" points="409.743,-220.238 408.622,-209.703 402.929,-218.638 409.743,-220.238"/>
</g>
<!-- Node43 -->
<g id="node4" class="node"><title>Node43</title>
<g id="a_node4"><a xlink:href="_a31_l12x__hal__debug__frmwrk_8c.html#a715f28fa289a7cef9f522fab87a552f6" target="_top" xlink:title="Get a character to UART port.">
<polygon fill="white" stroke="black" points="267.5,-304.5 267.5,-323.5 321.5,-323.5 321.5,-304.5 267.5,-304.5"/>
<text text-anchor="middle" x="294.5" y="-311.5" font-family="Helvetica,sans-Serif" font-size="10.00">getstring</text>
</a>
</g>
</g>
<!-- Node41&#45;&gt;Node43 -->
<g id="edge3" class="edge"><title>Node41&#45;&gt;Node43</title>
<path fill="none" stroke="midnightblue" d="M398.641,-218.158C385.312,-237.598 362.216,-268.538 337,-290 330.535,-295.502 322.634,-300.43 315.467,-304.368"/>
<polygon fill="midnightblue" stroke="midnightblue" points="401.698,-219.883 404.366,-209.63 395.886,-215.982 401.698,-219.883"/>
</g>
<!-- Node44 -->
<g id="node5" class="node"><title>Node44</title>
<g id="a_node5"><a xlink:href="_a31_l12x__hal__debug__frmwrk_8c.html#af53fccf7d1c29be5d91a42179acda532" target="_top" xlink:title="Puts a decimal number to UART port.">
<polygon fill="white" stroke="black" points="136.5,-266.5 136.5,-285.5 210.5,-285.5 210.5,-266.5 136.5,-266.5"/>
<text text-anchor="middle" x="173.5" y="-273.5" font-family="Helvetica,sans-Serif" font-size="10.00">UARTPutDec</text>
</a>
</g>
</g>
<!-- Node41&#45;&gt;Node44 -->
<g id="edge4" class="edge"><title>Node41&#45;&gt;Node44</title>
<path fill="none" stroke="midnightblue" d="M382.893,-214.21C369.313,-220.826 352.555,-228.443 337,-234 294.467,-249.194 243.868,-261.386 210.562,-268.641"/>
<polygon fill="midnightblue" stroke="midnightblue" points="384.756,-217.193 392.158,-209.613 381.644,-210.922 384.756,-217.193"/>
</g>
<!-- Node45 -->
<g id="node6" class="node"><title>Node45</title>
<g id="a_node6"><a xlink:href="_a31_l12x__hal__debug__frmwrk_8c.html#a19c2305345c7e4ff9fd9e9d7a414a4fa" target="_top" xlink:title="Puts a decimal number to UART port.">
<polygon fill="white" stroke="black" points="131,-228.5 131,-247.5 216,-247.5 216,-228.5 131,-228.5"/>
<text text-anchor="middle" x="173.5" y="-235.5" font-family="Helvetica,sans-Serif" font-size="10.00">UARTPutDec16</text>
</a>
</g>
</g>
<!-- Node41&#45;&gt;Node45 -->
<g id="edge6" class="edge"><title>Node41&#45;&gt;Node45</title>
<path fill="none" stroke="midnightblue" d="M362.872,-209.371C354.272,-210.978 345.377,-212.584 337,-214 296.087,-220.915 249.188,-227.722 216.323,-232.311"/>
<polygon fill="midnightblue" stroke="midnightblue" points="363.61,-212.794 372.785,-207.496 362.309,-205.916 363.61,-212.794"/>
</g>
<!-- Node46 -->
<g id="node7" class="node"><title>Node46</title>
<g id="a_node7"><a xlink:href="_a31_l12x__hal__debug__frmwrk_8c.html#a45d2869a186284d1c1cd512f26c2b323" target="_top" xlink:title="Puts a decimal number to UART port.">
<polygon fill="white" stroke="black" points="131,-190.5 131,-209.5 216,-209.5 216,-190.5 131,-190.5"/>
<text text-anchor="middle" x="173.5" y="-197.5" font-family="Helvetica,sans-Serif" font-size="10.00">UARTPutDec32</text>
</a>
</g>
</g>
<!-- Node41&#45;&gt;Node46 -->
<g id="edge8" class="edge"><title>Node41&#45;&gt;Node46</title>
<path fill="none" stroke="midnightblue" d="M362.648,-200C319.733,-200 257.385,-200 216.399,-200"/>
<polygon fill="midnightblue" stroke="midnightblue" points="362.844,-203.5 372.844,-200 362.844,-196.5 362.844,-203.5"/>
</g>
<!-- Node47 -->
<g id="node8" class="node"><title>Node47</title>
<g id="a_node8"><a xlink:href="_a31_l12x__hal__debug__frmwrk_8c.html#ac1245c6492715aa180414d0c36607b59" target="_top" xlink:title="Puts a hex number to UART port.">
<polygon fill="white" stroke="black" points="136.5,-152.5 136.5,-171.5 210.5,-171.5 210.5,-152.5 136.5,-152.5"/>
<text text-anchor="middle" x="173.5" y="-159.5" font-family="Helvetica,sans-Serif" font-size="10.00">UARTPutHex</text>
</a>
</g>
</g>
<!-- Node41&#45;&gt;Node47 -->
<g id="edge10" class="edge"><title>Node41&#45;&gt;Node47</title>
<path fill="none" stroke="midnightblue" d="M362.762,-192.313C317.863,-185.084 251.617,-174.417 210.859,-167.854"/>
<polygon fill="midnightblue" stroke="midnightblue" points="362.415,-195.802 372.844,-193.937 363.528,-188.891 362.415,-195.802"/>
</g>
<!-- Node48 -->
<g id="node9" class="node"><title>Node48</title>
<g id="a_node9"><a xlink:href="_a31_l12x__hal__debug__frmwrk_8c.html#a59a45f0886f0936bec188751583512d6" target="_top" xlink:title="Puts a hex number to UART port.">
<polygon fill="white" stroke="black" points="252,-114.5 252,-133.5 337,-133.5 337,-114.5 252,-114.5"/>
<text text-anchor="middle" x="294.5" y="-121.5" font-family="Helvetica,sans-Serif" font-size="10.00">UARTPutHex16</text>
</a>
</g>
</g>
<!-- Node41&#45;&gt;Node48 -->
<g id="edge12" class="edge"><title>Node41&#45;&gt;Node48</title>
<path fill="none" stroke="midnightblue" d="M389.455,-184.338C374.946,-173.733 355.09,-159.596 337,-148 329.292,-143.059 320.546,-137.933 313.077,-133.694"/>
<polygon fill="midnightblue" stroke="midnightblue" points="387.606,-187.322 397.734,-190.43 391.754,-181.684 387.606,-187.322"/>
</g>
<!-- Node49 -->
<g id="node10" class="node"><title>Node49</title>
<g id="a_node10"><a xlink:href="_a31_l12x__hal__debug__frmwrk_8c.html#ad021b25a594b3e9130884c75615aafa2" target="_top" xlink:title="Puts a hex number to UART port.">
<polygon fill="white" stroke="black" points="252,-76.5 252,-95.5 337,-95.5 337,-76.5 252,-76.5"/>
<text text-anchor="middle" x="294.5" y="-83.5" font-family="Helvetica,sans-Serif" font-size="10.00">UARTPutHex32</text>
</a>
</g>
</g>
<!-- Node41&#45;&gt;Node49 -->
<g id="edge14" class="edge"><title>Node41&#45;&gt;Node49</title>
<path fill="none" stroke="midnightblue" d="M400.025,-181.565C387.376,-160.673 364.356,-126.71 337,-105 332.407,-101.355 327.001,-98.2295 321.637,-95.6279"/>
<polygon fill="midnightblue" stroke="midnightblue" points="397.141,-183.566 405.231,-190.408 403.174,-180.014 397.141,-183.566"/>
</g>
<!-- Node50 -->
<g id="node11" class="node"><title>Node50</title>
<g id="a_node11"><a xlink:href="_a31_l12x__hal__debug__frmwrk_8c.html#afb44a3a4c42d7f28a82882213d38a0b9" target="_top" xlink:title="Puts a string to UART port.">
<polygon fill="white" stroke="black" points="263.5,-38.5 263.5,-57.5 325.5,-57.5 325.5,-38.5 263.5,-38.5"/>
<text text-anchor="middle" x="294.5" y="-45.5" font-family="Helvetica,sans-Serif" font-size="10.00">UARTPuts</text>
</a>
</g>
</g>
<!-- Node41&#45;&gt;Node50 -->
<g id="edge16" class="edge"><title>Node41&#45;&gt;Node50</title>
<path fill="none" stroke="midnightblue" d="M404.269,-180.751C394.232,-152.445 371.994,-99.4466 337,-67 332.933,-63.2286 327.987,-60.0991 322.947,-57.5425"/>
<polygon fill="midnightblue" stroke="midnightblue" points="400.982,-181.958 407.519,-190.296 407.609,-179.702 400.982,-181.958"/>
</g>
<!-- Node44&#45;&gt;Node42 -->
<g id="edge5" class="edge"><title>Node44&#45;&gt;Node42</title>
<path fill="none" stroke="midnightblue" d="M137.96,-261.613C135.533,-260.174 133.185,-258.635 131,-257 97.0731,-231.606 67.1886,-190.143 54.7032,-171.549"/>
<polygon fill="midnightblue" stroke="midnightblue" points="136.477,-264.789 146.952,-266.382 139.757,-258.605 136.477,-264.789"/>
</g>
<!-- Node45&#45;&gt;Node42 -->
<g id="edge7" class="edge"><title>Node45&#45;&gt;Node42</title>
<path fill="none" stroke="midnightblue" d="M140.568,-224.074C137.296,-222.442 134.055,-220.737 131,-219 104.97,-204.2 76.6757,-183.557 60.9104,-171.603"/>
<polygon fill="midnightblue" stroke="midnightblue" points="139.208,-227.303 149.741,-228.448 142.221,-220.985 139.208,-227.303"/>
</g>
<!-- Node46&#45;&gt;Node42 -->
<g id="edge9" class="edge"><title>Node46&#45;&gt;Node42</title>
<path fill="none" stroke="midnightblue" d="M131.595,-187.465C114.727,-182.295 95.4924,-176.401 79.7804,-171.586"/>
<polygon fill="midnightblue" stroke="midnightblue" points="130.623,-190.827 141.21,-190.411 132.674,-184.135 130.623,-190.827"/>
</g>
<!-- Node47&#45;&gt;Node42 -->
<g id="edge11" class="edge"><title>Node47&#45;&gt;Node42</title>
<path fill="none" stroke="midnightblue" d="M126.038,-162C115.938,-162 105.251,-162 95.1444,-162"/>
<polygon fill="midnightblue" stroke="midnightblue" points="126.301,-165.5 136.301,-162 126.301,-158.5 126.301,-165.5"/>
</g>
<!-- Node48&#45;&gt;Node42 -->
<g id="edge13" class="edge"><title>Node48&#45;&gt;Node42</title>
<path fill="none" stroke="midnightblue" d="M241.873,-128.573C209.829,-131.773 167.872,-136.618 131,-143 116.228,-145.557 100.13,-149.092 86.1083,-152.421"/>
<polygon fill="midnightblue" stroke="midnightblue" points="242.297,-132.048 251.909,-127.592 241.616,-125.082 242.297,-132.048"/>
</g>
<!-- Node49&#45;&gt;Node42 -->
<g id="edge15" class="edge"><title>Node49&#45;&gt;Node42</title>
<path fill="none" stroke="midnightblue" d="M241.823,-96.8962C209.595,-104.217 167.459,-114.748 131,-127 109.173,-134.335 85.0095,-144.887 68.5064,-152.485"/>
<polygon fill="midnightblue" stroke="midnightblue" points="242.926,-100.236 251.919,-94.6341 241.396,-93.4053 242.926,-100.236"/>
</g>
<!-- Node50&#45;&gt;Node42 -->
<g id="edge17" class="edge"><title>Node50&#45;&gt;Node42</title>
<path fill="none" stroke="midnightblue" d="M253.235,-56.4963C219.39,-64.593 170.375,-78.594 131,-99 102.519,-113.76 73.7591,-138.452 58.8774,-152.129"/>
<polygon fill="midnightblue" stroke="midnightblue" points="254.277,-59.8474 263.224,-54.1725 252.691,-53.0295 254.277,-59.8474"/>
</g>
<!-- Node51 -->
<g id="node12" class="node"><title>Node51</title>
<g id="a_node12"><a xlink:href="_a31_l12x__hal__debug__frmwrk_8c.html#a4948fa615b0a307158db94b71b37801b" target="_top" xlink:title="Puts a string to UART port and print new line.">
<polygon fill="white" stroke="black" points="139.5,-0.5 139.5,-19.5 207.5,-19.5 207.5,-0.5 139.5,-0.5"/>
<text text-anchor="middle" x="173.5" y="-7.5" font-family="Helvetica,sans-Serif" font-size="10.00">UARTPuts_</text>
</a>
</g>
</g>
<!-- Node50&#45;&gt;Node51 -->
<g id="edge18" class="edge"><title>Node50&#45;&gt;Node51</title>
<path fill="none" stroke="midnightblue" d="M253.79,-35.3196C237.711,-30.1852 219.457,-24.3559 204.519,-19.5859"/>
<polygon fill="midnightblue" stroke="midnightblue" points="252.88,-38.7031 263.471,-38.411 255.01,-32.0348 252.88,-38.7031"/>
</g>
<!-- Node51&#45;&gt;Node42 -->
<g id="edge19" class="edge"><title>Node51&#45;&gt;Node42</title>
<path fill="none" stroke="midnightblue" d="M142.737,-24.8596C138.562,-27.597 134.506,-30.6591 131,-34 92.3379,-70.842 63.3233,-129.238 52.803,-152.235"/>
<polygon fill="midnightblue" stroke="midnightblue" points="144.554,-27.8511 151.336,-19.7114 140.959,-21.8452 144.554,-27.8511"/>
</g>
</g>
</svg>
        <g id="navigator" transform="translate(0 0)" fill="#404254">
                <rect fill="#f2f5e9" fill-opacity="0.5" stroke="#606060" stroke-width=".5" x="0" y="0" width="60" height="60"/>
                <use id="zoomplus" xlink:href="#zoomPlus" x="17" y="9" onmousedown="handleZoom(evt,'in')"/>
                <use id="zoomminus" xlink:href="#zoomMin" x="42" y="9" onmousedown="handleZoom(evt,'out')"/>
                <use id="reset" xlink:href="#resetDef" x="30" y="36" onmousedown="handleReset()"/>
                <g id="arrowUp" xlink:href="#dirArrow" transform="translate(30 24)" onmousedown="handlePan(0,-1)">
                  <use xlink:href="#rim" fill="#404040">
                        <set attributeName="fill" to="#808080" begin="arrowUp.mouseover" end="arrowUp.mouseout"/>
                  </use>
                  <path fill="none" stroke="white" stroke-width="1.5" d="M0,-3.0v7 M-2.5,-0.5L0,-3.0L2.5,-0.5"/>
                </g>
                <g id="arrowRight" xlink:href="#dirArrow" transform="rotate(90) translate(36 -43)" onmousedown="handlePan(1,0)">
                  <use xlink:href="#rim" fill="#404040">
                        <set attributeName="fill" to="#808080" begin="arrowRight.mouseover" end="arrowRight.mouseout"/>
                  </use>
                  <path fill="none" stroke="white" stroke-width="1.5" d="M0,-3.0v7 M-2.5,-0.5L0,-3.0L2.5,-0.5"/>
                </g>
                <g id="arrowDown" xlink:href="#dirArrow" transform="rotate(180) translate(-30 -48)" onmousedown="handlePan(0,1)">
                  <use xlink:href="#rim" fill="#404040">
                        <set attributeName="fill" to="#808080" begin="arrowDown.mouseover" end="arrowDown.mouseout"/>
                  </use>
                  <path fill="none" stroke="white" stroke-width="1.5" d="M0,-3.0v7 M-2.5,-0.5L0,-3.0L2.5,-0.5"/>
                </g>
                <g id="arrowLeft" xlink:href="#dirArrow" transform="rotate(270) translate(-36 17)" onmousedown="handlePan(-1,0)">
                  <use xlink:href="#rim" fill="#404040">
                        <set attributeName="fill" to="#808080" begin="arrowLeft.mouseover" end="arrowLeft.mouseout"/>
                  </use>
                  <path fill="none" stroke="white" stroke-width="1.5" d="M0,-3.0v7 M-2.5,-0.5L0,-3.0L2.5,-0.5"/>
                </g>
        </g>
        <svg viewBox="0 0 15 15" width="100%" height="30px" preserveAspectRatio="xMaxYMin meet">
         <g id="arrow_out" transform="scale(0.3 0.3)">
          <a xlink:href="_a31_l12x__hal__uartn_8c_ab1488eccbac797387079ab39be51ac38_icgraph_org.svg" target="_base">
           <rect id="button" ry="5" rx="5" y="6" x="6" height="38" width="38"
                fill="#f2f5e9" fill-opacity="0.5" stroke="#606060" stroke-width="1.0"/>
           <path id="arrow"
             d="M 11.500037,31.436501 C 11.940474,20.09759 22.043105,11.32322 32.158766,21.979434 L 37.068811,17.246167 C 37.068811,17.246167 37.088388,32 37.088388,32 L 22.160133,31.978069 C 22.160133,31.978069 26.997745,27.140456 26.997745,27.140456 C 18.528582,18.264221 13.291696,25.230495 11.500037,31.436501 z"
             style="fill:#404040;"/>
          </a>
         </g>
        </svg>
</svg>
