<?xml version="1.0" encoding="UTF-8" standalone="no"?>
<!DOCTYPE svg PUBLIC "-//W3C//DTD SVG 1.1//EN"
 "http://www.w3.org/Graphics/SVG/1.1/DTD/svg11.dtd">
<!-- Generated by graphviz version 2.38.0 (20140413.2041)
 -->
<!-- Title: UARTPuts Pages: 1 -->
<svg width="305pt" height="47pt"
 viewBox="0.00 0.00 305.00 47.00" xmlns="http://www.w3.org/2000/svg" xmlns:xlink="http://www.w3.org/1999/xlink">
<g id="graph0" class="graph" transform="scale(1 1) rotate(0) translate(4 43)">
<title>UARTPuts</title>
<polygon fill="white" stroke="none" points="-4,4 -4,-43 301,-43 301,4 -4,4"/>
<!-- Node101 -->
<g id="node1" class="node"><title>Node101</title>
<g id="a_node1"><a xlink:title="Puts a string to UART port.">
<polygon fill="#bfbfbf" stroke="black" points="235,-19.5 235,-38.5 297,-38.5 297,-19.5 235,-19.5"/>
<text text-anchor="middle" x="266" y="-26.5" font-family="Helvetica,sans-Serif" font-size="10.00">UARTPuts</text>
</a>
</g>
</g>
<!-- Node102 -->
<g id="node2" class="node"><title>Node102</title>
<g id="a_node2"><a xlink:href="_a31_l12x__hal__debug__frmwrk_8c.html#aa79ebfdcc65f8acaa847e9deaecea5a0" target="_top" xlink:title="Initializes Debug Framework through initializing UARTn.">
<polygon fill="white" stroke="black" points="0,-19.5 0,-38.5 95,-38.5 95,-19.5 0,-19.5"/>
<text text-anchor="middle" x="47.5" y="-26.5" font-family="Helvetica,sans-Serif" font-size="10.00">debug_frmwrk_init</text>
</a>
</g>
</g>
<!-- Node101&#45;&gt;Node102 -->
<g id="edge1" class="edge"><title>Node101&#45;&gt;Node102</title>
<path fill="none" stroke="midnightblue" d="M224.552,-29C187.786,-29 133.555,-29 95.0111,-29"/>
<polygon fill="midnightblue" stroke="midnightblue" points="224.897,-32.5001 234.897,-29 224.897,-25.5001 224.897,-32.5001"/>
</g>
<!-- Node103 -->
<g id="node3" class="node"><title>Node103</title>
<g id="a_node3"><a xlink:href="_a31_l12x__hal__debug__frmwrk_8c.html#a4948fa615b0a307158db94b71b37801b" target="_top" xlink:title="Puts a string to UART port and print new line.">
<polygon fill="white" stroke="black" points="131,-0.5 131,-19.5 199,-19.5 199,-0.5 131,-0.5"/>
<text text-anchor="middle" x="165" y="-7.5" font-family="Helvetica,sans-Serif" font-size="10.00">UARTPuts_</text>
</a>
</g>
</g>
<!-- Node101&#45;&gt;Node103 -->
<g id="edge2" class="edge"><title>Node101&#45;&gt;Node103</title>
<path fill="none" stroke="midnightblue" d="M224.67,-21.26C216.191,-19.6326 207.34,-17.9339 199.159,-16.3639"/>
<polygon fill="midnightblue" stroke="midnightblue" points="224.278,-24.7485 234.759,-23.1961 225.598,-17.874 224.278,-24.7485"/>
</g>
<!-- Node103&#45;&gt;Node102 -->
<g id="edge3" class="edge"><title>Node103&#45;&gt;Node102</title>
<path fill="none" stroke="midnightblue" d="M120.985,-17.076C112.634,-18.4499 103.841,-19.8962 95.3729,-21.2893"/>
<polygon fill="midnightblue" stroke="midnightblue" points="121.603,-20.5215 130.902,-15.4446 120.467,-13.6143 121.603,-20.5215"/>
</g>
</g>
</svg>
