<?xml version="1.0" encoding="UTF-8" standalone="no"?>
<!DOCTYPE svg PUBLIC "-//W3C//DTD SVG 1.1//EN"
 "http://www.w3.org/Graphics/SVG/1.1/DTD/svg11.dtd">
<!-- Generated by graphviz version 2.38.0 (20140413.2041)
 -->
<!-- Title: I2Cn_CFG_Type Pages: 1 -->
<svg width="269pt" height="248pt"
 viewBox="0.00 0.00 269.00 248.00" xmlns="http://www.w3.org/2000/svg" xmlns:xlink="http://www.w3.org/1999/xlink">
<g id="graph0" class="graph" transform="scale(1 1) rotate(0) translate(4 244)">
<title>I2Cn_CFG_Type</title>
<polygon fill="white" stroke="none" points="-4,4 -4,-244 265,-244 265,4 -4,4"/>
<!-- Node1 -->
<g id="node1" class="node"><title>Node1</title>
<g id="a_node1"><a xlink:title=" ">
<polygon fill="#bfbfbf" stroke="black" points="77,-0.5 77,-68.5 165,-68.5 165,-0.5 77,-0.5"/>
<text text-anchor="middle" x="121" y="-56.5" font-family="Helvetica,sans-Serif" font-size="10.00">I2Cn_CFG_Type</text>
<polyline fill="none" stroke="black" points="77,-49.5 165,-49.5 "/>
<text text-anchor="start" x="85" y="-37.5" font-family="Helvetica,sans-Serif" font-size="10.00">+ @2</text>
<text text-anchor="start" x="85" y="-26.5" font-family="Helvetica,sans-Serif" font-size="10.00">+ dir</text>
<polyline fill="none" stroke="black" points="77,-19.5 165,-19.5 "/>
<text text-anchor="middle" x="121" y="-7.5" font-family="Helvetica,sans-Serif" font-size="10.00"> </text>
</a>
</g>
</g>
<!-- Node2 -->
<g id="node2" class="node"><title>Node2</title>
<g id="a_node2"><a xlink:href="struct_i2_cn___s___s_e_t_u_p___type.html" target="_top" xlink:title=" ">
<polygon fill="white" stroke="black" points="0,-122 0,-234 112,-234 112,-122 0,-122"/>
<text text-anchor="middle" x="56" y="-222" font-family="Helvetica,sans-Serif" font-size="10.00">I2Cn_S_SETUP_Type</text>
<polyline fill="none" stroke="black" points="0,-215 112,-215 "/>
<text text-anchor="start" x="8" y="-203" font-family="Helvetica,sans-Serif" font-size="10.00">+ tx_data</text>
<text text-anchor="start" x="8" y="-192" font-family="Helvetica,sans-Serif" font-size="10.00">+ tx_length</text>
<text text-anchor="start" x="8" y="-181" font-family="Helvetica,sans-Serif" font-size="10.00">+ tx_count</text>
<text text-anchor="start" x="8" y="-170" font-family="Helvetica,sans-Serif" font-size="10.00">+ rx_data</text>
<text text-anchor="start" x="8" y="-159" font-family="Helvetica,sans-Serif" font-size="10.00">+ rx_length</text>
<text text-anchor="start" x="8" y="-148" font-family="Helvetica,sans-Serif" font-size="10.00">+ rx_count</text>
<polyline fill="none" stroke="black" points="0,-141 112,-141 "/>
<text text-anchor="middle" x="56" y="-129" font-family="Helvetica,sans-Serif" font-size="10.00"> </text>
</a>
</g>
</g>
<!-- Node2&#45;&gt;Node1 -->
<g id="edge1" class="edge"><title>Node2&#45;&gt;Node1</title>
<path fill="none" stroke="#404040" d="M69.3515,-121.585C73.069,-109.873 77.6022,-97.7976 83,-87 84.3694,-84.2606 85.8845,-81.5141 87.4979,-78.7938"/>
<polygon fill="none" stroke="#404040" points="87.6234,-78.5984 87.5005,-71.3883 94.1086,-68.5018 94.2316,-75.7118 87.6234,-78.5984"/>
<text text-anchor="middle" x="124" y="-90" font-family="Helvetica,sans-Serif" font-size="10.00"> +txrx_setup_slave</text>
</g>
<!-- Node3 -->
<g id="node3" class="node"><title>Node3</title>
<g id="a_node3"><a xlink:href="struct_i2_cn___m___s_e_t_u_p___type.html" target="_top" xlink:title=" ">
<polygon fill="white" stroke="black" points="130.5,-116.5 130.5,-239.5 243.5,-239.5 243.5,-116.5 130.5,-116.5"/>
<text text-anchor="middle" x="187" y="-227.5" font-family="Helvetica,sans-Serif" font-size="10.00">I2Cn_M_SETUP_Type</text>
<polyline fill="none" stroke="black" points="130.5,-220.5 243.5,-220.5 "/>
<text text-anchor="start" x="138.5" y="-208.5" font-family="Helvetica,sans-Serif" font-size="10.00">+ sl_addr7bit</text>
<text text-anchor="start" x="138.5" y="-197.5" font-family="Helvetica,sans-Serif" font-size="10.00">+ tx_data</text>
<text text-anchor="start" x="138.5" y="-186.5" font-family="Helvetica,sans-Serif" font-size="10.00">+ tx_length</text>
<text text-anchor="start" x="138.5" y="-175.5" font-family="Helvetica,sans-Serif" font-size="10.00">+ tx_count</text>
<text text-anchor="start" x="138.5" y="-164.5" font-family="Helvetica,sans-Serif" font-size="10.00">+ rx_data</text>
<text text-anchor="start" x="138.5" y="-153.5" font-family="Helvetica,sans-Serif" font-size="10.00">+ rx_length</text>
<text text-anchor="start" x="138.5" y="-142.5" font-family="Helvetica,sans-Serif" font-size="10.00">+ rx_count</text>
<polyline fill="none" stroke="black" points="130.5,-135.5 243.5,-135.5 "/>
<text text-anchor="middle" x="187" y="-123.5" font-family="Helvetica,sans-Serif" font-size="10.00"> </text>
</a>
</g>
</g>
<!-- Node3&#45;&gt;Node1 -->
<g id="edge2" class="edge"><title>Node3&#45;&gt;Node1</title>
<path fill="none" stroke="#404040" d="M176.219,-116.048C173.298,-106.05 169.62,-96.0192 165,-87 163.518,-84.107 161.843,-81.2383 160.034,-78.4224"/>
<polygon fill="none" stroke="#404040" points="159.945,-78.2963 153.211,-75.716 153.003,-68.5079 159.737,-71.0882 159.945,-78.2963"/>
<text text-anchor="middle" x="215.5" y="-90" font-family="Helvetica,sans-Serif" font-size="10.00"> +txrx_setup_master</text>
</g>
</g>
</svg>
